<svg xmlns="http://www.w3.org/2000/svg" version="1.1" viewBox="353.29254545454546 133.0512 224 368.88" style="max-height: 500px" width="224" height="368.88">
<path transform="translate(413,393)" fill="#040303" d="M0 0 C0.99 0.33 1.98 0.66 3 1 C2.41649465 5.51877396 1.18279019 9.20395336 -0.625 13.375 C-2.80087622 18.92221932 -3.86915024 22.2887076 -2 28 C1.59794457 31.42067357 5.26572545 33.12050195 9.875 34.875 C11.20196044 35.38636202 12.52877907 35.89809216 13.85546875 36.41015625 C14.53528809 36.66941895 15.21510742 36.92868164 15.91552734 37.19580078 C18.01120194 38.00432176 20.09453289 38.83868217 22.17578125 39.68359375 C23.18439209 40.09279053 23.18439209 40.09279053 24.21337891 40.51025391 C25.19056885 40.90736572 25.19056885 40.90736572 26.1875 41.3125 C36.50029186 45.49692353 45.18322551 46.221635 56 43 C57.78181931 42.52471335 59.56375493 42.04983753 61.34716797 41.58056641 C63.30980697 41.06320989 65.27037397 40.53862595 67.23046875 40.01171875 C69.56526966 39.3850727 71.90102908 38.76197181 74.23828125 38.14453125 C75.19089844 37.89058594 76.14351562 37.63664062 77.125 37.375 C77.95257813 37.15585937 78.78015625 36.93671875 79.6328125 36.7109375 C82.15946421 35.95210811 84.5655744 35.01362205 87 34 C87.02505615 34.62567871 87.0501123 35.25135742 87.07592773 35.89599609 C87.19175273 38.72254619 87.31453985 41.54875169 87.4375 44.375 C87.47681641 45.35984375 87.51613281 46.3446875 87.55664062 47.359375 C87.61948242 48.77089844 87.61948242 48.77089844 87.68359375 50.2109375 C87.73858032 51.51490479 87.73858032 51.51490479 87.79467773 52.84521484 C87.87401544 55.0483262 87.87401544 55.0483262 89 57 C91.80424069 57.90948347 93.43049204 58.18983599 96.25 57.25 C98.31552961 56.03369734 98.31552961 56.03369734 99 53 C99.08507079 50.2684044 99.11591565 47.56308557 99.09765625 44.83203125 C99.0962413 44.03721848 99.09482635 43.2424057 99.09336853 42.42350769 C99.08777378 39.88646675 99.07522228 37.34951425 99.0625 34.8125 C99.05748432 33.09179815 99.05292153 31.37109492 99.04882812 29.65039062 C99.03780607 25.4335597 99.02054506 21.21679484 99 17 C109.99301337 12.55604496 109.99301337 12.55604496 115.375 10.6875 C116.35210938 10.34074219 117.32921875 9.99398438 118.3359375 9.63671875 C121.20059645 8.95205686 122.31820961 8.8693278 125 10 C126.26098633 12.03100586 126.26098633 12.03100586 127.33203125 14.71484375 C127.73502441 15.70282959 128.13801758 16.69081543 128.55322266 17.70874023 C128.96878418 18.77423096 129.3843457 19.83972168 129.8125 20.9375 C130.2461084 22.02039307 130.6797168 23.10328613 131.12646484 24.21899414 C132.0078407 26.42601264 132.88285461 28.63558249 133.75146484 30.84765625 C134.87085224 33.67392337 136.02760814 36.47964651 137.20703125 39.28125 C137.84707758 40.83303515 138.48644876 42.38509903 139.125 43.9375 C139.41995361 44.62642334 139.71490723 45.31534668 140.01879883 46.02514648 C142.54709681 52.34088566 143.2315412 58.79117412 140.5625 65.1875 C136.14592586 73.00358535 126.50375966 76.34698331 118.5625 79.5 C116.450339 80.35632247 114.33837173 81.21312288 112.2265625 82.0703125 C111.0809082 82.53211914 109.93525391 82.99392578 108.75488281 83.46972656 C104.61938976 85.14612888 100.50972103 86.88246776 96.3984375 88.6171875 C94.15112588 89.56033178 91.90331095 90.50226373 89.65524292 91.44360352 C88.20014614 92.05470772 86.74626144 92.66870775 85.29373169 93.28588867 C66.40714266 101.2988629 48.84252318 105.76297539 28.16894531 102.34912109 C26.71282754 102.11473924 25.25357136 101.89914465 23.79199219 101.70166016 C8.6178212 99.6473008 -4.49975194 93.88410067 -18.37353516 87.60791016 C-21.99986656 86.00005917 -25.65071944 84.47711601 -29.32421875 82.98046875 C-30.49839355 82.499729 -31.67256836 82.01898926 -32.88232422 81.52368164 C-35.10570404 80.61708072 -37.33242285 79.71860893 -39.56298828 78.82983398 C-46.30516979 76.04586453 -52.47789359 73.05730162 -56.4375 66.6875 C-57.98333364 59.3018504 -56.87275936 53.36901342 -53.859375 46.5625 C-53.53592102 45.79752197 -53.21246704 45.03254395 -52.87921143 44.24438477 C-51.85110009 41.8228722 -50.80103965 39.41163539 -49.75 37 C-49.05973455 35.38343657 -48.37092011 33.76625275 -47.68359375 32.1484375 C-44.52464678 24.73535069 -41.30111275 17.35093149 -38 10 C-32.30271936 10.60770993 -27.26886247 12.10365034 -21.875 14 C-20.31087577 14.54448988 -18.74579401 15.08623823 -17.1796875 15.625 C-16.15464111 15.98464844 -16.15464111 15.98464844 -15.10888672 16.3515625 C-12.78381224 17.06647311 -10.38526496 17.52294701 -8 18 C-5.36 12.06 -2.72 6.12 0 0 Z"/>
<path transform="translate(492.375,183.34765625)" fill="#E4E4E4" d="M0 0 C1.9685003 2.16752147 3.85161887 4.32268977 5.625 6.65234375 C6.18703125 7.36261719 6.7490625 8.07289063 7.328125 8.8046875 C9.25053063 13.02587335 8.98227163 16.94818611 8.875 21.52734375 C8.86984375 22.40003906 8.8646875 23.27273437 8.859375 24.171875 C8.81281357 28.04229396 8.61807686 31.69884106 8.046875 35.53515625 C7.45380367 38.45678381 7.45380367 38.45678381 8.09033203 40.48706055 C8.75530955 43.18006769 8.75471804 45.64031879 8.7578125 48.4140625 C8.75910156 49.53361328 8.76039063 50.65316406 8.76171875 51.80664062 C8.75785156 52.97259766 8.75398438 54.13855469 8.75 55.33984375 C8.75386719 56.48646484 8.75773437 57.63308594 8.76171875 58.81445312 C8.74046554 77.37912967 8.74046554 77.37912967 4.125 82.58984375 C3.40441406 83.42128906 2.68382812 84.25273437 1.94140625 85.109375 C1.17699219 85.94855469 0.41257812 86.78773438 -0.375 87.65234375 C-1.12910156 88.50183594 -1.88320313 89.35132813 -2.66015625 90.2265625 C-4.88296711 92.71626317 -7.12808026 95.18441551 -9.375 97.65234375 C-12.6893866 101.36892558 -15.94750986 105.12467617 -19.11328125 108.96875 C-19.59941895 109.55487061 -20.08555664 110.14099121 -20.58642578 110.74487305 C-21.55295799 111.91203343 -22.51381435 113.08392298 -23.46826172 114.26098633 C-27.21493136 118.77466415 -29.41022367 120.39466817 -35.1875 121.15234375 C-39.43103851 121.00358502 -41.54392736 119.56280479 -44.55078125 116.6640625 C-47.43866869 113.47934723 -50.11406998 110.1377199 -52.7890625 106.7734375 C-55.64321347 103.25466745 -58.75770755 99.99938356 -61.875 96.71484375 C-76.22041907 81.44934061 -87.02850462 65.34351954 -86.8125 43.77734375 C-86.80492676 42.71741211 -86.79735352 41.65748047 -86.78955078 40.56542969 C-86.62879205 32.94523118 -85.71906281 26.57109439 -82.375 19.65234375 C-81.77365234 18.19054687 -81.77365234 18.19054687 -81.16015625 16.69921875 C-75.36136533 3.58890884 -65.13977782 -6.58495027 -52 -12.3984375 C-33.29661951 -19.24984945 -13.85856203 -13.69900621 0 0 Z"/>
<path transform="translate(492.375,183.34765625)" fill="#090909" d="M0 0 C1.9685003 2.16752147 3.85161887 4.32268977 5.625 6.65234375 C6.18703125 7.36261719 6.7490625 8.07289063 7.328125 8.8046875 C9.25053063 13.02587335 8.98227163 16.94818611 8.875 21.52734375 C8.86984375 22.40003906 8.8646875 23.27273437 8.859375 24.171875 C8.81281357 28.04229396 8.61807686 31.69884106 8.046875 35.53515625 C7.45380367 38.45678381 7.45380367 38.45678381 8.09033203 40.48706055 C8.75530955 43.18006769 8.75471804 45.64031879 8.7578125 48.4140625 C8.75910156 49.53361328 8.76039063 50.65316406 8.76171875 51.80664062 C8.75785156 52.97259766 8.75398438 54.13855469 8.75 55.33984375 C8.75386719 56.48646484 8.75773437 57.63308594 8.76171875 58.81445312 C8.74046554 77.37912967 8.74046554 77.37912967 4.125 82.58984375 C3.40441406 83.42128906 2.68382812 84.25273437 1.94140625 85.109375 C1.17699219 85.94855469 0.41257812 86.78773438 -0.375 87.65234375 C-1.12910156 88.50183594 -1.88320313 89.35132813 -2.66015625 90.2265625 C-4.88296711 92.71626317 -7.12808026 95.18441551 -9.375 97.65234375 C-12.6893866 101.36892558 -15.94750986 105.12467617 -19.11328125 108.96875 C-19.59941895 109.55487061 -20.08555664 110.14099121 -20.58642578 110.74487305 C-21.55295799 111.91203343 -22.51381435 113.08392298 -23.46826172 114.26098633 C-27.21493136 118.77466415 -29.41022367 120.39466817 -35.1875 121.15234375 C-39.43103851 121.00358502 -41.54392736 119.56280479 -44.55078125 116.6640625 C-47.43866869 113.47934723 -50.11406998 110.1377199 -52.7890625 106.7734375 C-55.64321347 103.25466745 -58.75770755 99.99938356 -61.875 96.71484375 C-76.22041907 81.44934061 -87.02850462 65.34351954 -86.8125 43.77734375 C-86.80492676 42.71741211 -86.79735352 41.65748047 -86.78955078 40.56542969 C-86.62879205 32.94523118 -85.71906281 26.57109439 -82.375 19.65234375 C-81.77365234 18.19054687 -81.77365234 18.19054687 -81.16015625 16.69921875 C-75.36136533 3.58890884 -65.13977782 -6.58495027 -52 -12.3984375 C-33.29661951 -19.24984945 -13.85856203 -13.69900621 0 0 Z M-59.375 3.65234375 C-60.26638672 4.46251953 -60.26638672 4.46251953 -61.17578125 5.2890625 C-71.06159893 15.39407792 -75.78025615 30.08796103 -75.6875 43.96484375 C-75.68476074 44.7964502 -75.68202148 45.62805664 -75.67919922 46.48486328 C-75.53680845 54.88919218 -73.52005355 61.91277718 -70.375 69.65234375 C-69.715 69.65234375 -69.055 69.65234375 -68.375 69.65234375 C-67.385 73.11734375 -67.385 73.11734375 -66.375 76.65234375 C-65.715 76.65234375 -65.055 76.65234375 -64.375 76.65234375 C-64.375 77.64234375 -64.375 78.63234375 -64.375 79.65234375 C-62.87235438 81.26144046 -62.87235438 81.26144046 -60.9375 82.71484375 C-57.46545226 85.47143923 -57.46545226 85.47143923 -56.375 87.65234375 C-47.95040605 93.70752065 -38.49515271 94.69622487 -28.375 93.65234375 C-24.24229204 92.60671884 -20.31703932 91.26959065 -16.375 89.65234375 C-16.375 88.99234375 -16.375 88.33234375 -16.375 87.65234375 C-15.7975 87.59046875 -15.22 87.52859375 -14.625 87.46484375 C-11.49242429 86.33363585 -10.34039149 84.27286574 -8.375 81.65234375 C-7.715 81.32234375 -7.055 80.99234375 -6.375 80.65234375 C-5.64806096 78.67345414 -4.97683749 76.67279817 -4.375 74.65234375 C-3.715 74.65234375 -3.055 74.65234375 -2.375 74.65234375 C-1.39311439 72.07001461 -0.41440411 69.48655692 0.5625 66.90234375 C0.84029297 66.17273438 1.11808594 65.443125 1.40429688 64.69140625 C1.67177734 63.98242188 1.93925781 63.2734375 2.21484375 62.54296875 C2.46097412 61.89360352 2.70710449 61.24423828 2.96069336 60.57519531 C6.82056302 49.40270968 6.43487425 33.14464512 1.9609375 22.29296875 C-4.78116671 8.79787953 -4.78116671 8.79787953 -16.375 -0.34765625 C-17.035 -0.34765625 -17.695 -0.34765625 -18.375 -0.34765625 C-18.375 -1.00765625 -18.375 -1.66765625 -18.375 -2.34765625 C-33.01370076 -8.94942326 -47.22625589 -7.40845313 -59.375 3.65234375 Z"/>
<path transform="translate(426.963134765625,341.916015625)" fill="#FD4804" d="M0 0 C9.25049578 1.87721026 18.18998783 4.78840189 27.1640625 7.67919922 C29.98966051 8.58890873 32.81858917 9.48760386 35.64819336 10.38476562 C37.4537353 10.96095155 39.25908114 11.53775243 41.06420898 12.11523438 C41.9058812 12.38299683 42.74755341 12.65075928 43.61473083 12.92663574 C44.39977493 13.18029907 45.18481903 13.4339624 45.99365234 13.6953125 C46.67995224 13.91578247 47.36625214 14.13625244 48.073349 14.36340332 C50.15173213 15.1261388 52.07609363 16.0592072 54.03686523 17.08398438 C53.10470131 19.94705928 52.17814536 22.75987114 50.97436523 25.52148438 C47.60874151 34.72085588 48.52984423 44.81696029 51.03686523 54.08398438 C40.81359136 57.49174233 28.42620419 56.50167906 17.73779297 56.65380859 C15.71948671 56.69076373 13.70143318 56.74562034 11.68408203 56.81787109 C8.74221657 56.92121141 5.80448228 56.96566847 2.86108398 56.99804688 C1.96411301 57.04136139 1.06714203 57.0846759 0.14299011 57.12930298 C-2.50699927 57.12131209 -4.47211447 56.99934851 -6.96313477 56.08398438 C-13.85647316 49.10010641 -15.00528062 40.72671237 -15.33813477 31.33398438 C-15.15167193 20.54244791 -12.35454407 11.08641685 -4.96313477 3.08398438 C-4.5282373 2.54789551 -4.09333984 2.01180664 -3.64526367 1.45947266 C-1.96313477 0.08398438 -1.96313477 0.08398438 0 0 Z"/>
<path transform="translate(418,398)" fill="#FD4804" d="M0 0 C0.33 0.66 0.66 1.32 1 2 C6.28122119 1.87931963 11.56236279 1.75568638 16.84344482 1.62905884 C18.69210801 1.58482284 20.54078156 1.54101726 22.38946533 1.49765015 C33.94738465 1.22443231 45.4934533 0.92589356 57.02978516 0.12915039 C59.01681145 0.01097742 61.00947334 -0.00647677 63 0 C63.99 0.99 63.99 0.99 65 2 C67.88717605 2.6837613 67.88717605 2.6837613 71.125 3.125 C72.22070312 3.29257812 73.31640625 3.46015625 74.4453125 3.6328125 C75.70988281 3.81457031 75.70988281 3.81457031 77 4 C77.70350553 6.68419062 78.38795993 9.37101833 79.0625 12.0625 C79.26166016 12.81466797 79.46082031 13.56683594 79.66601562 14.34179688 C80.85868632 19.17525178 81.3682335 23.08540344 80 28 C76.80372602 31.92539748 71.29416934 32.1907823 66.5625 33.0625 C61.48609141 34.02520049 56.76752891 34.95449928 52 37 C38.73173222 41.27998862 27.99556306 39.12281869 15.5 33.75 C14.29085938 33.25886719 13.08171875 32.76773438 11.8359375 32.26171875 C-3.78314394 25.82528409 -3.78314394 25.82528409 -7 21 C-8.03536683 14.04825129 -5.07579336 8.14226614 -2 2 C-1.34 1.34 -0.68 0.68 0 0 Z"/>
<path transform="translate(381,304)" fill="#050505" d="M0 0 C6.68423471 2.03925805 12.86827299 4.69627156 19.1796875 7.6953125 C22.71397569 9.33028792 25.37349696 10.12501066 29.23046875 10.09765625 C30.03291016 10.09443359 30.83535156 10.09121094 31.66210938 10.08789062 C32.91217773 10.07532227 32.91217773 10.07532227 34.1875 10.0625 C35.4549707 10.05573242 35.4549707 10.05573242 36.74804688 10.04882812 C38.83206155 10.03705403 40.91603977 10.0191189 43 10 C43.59212901 13.72508677 44.14342728 17.45511638 44.6875 21.1875 C44.85572266 22.24259766 45.02394531 23.29769531 45.19726562 24.38476562 C45.34228516 25.40634766 45.48730469 26.42792969 45.63671875 27.48046875 C45.84880981 28.88655396 45.84880981 28.88655396 46.06518555 30.32104492 C45.94529917 35.2480608 42.83120485 38.34297579 39.5625 41.75 C29.8454247 52.69708483 29.6655876 66.06614988 30 80 C25.07017894 80.35073826 21.19484365 80.58614972 16.6875 78.375 C5.10217398 68.13680492 6.19510465 52.26771043 4.34057617 37.6184082 C3.93796229 34.4411482 3.53075713 31.26450023 3.12304688 28.08789062 C2.86170508 26.03649323 2.60062844 23.98506204 2.33984375 21.93359375 C2.22003647 20.99994492 2.10022919 20.06629608 1.97679138 19.10435486 C1.17563377 12.74683765 0.54202945 6.38471082 0 0 Z"/>
<path transform="translate(545.51171875,322.96484375)" fill="#FC4805" d="M0 0 C11.44552586 4.7614825 18.46598464 11.78521184 23.48828125 23.03515625 C14.96429184 34.70132215 5.72869295 46.79474455 -4.51171875 57.03515625 C-6.890625 57.38671875 -6.890625 57.38671875 -9.51171875 57.03515625 C-11.1015625 55.05859375 -11.1015625 55.05859375 -12.44921875 52.41015625 C-14.27082888 49.0767975 -15.90750168 46.36956759 -18.69921875 43.78515625 C-21.51171875 41.03515625 -21.51171875 41.03515625 -22.82421875 37.97265625 C-25.31450856 33.63770732 -29.09272511 32.12885135 -33.51171875 30.03515625 C-33.95791512 23.26461134 -32.30979089 17.18902848 -30.63671875 10.66015625 C-30.36730469 9.55542969 -30.09789062 8.45070313 -29.8203125 7.3125 C-29.55605469 6.26449219 -29.29179688 5.21648437 -29.01953125 4.13671875 C-28.65819092 2.70320068 -28.65819092 2.70320068 -28.28955078 1.24072266 C-25.77197012 -5.89795395 -5.68407334 -1.85443971 0 0 Z"/>
<path transform="translate(409,256)" fill="#FD4805" d="M0 0 C3.75895946 1.25298649 4.00243667 2.3146797 5.9375 5.6875 C8.88968796 10.48947661 12.13379252 14.75192708 15.8125 19 C16.32184082 19.5892627 16.83118164 20.17852539 17.35595703 20.78564453 C19.85240675 23.64063948 22.39416005 26.43441739 25.03125 29.16015625 C25.50071045 29.65193359 25.9701709 30.14371094 26.45385742 30.65039062 C27.73274137 31.97960262 29.03177853 33.28933995 30.33203125 34.59765625 C32 37 32 37 32.00390625 39.49609375 C29.19993635 46.48965292 23.17704318 51.83682985 16.5 55.0625 C5.73037457 59.29235288 -2.8859646 57.88630955 -13.390625 53.390625 C-15.6813864 52.35319972 -17.96778897 51.30610217 -20.25 50.25 C-21.40757812 49.73695313 -22.56515625 49.22390625 -23.7578125 48.6953125 C-34.59659111 43.71398007 -34.59659111 43.71398007 -38 38 C-38 36.68 -38 35.36 -38 34 C-36.90042969 33.46632813 -35.80085938 32.93265625 -34.66796875 32.3828125 C-19.55210122 24.85228738 -7.72053234 15.44106469 0 0 Z"/>
<path transform="translate(443,296)" fill="#090808" d="M0 0 C0.78632813 0.78890625 1.57265625 1.5778125 2.3828125 2.390625 C6.85102821 6.84550275 9.47541564 8.77882765 16 9 C20.20577291 7.5980757 22.97359386 6.17772645 26 3 C26.99 3 27.98 3 29 3 C29.721875 3.7425 30.44375 4.485 31.1875 5.25 C37.37758949 11.30253194 43.78380187 12.55552993 52.2421875 13.60546875 C55 14 55 14 57 15 C57 18.63 57 22.26 57 26 C38.7022268 34.73302812 15.99936401 35.25894614 -3.875 33.125 C-4.70257813 33.04636719 -5.53015625 32.96773438 -6.3828125 32.88671875 C-7.18203125 32.80292969 -7.98125 32.71914063 -8.8046875 32.6328125 C-9.51608887 32.55949707 -10.22749023 32.48618164 -10.96044922 32.41064453 C-13.30051025 31.93949506 -15.00043277 31.3106869 -17 30 C-17.609375 26.7421875 -17.609375 26.7421875 -17.75 22.875 C-17.80671875 21.59367187 -17.8634375 20.31234375 -17.921875 18.9921875 C-17.94765625 18.00476563 -17.9734375 17.01734375 -18 16 C-16.329375 15.1028125 -16.329375 15.1028125 -14.625 14.1875 C-8.71642823 10.54493962 -4.46606442 5.22566144 0 0 Z"/>
<path transform="translate(457,182)" fill="#191919" d="M0 0 C2 3 2 3 2 6 C7.61 6 13.22 6 19 6 C19 6.99 19 7.98 19 9 C11.08 9.495 11.08 9.495 3 10 C2.67 11.98 2.34 13.96 2 16 C14.87 16.495 14.87 16.495 28 17 C28 17.66 28 18.32 28 19 C19.42 19 10.84 19 2 19 C2.495 22.465 2.495 22.465 3 26 C9.52190909 26.78952918 16.00084082 27.26883807 22.5625 27.5625 C23.93245117 27.62727539 23.93245117 27.62727539 25.33007812 27.69335938 C27.55327991 27.79811757 29.77656707 27.90029017 32 28 C32 28.66 32 29.32 32 30 C22.43 30 12.86 30 3 30 C3 32.64 3 35.28 3 38 C3.89307861 37.98952637 4.78615723 37.97905273 5.70629883 37.96826172 C9.02175477 37.93416408 12.33702421 37.90909363 15.65258789 37.89013672 C17.08718812 37.880083 18.52176789 37.86643806 19.95629883 37.84912109 C22.01909438 37.82484451 24.08161885 37.81351081 26.14453125 37.8046875 C27.38565674 37.79421387 28.62678223 37.78374023 29.90551758 37.77294922 C33 38 33 38 36 40 C34.0769111 41.9230889 30.52929515 41.25321838 27.90234375 41.31640625 C26.83905602 41.3475779 26.83905602 41.3475779 25.75428772 41.37937927 C23.48212695 41.44494598 21.20984736 41.5037923 18.9375 41.5625 C17.40037817 41.60567849 15.8632685 41.64929255 14.32617188 41.69335938 C10.5509041 41.80063449 6.7755164 41.90188137 3 42 C3 43.98 3 45.96 3 48 C4.05316406 47.98839844 5.10632813 47.97679687 6.19140625 47.96484375 C13.63711487 47.90754235 21.06469994 47.94503974 28.5 48.375 C29.7271875 48.44460937 30.954375 48.51421875 32.21875 48.5859375 C33.1365625 48.72257812 34.054375 48.85921875 35 49 C35.33 49.66 35.66 50.32 36 51 C31.70394268 51.82222554 27.66033397 52.11770795 23.2890625 52.09765625 C22.04511719 52.09443359 20.80117188 52.09121094 19.51953125 52.08789062 C18.23433594 52.07951172 16.94914062 52.07113281 15.625 52.0625 C14.31660156 52.05798828 13.00820313 52.05347656 11.66015625 52.04882812 C8.44005719 52.03707594 5.2200523 52.02064543 2 52 C2.495 55.465 2.495 55.465 3 59 C12.57 59.33 22.14 59.66 32 60 C32 60.66 32 61.32 32 62 C31.15703369 62.02505615 30.31406738 62.0501123 29.44555664 62.07592773 C26.32758326 62.17088155 23.20978497 62.27012448 20.09204102 62.37231445 C18.74085853 62.41571223 17.38961947 62.4573837 16.03833008 62.49731445 C14.09963299 62.55489952 12.16113724 62.61914298 10.22265625 62.68359375 C9.05484619 62.72025146 7.88703613 62.75690918 6.68383789 62.79467773 C4.08220205 62.70076188 4.08220205 62.70076188 3 64 C2.95936168 65.66617115 2.957279 67.33388095 3 69 C8.28433677 70.03087881 13.51104648 70.31611358 18.875 70.5625 C19.75414062 70.60568359 20.63328125 70.64886719 21.5390625 70.69335938 C23.69255797 70.79869339 25.84626064 70.89977649 28 71 C27.67 71.66 27.34 72.32 27 73 C19.08 73.33 11.16 73.66 3 74 C3 75.98 3 77.96 3 80 C8.61 80.33 14.22 80.66 20 81 C20 81.66 20 82.32 20 83 C16.69005287 84.65497356 13.00877 84.10084335 9.375 84.0625 C8.57320313 84.05798828 7.77140625 84.05347656 6.9453125 84.04882812 C4.96350994 84.03703168 2.98174567 84.01909605 1 84 C1 85.98 1 87.96 1 90 C0.67 90 0.34 90 0 90 C0 88.02 0 86.04 0 84 C-1.80597656 84.01740234 -1.80597656 84.01740234 -3.6484375 84.03515625 C-5.22395679 84.04453434 -6.79947775 84.05363452 -8.375 84.0625 C-9.1690625 84.07087891 -9.963125 84.07925781 -10.78125 84.08789062 C-16.7734375 84.11328125 -16.7734375 84.11328125 -19 83 C-19 82.34 -19 81.68 -19 81 C-10.585 80.505 -10.585 80.505 -2 80 C-2 77.69 -2 75.38 -2 73 C-9.92 73 -17.84 73 -26 73 C-26 72.01 -26 71.02 -26 70 C-18.08 70 -10.16 70 -2 70 C-2 67.69 -2 65.38 -2 63 C-11.57 62.67 -21.14 62.34 -31 62 C-31 61.34 -31 60.68 -31 60 C-21.43 59.67 -11.86 59.34 -2 59 C-1.67 56.69 -1.34 54.38 -1 52 C-2.27846802 52.00785522 -2.27846802 52.00785522 -3.58276367 52.01586914 C-6.76033273 52.03296332 -9.93787825 52.04547562 -13.11547852 52.05493164 C-14.48788222 52.05994454 -15.86028062 52.06675658 -17.23266602 52.07543945 C-19.21107651 52.08763857 -21.1895268 52.09272248 -23.16796875 52.09765625 C-24.95110474 52.10551147 -24.95110474 52.10551147 -26.77026367 52.11352539 C-29.64737487 52.01239479 -32.20673413 51.66550193 -35 51 C-35 50.34 -35 49.68 -35 49 C-23.64753762 48.13387208 -12.38380184 47.88141873 -1 48 C-1 46.02 -1 44.04 -1 42 C-1.62261719 42.01160156 -2.24523437 42.02320313 -2.88671875 42.03515625 C-13.27548181 42.13658071 -23.62884758 41.54799794 -34 41 C-34.33 40.34 -34.66 39.68 -35 39 C-32.04189524 37.52094762 -29.0452845 37.87809097 -25.8046875 37.90234375 C-25.09724396 37.9037587 -24.38980042 37.90517365 -23.66091919 37.90663147 C-21.39890331 37.912234 -19.13698602 37.92478682 -16.875 37.9375 C-15.34244935 37.94251468 -13.80989714 37.94707764 -12.27734375 37.95117188 C-8.51819112 37.96220423 -4.75911228 37.97947048 -1 38 C-1.495 34.535 -1.495 34.535 -2 31 C-11.57 30.67 -21.14 30.34 -31 30 C-31 29.34 -31 28.68 -31 28 C-24.62542652 27.04531742 -18.43938347 26.8797676 -12 26.9375 C-11.03449219 26.94201172 -10.06898438 26.94652344 -9.07421875 26.95117188 C-6.71607911 26.96284583 -4.35807398 26.97921979 -2 27 C-2 24.36 -2 21.72 -2 19 C-10.25 19 -18.5 19 -27 19 C-27 18.34 -27 17.68 -27 17 C-14.625 16.505 -14.625 16.505 -2 16 C-2 14.02 -2 12.04 -2 10 C-7.61 9.67 -13.22 9.34 -19 9 C-18.67 8.01 -18.34 7.02 -18 6 C-9.585 5.505 -9.585 5.505 -1 5 C-0.67 3.35 -0.34 1.7 0 0 Z"/>
<path transform="translate(502,227)" fill="#161515" d="M0 0 C2.64 0 5.28 0 8 0 C8.34280524 24.08248123 8.65007954 48.16522334 8.91375065 72.24870586 C8.96755449 77.14883931 9.024468 82.04891761 9.08489418 86.94897366 C9.17436273 94.2258282 9.2440335 101.50244055 9.28710938 108.77975464 C9.30400122 111.1300151 9.32789787 113.48023592 9.35888672 115.83035278 C9.39998533 119.04986888 9.41636443 122.26853992 9.42578125 125.48828125 C9.44324905 126.42194519 9.46071686 127.35560913 9.47871399 128.31756592 C9.45765381 134.49007324 9.45765381 134.49007324 7.10620117 137.11010742 C4.55569849 138.18772215 3.53834398 138.01533759 1 137 C0.34 136.67 -0.32 136.34 -1 136 C-1.03122864 125.52084485 -1.05119323 115.0416945 -1.0625 104.5625 C-1.06335602 103.77485638 -1.06421204 102.98721275 -1.06509399 102.17570114 C-1.08875808 77.46712638 -0.91255785 52.76765344 -0.5 28.0625 C-0.48804218 27.34601917 -0.47608437 26.62953835 -0.46376419 25.89134598 C-0.31885709 17.2607182 -0.16465217 8.63027528 0 0 Z"/>
<path transform="translate(385,366)" fill="#FB4A07" d="M0 0 C0.99 0 1.98 0 3 0 C3.14695312 0.87011719 3.14695312 0.87011719 3.296875 1.7578125 C4.46166304 7.84282589 5.94029017 12.79981996 11.2109375 16.58984375 C14.4531709 18.22912422 17.21793 18.71548576 20.8125 19.1875 C22.55466797 19.42533203 22.55466797 19.42533203 24.33203125 19.66796875 C25.21246094 19.77753906 26.09289062 19.88710938 27 20 C28.86152287 25.18123867 26.81152462 28.92174015 24.75 33.6875 C24.43675781 34.45900391 24.12351562 35.23050781 23.80078125 36.02539062 C21.39716651 41.73522233 21.39716651 41.73522233 18 44 C15.29748292 43.4405049 12.83903991 42.77768137 10.2265625 41.9296875 C9.46580414 41.69218781 8.70504578 41.45468811 7.92123413 41.20999146 C6.31034032 40.70345936 4.70153676 40.19023901 3.09472656 39.67089844 C0.64667296 38.88198436 -1.80841913 38.11923384 -4.265625 37.359375 C-5.83122245 36.86353401 -7.3963435 36.36618578 -8.9609375 35.8671875 C-9.69130219 35.64094696 -10.42166687 35.41470642 -11.17416382 35.18161011 C-15.47696692 33.77126743 -18.66421012 32.19424742 -22 29 C-22.8125 26.75 -22.8125 26.75 -23 25 C-22.17757813 24.28457031 -21.35515625 23.56914062 -20.5078125 22.83203125 C-13.96175095 17.02424732 -8.19112891 11.20259915 -3.16064453 4.01489258 C-2.1710421 2.62864186 -1.09204148 1.30707668 0 0 Z"/>
<path transform="translate(490,358)" fill="#FC4A07" d="M0 0 C-0.350625 0.680625 -0.70125 1.36125 -1.0625 2.0625 C-2.2740589 5.85871788 -2.04600406 8.16465178 -1 12 C2.93083283 16.04002263 6.94224552 17.88681218 12.55078125 18.1953125 C13.79214844 18.17210937 15.03351563 18.14890625 16.3125 18.125 C17.56675781 18.10695313 18.82101562 18.08890625 20.11328125 18.0703125 C21.06589844 18.04710937 22.01851562 18.02390625 23 18 C23.12924931 24.720964 22.86718917 29.89540026 18.16015625 34.9921875 C12.93918422 39.67842311 9.23339341 42.28537178 2.0625 42.3125 C1.04285156 42.32925781 0.02320313 42.34601563 -1.02734375 42.36328125 C-4.42057507 41.94860252 -6.26006098 41.01056821 -9 39 C-13.98130953 31.88384353 -13.5946848 24.34210624 -13 16 C-11.35234829 8.53183955 -8.7253435 0 0 0 Z"/>
<path transform="translate(500,327)" fill="#111111" d="M0 0 C-0.33 3.63 -0.66 7.26 -1 11 C-20.85852207 16.93738105 -42.17366985 18.5001619 -62.75 16.125 C-63.44279053 16.04668945 -64.13558105 15.96837891 -64.84936523 15.88769531 C-69.75423586 15.24576414 -69.75423586 15.24576414 -72 13 C-72.4140625 10.8359375 -72.4140625 10.8359375 -72.625 8.375 C-72.69976562 7.55773437 -72.77453125 6.74046875 -72.8515625 5.8984375 C-72.90054687 5.27195312 -72.94953125 4.64546875 -73 4 C-71.66545776 4.0611499 -71.66545776 4.0611499 -70.30395508 4.12353516 C-49.14944803 5.04881454 -28.54535487 5.7183354 -7.8125 0.5859375 C-5 0 -5 0 0 0 Z"/>
<path transform="translate(534,472)" fill="#F84C0C" d="M0 0 C2.51480797 2.51480797 2.28684241 4.13103994 2.32226562 7.5703125 C2.31904297 8.28960937 2.31582031 9.00890625 2.3125 9.75 C2.32861328 10.45382812 2.34472656 11.15765625 2.36132812 11.8828125 C2.36572834 16.61744534 1.68777616 19.9471005 -1 24 C-6.06066247 27.49997418 -12.94542876 26.33291708 -18.8515625 26.31567383 C-21.09685991 26.31253928 -23.3408053 26.33589383 -25.5859375 26.36132812 C-41.80565857 26.43504388 -41.80565857 26.43504388 -48 23 C-48.33 22.01 -48.66 21.02 -49 20 C-48.36835938 19.74943848 -47.73671875 19.49887695 -47.0859375 19.24072266 C-31.32485571 12.98114316 -15.63368068 6.57125921 0 0 Z"/>
<path transform="translate(499,264)" fill="#FD4804" d="M0 0 C0.33 0 0.66 0 1 0 C1.02527124 6.24795675 1.04283344 12.49590041 1.05493164 18.74389648 C1.05997298 20.87118014 1.06680591 22.99846031 1.07543945 25.12573242 C1.08751379 28.17627826 1.09323014 31.22677845 1.09765625 34.27734375 C1.10281754 35.23462875 1.10797882 36.19191376 1.11329651 37.1782074 C1.11340981 38.49946373 1.11340981 38.49946373 1.11352539 39.84741211 C1.115746 40.62684677 1.11796661 41.40628143 1.12025452 42.20933533 C1 44 1 44 0 45 C-7.84008921 45.72593419 -15.08241375 43.88112249 -21.48046875 39.17578125 C-23.39176147 37.5080515 -25.22469258 35.8109153 -27 34 C-26.57003334 29.53909588 -23.4646339 26.98527559 -20.5 23.9375 C-15.02825876 18.17162305 -9.96375005 12.21230068 -5 6 C-3.36021719 3.97091623 -1.70686918 1.97356749 0 0 Z"/>
<path transform="translate(512,269)" fill="#FB4A09" d="M0 0 C2.85529396 1.13992542 5.70794952 2.28597741 8.55859375 3.4375 C9.85154965 3.95836524 11.14451865 4.47919794 12.4375 5 C13.40139648 5.39058594 13.40139648 5.39058594 14.38476562 5.7890625 C18.21799725 7.33013836 22.06694486 8.7355866 26 10 C26.3323257 13.57250123 26.37876242 15.43721621 24.34375 18.4609375 C21.83640229 21.17723085 19.36857281 22.96213458 16.25 24.9375 C11.84395392 27.77611404 7.62875359 30.71221234 3.5234375 33.96875 C2 35 2 35 0 35 C-0.16748075 30.33712319 -0.32805376 25.67407963 -0.48217773 21.01074219 C-0.53560756 19.42376271 -0.59093771 17.83684605 -0.64819336 16.25 C-0.73007724 13.97149196 -0.80516524 11.69284678 -0.87890625 9.4140625 C-0.90594131 8.70255035 -0.93297638 7.99103821 -0.96083069 7.25796509 C-1.11387171 2.22774341 -1.11387171 2.22774341 0 0 Z"/>
<path transform="translate(528.06640625,295.85546875)" fill="#090909" d="M0 0 C2.99589703 1.77332895 4.97295232 4.34014946 7.12109375 7.01953125 C7.59651611 7.59727295 8.07193848 8.17501465 8.56176758 8.77026367 C10.02754104 10.55492771 11.4806015 12.3494558 12.93359375 14.14453125 C13.83877231 15.24827539 14.74497654 16.35117941 15.65234375 17.453125 C17.75413255 20.01052308 19.84753468 22.57430044 21.93359375 25.14453125 C21.60359375 25.80453125 21.27359375 26.46453125 20.93359375 27.14453125 C20.10859375 26.92796875 19.28359375 26.71140625 18.43359375 26.48828125 C9.06893734 24.23073015 0.51482739 23.80856591 -9.06640625 24.14453125 C-9.7177555 22.58432258 -10.36223589 21.02124546 -11.00390625 19.45703125 C-11.36355469 18.58691406 -11.72320313 17.71679688 -12.09375 16.8203125 C-13.02343745 14.2627386 -13.6080325 11.82239895 -14.06640625 9.14453125 C-12.16091029 7.60755102 -10.24417032 6.09061871 -8.31640625 4.58203125 C-7.77757812 4.14439453 -7.23875 3.70675781 -6.68359375 3.25585938 C-2.72533 0.19061854 -2.72533 0.19061854 0 0 Z"/>
<path transform="translate(508,394)" fill="#151414" d="M0 0 C0.66 0.33 1.32 0.66 2 1 C2.76941094 12.18777192 3.21239148 23.33858262 3.24023438 34.5534668 C3.25020864 36.98843351 3.28151145 39.42264216 3.3125 41.85742188 C3.3190089 43.41405761 3.32426758 44.97069919 3.328125 46.52734375 C3.3404718 47.25114731 3.3528186 47.97495087 3.36553955 48.72068787 C3.35644531 50.73803711 3.35644531 50.73803711 3 54 C0 56 0 56 -3.1875 55.625 C-4.115625 55.41875 -5.04375 55.2125 -6 55 C-6.76309963 44.8954126 -7.32158946 34.80510977 -7.45996094 24.67163086 C-7.4869481 23.16578022 -7.52827114 21.66012676 -7.58300781 20.1550293 C-8.03301919 7.52895702 -8.03301919 7.52895702 -5.40625 3.64111328 C-3.46875 1.97265625 -3.46875 1.97265625 0 0 Z"/>
<path transform="translate(524,367)" fill="#F74C0C" d="M0 0 C4.50366762 1.50122254 6.92051491 4.91060368 9 9 C10.17459437 13.16447096 10.52034366 16.60157641 9 20.6875 C4.32487851 26.09310922 0.23674744 29.65986159 -7 31 C-9.9375 31.125 -9.9375 31.125 -12 31 C-13.32389053 25.4637305 -12.63874608 21.79428537 -10.8125 16.4296875 C-9.87834951 13.7920891 -9.87834951 13.7920891 -9.1875 10.125 C-7.65717411 6.0978266 -5.65277046 5.13078277 -2 3 C-1.34 2.01 -0.68 1.02 0 0 Z"/>
<path transform="translate(513,355)" fill="#101010" d="M0 0 C8.01162791 3.02325581 8.01162791 3.02325581 10 7 C10.5 9.4375 10.5 9.4375 10 12 C6.77476558 16.10484381 3.10583526 18.84243805 -2 20 C-8.76698187 20.6167162 -15.24067161 21.09215438 -21 17 C-21.61875 16.5875 -22.2375 16.175 -22.875 15.75 C-24.79995302 12.75562863 -24.47572423 10.44900067 -24 7 C-21.59272465 3.83615239 -20.02257696 2.29541112 -16.1875 1.1875 C-15.465625 1.125625 -14.74375 1.06375 -14 1 C-13.34 3.64 -12.68 6.28 -12 9 C-6.71800407 10.19988045 -6.71800407 10.19988045 -2 8 C-1.59270772 5.67843403 -1.25561323 3.3431213 -1 1 C-0.67 0.67 -0.34 0.34 0 0 Z"/>
<path transform="translate(506.5625,150.9375)" fill="#050505" d="M0 0 C1.2065625 0.0309375 1.2065625 0.0309375 2.4375 0.0625 C2.58293189 5.83838954 2.72517561 11.61434671 2.86474609 17.39038086 C2.91241999 19.3461304 2.96089328 21.30186066 3.01025391 23.25756836 C3.26764258 33.47694933 3.48783296 43.69514681 3.53125 53.91796875 C3.5377356 54.72816971 3.54422119 55.53837067 3.55090332 56.37312317 C3.55245867 58.26995817 3.50070613 60.16671773 3.4375 62.0625 C2.4375 63.0625 2.4375 63.0625 -0.625 63.125 C-1.594375 63.104375 -2.56375 63.08375 -3.5625 63.0625 C-3.58562737 54.99597826 -3.60341709 46.92947028 -3.61431217 38.86292362 C-3.61954014 35.11766963 -3.62663622 31.37243824 -3.63793945 27.62719727 C-3.64877141 24.01568313 -3.65477749 20.40419079 -3.65737724 16.79266167 C-3.65923094 15.41189671 -3.66285049 14.031133 -3.66823006 12.65037727 C-3.67544447 10.72274048 -3.67590809 8.79508193 -3.67602539 6.86743164 C-3.678246 5.76822891 -3.68046661 4.66902618 -3.68275452 3.53651428 C-3.51802852 0.14758163 -3.40252934 0.08298852 0 0 Z"/>
<path transform="translate(500,342)" fill="#121212" d="M0 0 C0.05422947 1.4370809 0.09289723 2.87475462 0.125 4.3125 C0.14820313 5.11300781 0.17140625 5.91351563 0.1953125 6.73828125 C0 9 0 9 -2 12 C-4.9765625 12.984375 -4.9765625 12.984375 -8.625 13.75 C-10.40777344 14.14445312 -10.40777344 14.14445312 -12.2265625 14.546875 C-20.4662434 15.53631908 -27.31030396 13.11563552 -35 10.4375 C-35.96550781 10.10814453 -36.93101562 9.77878906 -37.92578125 9.43945312 C-40.28629806 8.63313798 -42.64416717 7.81987837 -45 7 C-45 6.34 -45 5.68 -45 5 C-44.18958252 4.92483154 -43.37916504 4.84966309 -42.54418945 4.7722168 C-39.47007022 4.48280815 -36.39684316 4.185435 -33.32397461 3.88305664 C-31.36694186 3.69279287 -29.40906175 3.51130921 -27.45117188 3.33007812 C-19.97326397 2.58799566 -12.86504227 1.43133987 -5.59838867 -0.50073242 C-3 -1 -3 -1 0 0 Z"/>
<path transform="translate(536,382)" fill="#F64F11" d="M0 0 C3.66060821 0.58536753 5.54535164 2.083239 8.25 4.5625 C8.95640625 5.20316406 9.6628125 5.84382813 10.390625 6.50390625 C10.92171875 6.99761719 11.4528125 7.49132812 12 8 C11.49220171 11.75770738 10.99102124 13.63552104 8 16 C4.93725586 17.25854492 4.93725586 17.25854492 1.21484375 18.48046875 C0.22950401 18.80704216 0.22950401 18.80704216 -0.77574158 19.14021301 C-2.1603869 19.59729108 -3.54646138 20.05005952 -4.93383789 20.4987793 C-7.0612912 21.1871089 -9.18418034 21.88823923 -11.30664062 22.59179688 C-21.67236941 26 -21.67236941 26 -24 26 C-24 23.03 -24 20.06 -24 17 C-23.2265625 16.92523438 -22.453125 16.85046875 -21.65625 16.7734375 C-14.47272754 15.86660669 -8.89193901 14.6092666 -4 9 C-2.33164471 6.09459717 -1.07117216 3.17123337 0 0 Z"/>
<path transform="translate(372,473)" fill="#FB4D0E" d="M0 0 C10.07101788 2.64157846 19.46898428 6.8714587 29 11 C29 11.66 29 12.32 29 13 C25.25006521 13.05811773 21.50024648 13.09363593 17.75 13.125 C16.15478516 13.15013672 16.15478516 13.15013672 14.52734375 13.17578125 C12.99013672 13.18544922 12.99013672 13.18544922 11.421875 13.1953125 C10.00793457 13.21102295 10.00793457 13.21102295 8.56542969 13.22705078 C5.8344792 12.98535075 4.28078969 12.50078207 2 11 C-0.67927341 6.98108988 -0.15601248 4.75838077 0 0 Z"/>
<path transform="translate(457,182)" fill="#3E3E3E" d="M0 0 C2 3 2 3 2 6 C7.61 6 13.22 6 19 6 C19 6.99 19 7.98 19 9 C11.08 9.495 11.08 9.495 3 10 C2.67 11.98 2.34 13.96 2 16 C3.98 16 5.96 16 8 16 C8 16.33 8 16.66 8 17 C2.66666667 17 -2.66666667 17 -8 17 C-8 16.67 -8 16.34 -8 16 C-6.02 16 -4.04 16 -2 16 C-2 14.02 -2 12.04 -2 10 C-7.61 9.67 -13.22 9.34 -19 9 C-18.67 8.01 -18.34 7.02 -18 6 C-9.585 5.505 -9.585 5.505 -1 5 C-0.67 3.35 -0.34 1.7 0 0 Z"/>
<path transform="translate(507,151)" fill="#41403F" d="M0 0 C0.66 0 1.32 0 2 0 C2.14543189 5.77588954 2.28767561 11.55184671 2.42724609 17.32788086 C2.47491999 19.2836304 2.52339328 21.23936066 2.57275391 23.19506836 C2.83014258 33.41444933 3.05033296 43.63264681 3.09375 53.85546875 C3.1002356 54.66566971 3.10672119 55.47587067 3.11340332 56.31062317 C3.11495867 58.20745817 3.06320613 60.10421773 3 62 C2.505 62.495 2.505 62.495 2 63 C0.02 63 -1.96 63 -4 63 C-4 42.54 -4 22.08 -4 1 C-3.67 1 -3.34 1 -3 1 C-3 20.8 -3 40.6 -3 61 C-1.68 61 -0.36 61 1 61 C0.67 40.87 0.34 20.74 0 0 Z"/>
<path transform="translate(455,255)" fill="#383838" d="M0 0 C3 0 3 0 5 1 C5 2.98 5 4.96 5 7 C10.61 7.33 16.22 7.66 22 8 C22 8.66 22 9.32 22 10 C18.69005287 11.65497356 15.00877 11.10084335 11.375 11.0625 C10.57320313 11.05798828 9.77140625 11.05347656 8.9453125 11.04882812 C6.96350994 11.03703168 4.98174567 11.01909605 3 11 C3 12.98 3 14.96 3 17 C2.67 17 2.34 17 2 17 C2 15.02 2 13.04 2 11 C0.19402344 11.01740234 0.19402344 11.01740234 -1.6484375 11.03515625 C-3.22395679 11.04453434 -4.79947775 11.05363452 -6.375 11.0625 C-7.56609375 11.07506836 -7.56609375 11.07506836 -8.78125 11.08789062 C-14.7734375 11.11328125 -14.7734375 11.11328125 -17 10 C-17 9.34 -17 8.68 -17 8 C-8.585 7.505 -8.585 7.505 0 7 C0 4.69 0 2.38 0 0 Z"/>
<path transform="translate(499,194)" fill="#363535" d="M0 0 C0.66 0.33 1.32 0.66 2 1 C2.02932572 4.18748029 2.04690739 7.37492528 2.0625 10.5625 C2.07087891 11.45775391 2.07925781 12.35300781 2.08789062 13.27539062 C2.10243735 17.24664556 2.00552724 20.96191922 1.43359375 24.90234375 C0.82824995 27.8068592 0.82824995 27.8068592 1.46459961 29.83349609 C2.13025782 32.52708978 2.12971722 34.98724034 2.1328125 37.76171875 C2.13410156 38.88126953 2.13539063 40.00082031 2.13671875 41.15429688 C2.13285156 42.32025391 2.12898438 43.48621094 2.125 44.6875 C2.12886719 45.83412109 2.13273437 46.98074219 2.13671875 48.16210938 C2.12945021 54.511179 2.03776298 60.72744526 1 67 C0.01 67.495 0.01 67.495 -1 68 C-1 58.76 -1 49.52 -1 40 C-1.33 40 -1.66 40 -2 40 C-2.05392397 37.22890693 -2.09363455 34.45886182 -2.125 31.6875 C-2.14175781 30.90181641 -2.15851563 30.11613281 -2.17578125 29.30664062 C-2.18544922 28.1706543 -2.18544922 28.1706543 -2.1953125 27.01171875 C-2.20578613 26.31522217 -2.21625977 25.61872559 -2.22705078 24.90112305 C-2 23 -2 23 0 20 C0.27478373 17.77514259 0.27478373 17.77514259 0.1953125 15.33203125 C0.18886719 14.43935547 0.18242187 13.54667969 0.17578125 12.62695312 C0.15902344 11.69818359 0.14226562 10.76941406 0.125 9.8125 C0.11146484 8.40194336 0.11146484 8.40194336 0.09765625 6.96289062 C0.07409056 4.64167032 0.04119116 2.32096356 0 0 Z"/>
<path transform="translate(499,264)" fill="#F95A23" d="M0 0 C0.33 0 0.66 0 1 0 C1.02527124 6.24795675 1.04283344 12.49590041 1.05493164 18.74389648 C1.05997298 20.87118014 1.06680591 22.99846031 1.07543945 25.12573242 C1.08751379 28.17627826 1.09323014 31.22677845 1.09765625 34.27734375 C1.10281754 35.23462875 1.10797882 36.19191376 1.11329651 37.1782074 C1.11340981 38.49946373 1.11340981 38.49946373 1.11352539 39.84741211 C1.115746 40.62684677 1.11796661 41.40628143 1.12025452 42.20933533 C1 44 1 44 0 45 C-6.31971004 45.45140786 -11.12417803 44.28504188 -17 42 C-13.25 40.875 -13.25 40.875 -11 42 C-7.7 42.33 -4.4 42.66 -1 43 C-1 30.79 -1 18.58 -1 6 C-2.32 7.32 -3.64 8.64 -5 10 C-5.66 9.67 -6.32 9.34 -7 9 C-5.85793642 7.49712782 -4.71125043 5.99776716 -3.5625 4.5 C-2.92441406 3.6646875 -2.28632813 2.829375 -1.62890625 1.96875 C-1.09136719 1.3190625 -0.55382812 0.669375 0 0 Z"/>
<path transform="translate(511,216)" fill="#090909" d="M0 0 C0.85856655 3.4342662 0.97591583 5.61682513 0 9 C-1.47906892 9.02689216 -2.95827483 9.04634621 -4.4375 9.0625 C-5.67306641 9.07990234 -5.67306641 9.07990234 -6.93359375 9.09765625 C-9 9 -9 9 -10 8 C-10.25 4.5625 -10.25 4.5625 -10 1 C-6.1496895 -1.56687367 -4.41430237 -0.83288724 0 0 Z"/>
<path transform="translate(381,304)" fill="#393737" d="M0 0 C8.67319811 2.64606044 17.4258547 5.9505698 25 11 C18.93350424 10.51928438 14.41574853 9.15614116 9 6.4375 C7.98099609 5.9434668 7.98099609 5.9434668 6.94140625 5.43945312 C5.28921371 4.63662717 3.64384516 3.81978216 2 3 C2.144375 3.99 2.28875 4.98 2.4375 6 C3.38709945 12.68866708 4.27646096 19.22670653 4 26 C3.67 26 3.34 26 3 26 C2.49559207 22.41727273 1.99724229 18.83372823 1.5 15.25 C1.35691406 14.23421875 1.21382813 13.2184375 1.06640625 12.171875 C0.93105469 11.1921875 0.79570312 10.2125 0.65625 9.203125 C0.53056641 8.30239258 0.40488281 7.40166016 0.27539062 6.47363281 C0 4 0 4 0 0 Z"/>
<path transform="translate(413,393)" fill="#333131" d="M0 0 C0.99 0.33 1.98 0.66 3 1 C2.39124245 5.60416626 1.15277044 9.56483324 -0.5625 13.875 C-1.01753906 15.02742188 -1.47257812 16.17984375 -1.94140625 17.3671875 C-2.29074219 18.23601562 -2.64007813 19.10484375 -3 20 C-4.32 19.34 -5.64 18.68 -7 18 C-5.06375702 11.79522136 -2.74390859 5.89174281 0 0 Z"/>
<path transform="translate(504,139)" fill="#3B3939" d="M0 0 C2.00720923 0.28674418 4.0085944 0.61866701 6 1 C6.1953125 7.0546875 6.1953125 7.0546875 6 9 C5.34 9.66 4.68 10.32 4 11 C1.375 10.625 1.375 10.625 -1 10 C-1.02689216 8.52093108 -1.04634621 7.04172517 -1.0625 5.5625 C-1.07410156 4.73878906 -1.08570313 3.91507813 -1.09765625 3.06640625 C-1 1 -1 1 0 0 Z"/>
<path transform="translate(516,303)" fill="#353333" d="M0 0 C0.66 0.33 1.32 0.66 2 1 C1.80535156 1.56203125 1.61070312 2.1240625 1.41015625 2.703125 C0.90604364 5.52615562 1.45454461 7.07636135 2.4375 9.75 C2.953125 11.1525 3.46875 12.555 4 14 C8.29 14.33 12.58 14.66 17 15 C15 17 15 17 12.1796875 17.1953125 C11.08914063 17.17210937 9.99859375 17.14890625 8.875 17.125 C7.77929688 17.10695313 6.68359375 17.08890625 5.5546875 17.0703125 C4.71164062 17.04710937 3.86859375 17.02390625 3 17 C2.34865075 15.43979133 1.70417036 13.87671421 1.0625 12.3125 C0.70285156 11.44238281 0.34320312 10.57226562 -0.02734375 9.67578125 C-0.97038016 7.08148429 -1.70523389 4.74647156 -2 2 C-1.34 1.34 -0.68 0.68 0 0 Z"/>
<path transform="translate(515,318)" fill="#2F2E2E" d="M0 0 C0.66 0.33 1.32 0.66 2 1 C1.34 4.63 0.68 8.26 0 12 C-0.99 12.33 -1.98 12.66 -3 13 C-3.08086147 11.20906809 -3.13912702 9.41710372 -3.1875 7.625 C-3.22230469 6.62726563 -3.25710938 5.62953125 -3.29296875 4.6015625 C-3.14794922 3.31378906 -3.14794922 3.31378906 -3 2 C-2.01 1.34 -1.02 0.68 0 0 Z"/>
<path transform="translate(472,299)" fill="#302F2F" d="M0 0 C1.0828125 1.11375 1.0828125 1.11375 2.1875 2.25 C5.06785932 5.06635134 7.52584261 6.45636773 11.1328125 8.10546875 C13 9 13 9 16 11 C10.68230088 11.5034508 8.38049537 10.28613997 4.25 7 C0.98602455 4.03873023 0.98602455 4.03873023 -3 3 C-3.99 3 -4.98 3 -6 3 C-3.375 0 -3.375 0 0 0 Z"/>
<path transform="translate(374,482)" fill="#F36231" d="M0 0 C0.82113281 0.32613281 1.64226562 0.65226562 2.48828125 0.98828125 C6.46025236 2.13259773 10.09725607 2.25912639 14.1875 2.1875 C15.25387695 2.1865332 15.25387695 2.1865332 16.34179688 2.18554688 C19.48569308 2.15892875 21.99809388 2.00063537 25 1 C25.66 1.33 26.32 1.66 27 2 C27 2.66 27 3.32 27 4 C23.25006521 4.05811773 19.50024648 4.09363593 15.75 4.125 C14.15478516 4.15013672 14.15478516 4.15013672 12.52734375 4.17578125 C10.99013672 4.18544922 10.99013672 4.18544922 9.421875 4.1953125 C8.00793457 4.21102295 8.00793457 4.21102295 6.56542969 4.22705078 C3.90048059 3.99119213 2.28136908 3.35661659 0 2 C0 1.34 0 0.68 0 0 Z"/>
<path transform="translate(504,215)" fill="#3A3737" d="M0 0 C3.625 0.375 3.625 0.375 7 1 C7.91892116 4.67568464 7.95904856 6.16380575 7 10 C4.03 10 1.06 10 -2 10 C-2 9.67 -2 9.34 -2 9 C1.465 8.505 1.465 8.505 5 8 C5 6.35 5 4.7 5 3 C2.69 2.67 0.38 2.34 -2 2 C-1.34 1.34 -0.68 0.68 0 0 Z"/>
<path transform="translate(413,393)" fill="#252524" d="M0 0 C0.99 0.33 1.98 0.66 3 1 C2.49287967 4.71888239 1.88391785 7.73454239 0 11 C-0.66 11 -1.32 11 -2 11 C-1.85892253 9.54119891 -1.71197585 8.08296449 -1.5625 6.625 C-1.48128906 5.81289063 -1.40007812 5.00078125 -1.31640625 4.1640625 C-1 2 -1 2 0 0 Z"/>
<path transform="translate(512,269)" fill="#DF6036" d="M0 0 C10 4 10 4 20 8 C16.96851375 9.32959923 15.83940824 8.94172225 12.65234375 7.78515625 C11.40884055 7.22233531 10.17063256 6.64769375 8.9375 6.0625 C4.18284746 3.74428817 4.18284746 3.74428817 -1 3 C-0.67 2.01 -0.34 1.02 0 0 Z"/>
<path transform="translate(513,376)" fill="#F05C29" d="M0 0 C0.17700355 4.60209225 0.10814567 6.78370866 -2 11 C-2 8.03 -2 5.06 -2 2 C-5.96 2 -9.92 2 -14 2 C-14 1.67 -14 1.34 -14 1 C-12.22932584 0.83165067 -10.45845388 0.66538091 -8.6875 0.5 C-7.70136719 0.4071875 -6.71523438 0.314375 -5.69921875 0.21875 C-3 0 -3 0 0 0 Z"/>
<path transform="translate(505,141)" fill="#000000" d="M0 0 C0.99 0 1.98 0 3 0 C3 2.31 3 4.62 3 7 C1.68 7 0.36 7 -1 7 C-1.04254356 5.00045254 -1.04080783 2.99958364 -1 1 C-0.67 0.67 -0.34 0.34 0 0 Z"/>
<path transform="translate(513,355)" fill="#444241" d="M0 0 C3.4375 1.3125 3.4375 1.3125 7 3 C7.33 3.99 7.66 4.98 8 6 C5.0280615 4.87548273 2.66559313 3.77706209 0 2 C0 3.98 0 5.96 0 8 C-0.33 8 -0.66 8 -1 8 C-1.04241723 5.66705225 -1.04092937 3.33297433 -1 1 C-0.67 0.67 -0.34 0.34 0 0 Z"/>
<path transform="translate(385,366)" fill="#EB5926" d="M0 0 C0.99 0 1.98 0 3 0 C3 1.65 3 3.3 3 5 C0.69 5.33 -1.62 5.66 -4 6 C-2.1875 3 -2.1875 3 0 0 Z"/>
<path transform="translate(500,342)" fill="#403D3D" d="M0 0 C0.05399736 1.45792884 0.09279177 2.91642712 0.125 4.375 C0.14820313 5.18710937 0.17140625 5.99921875 0.1953125 6.8359375 C0 9 0 9 -2 11 C-2 7.7 -2 4.4 -2 1 C-3.65 1 -5.3 1 -7 1 C-3.375 -1.125 -3.375 -1.125 0 0 Z"/>
<path transform="translate(409,256)" fill="#EB5F30" d="M0 0 C0.99 0.33 1.98 0.66 3 1 C3.6875 3.0625 3.6875 3.0625 4 5 C2.68 4.34 1.36 3.68 0 3 C-0.66 4.32 -1.32 5.64 -2 7 C-2 3.89448334 -1.4606285 2.64738916 0 0 Z M-4 7 C-3.67 7.99 -3.34 8.98 -3 10 C-3.66 10 -4.32 10 -5 10 C-4.67 9.01 -4.34 8.02 -4 7 Z"/>
<path transform="translate(512,307)" fill="#3E3D3C" d="M0 0 C2.5654594 2.5654594 2.54046087 4.47686668 3 8 C2.01 8.33 1.02 8.66 0 9 C0 6.03 0 3.06 0 0 Z"/>
<path transform="translate(422,340)" fill="#323131" d="M0 0 C0.99 0.33 1.98 0.66 3 1 C-0.465 3.97 -0.465 3.97 -4 7 C-3.04065919 3.16263678 -2.76390737 2.40339772 0 0 Z"/>
<path transform="translate(526,296)" fill="#383737" d="M0 0 C1.875 0.25 1.875 0.25 4 1 C5.25 3.0625 5.25 3.0625 6 5 C5.01 4.67 4.02 4.34 3 4 C3 3.34 3 2.68 3 2 C1.35 2.33 -0.3 2.66 -2 3 C-1.34 2.01 -0.68 1.02 0 0 Z"/>
<path transform="translate(497,401)" fill="#3D3B3B" d="M0 0 C0.66 0 1.32 0 2 0 C2 2.97 2 5.94 2 9 C-0.29013653 5.5647952 -0.17842973 4.014669 0 0 Z"/>
</svg>