<?xml version="1.0" encoding="UTF-8"?>
<svg version="1.1" xmlns="http://www.w3.org/2000/svg" width="1051" height="1025">
<path d="M0 0 C1.22072582 -0.00320648 2.44145164 -0.00641296 3.69916916 -0.0097166 C7.05774291 -0.01654002 10.41609218 -0.01454476 13.77465291 -0.00866088 C17.43995935 -0.00446195 21.10524619 -0.01190863 24.77054775 -0.01781338 C31.18484896 -0.02654996 37.59911824 -0.02789657 44.01342392 -0.02431011 C53.55222229 -0.01899079 63.09098989 -0.0251108 72.62978492 -0.03339304 C90.66001251 -0.04861826 108.69022603 -0.05033959 126.7204587 -0.04787002 C140.64682478 -0.04603587 154.57318627 -0.04779952 168.49955177 -0.05209446 C170.50183732 -0.05269687 172.50412287 -0.05329807 174.50640842 -0.05389806 C177.52384815 -0.05480534 180.54128788 -0.05571401 183.55872762 -0.05663041 C211.60738926 -0.0650579 239.65604918 -0.0693971 267.70471191 -0.06522369 C268.76169413 -0.06506732 269.81867634 -0.06491094 270.90768832 -0.06474983 C276.26462333 -0.06394407 281.62155834 -0.0630983 286.97849335 -0.06223653 C288.5742849 -0.06197989 288.5742849 -0.06197989 290.20231467 -0.06171808 C292.35369982 -0.06137142 294.50508497 -0.06102289 296.65647013 -0.06067249 C330.12443937 -0.0553165 363.59238227 -0.06324307 397.0603466 -0.08170605 C434.68241045 -0.10243649 472.30445798 -0.1131467 509.92652786 -0.10913056 C513.94056439 -0.10873523 517.95460093 -0.10837368 521.96863747 -0.10803318 C523.45111661 -0.10789708 523.45111661 -0.10789708 524.96354483 -0.10775824 C539.86349602 -0.10659374 554.76343069 -0.11322934 569.66337776 -0.1238451 C586.61641024 -0.13591147 603.5694064 -0.13743957 620.52243944 -0.12505493 C630.00091527 -0.11843997 639.47930421 -0.12002584 648.95777305 -0.13364345 C655.30089256 -0.14191833 661.64394732 -0.13915114 667.98706162 -0.12766818 C671.59335799 -0.12144168 675.19948544 -0.11973249 678.80577172 -0.13153151 C698.68072446 -0.19215055 717.58986897 0.85969828 736.76054192 6.44197559 C737.81048332 6.74313282 738.86042473 7.04429005 739.94218254 7.35457325 C749.43024888 10.17233792 758.29589783 13.83055733 767.13554192 18.25447559 C767.85677238 18.60767872 768.57800285 18.96088184 769.32108879 19.32478809 C779.64322966 24.40814534 789.01132311 30.25701976 798.13554192 37.25447559 C799.00823723 37.90287403 799.88093254 38.55127247 800.78007317 39.21931934 C815.91763061 50.96197143 829.51901871 65.3172883 840.13554192 81.25447559 C840.53386223 81.8511504 840.93218254 82.4478252 841.34257317 83.06258106 C855.33868109 104.41366711 864.55237521 128.19975885 869.13554192 153.25447559 C869.30450906 154.09365658 869.47347621 154.93283756 869.64756358 155.79744828 C871.79029842 168.10069904 871.42431813 180.51306339 871.40487975 192.96036175 C871.40158719 196.48865728 871.40991704 200.0169297 871.4166981 203.54521763 C871.42696678 209.71907426 871.42984736 215.89289955 871.42778587 222.06676388 C871.42472768 231.24824357 871.43307803 240.42968875 871.44353512 249.61116171 C871.46285126 266.96751297 871.46850248 284.32385239 871.46964924 301.68021314 C871.47056936 315.08881053 871.47469142 328.4974033 871.48105049 341.90599918 C871.48284567 345.76979895 871.4846253 349.63359872 871.48640025 353.4973985 C871.48684234 354.45803951 871.48728444 355.41868052 871.48773993 356.40843187 C871.5000443 383.42110739 871.50794148 410.43378132 871.50705338 437.44645977 C871.50702222 438.46438674 871.50699106 439.48231372 871.50695896 440.53108696 C871.50679275 445.68999984 871.50659467 450.84891272 871.50638954 456.0078256 C871.50632971 457.54460532 871.50632971 457.54460532 871.50626866 459.1124311 C871.50618779 461.18426019 871.50610419 463.25608927 871.50601788 465.32791836 C871.50479294 497.5472706 871.51979676 529.76658072 871.54716301 561.98592091 C871.57791998 598.21194 871.59509329 634.43793142 871.59323657 670.66396439 C871.59308731 674.53090771 871.59298989 678.39785103 871.59292793 682.26479435 C871.59289297 683.69292609 871.59289297 683.69292609 871.5928573 685.14990897 C871.59279589 700.43645124 871.60553895 715.72295678 871.62279246 731.00948814 C871.63979081 746.38865951 871.64169003 761.76777745 871.62857382 777.14695303 C871.6212123 786.26913099 871.62475834 795.39114609 871.6444585 804.51330661 C871.65653361 810.62403167 871.65378466 816.73463985 871.6395175 822.84535973 C871.63181729 826.3156846 871.63001727 829.78569639 871.64643221 833.25599812 C871.73304806 856.02728004 869.47477859 877.62361473 862.13554192 899.25447559 C861.52645988 901.13006153 861.52645988 901.13006153 860.90507317 903.04353809 C854.91222941 920.6969113 845.73019756 937.66942616 834.13554192 952.25447559 C833.32085442 953.28959278 832.50616692 954.32470997 831.66679192 955.39119434 C800.66232009 993.81802062 756.20878246 1019.68007859 706.78990609 1025.03973671 C701.83056782 1025.44094871 696.87023428 1025.39528498 691.89749622 1025.38869667 C690.68373801 1025.3910489 689.46997979 1025.39340113 688.21944103 1025.39582464 C684.85713261 1025.40132578 681.49487657 1025.40238899 678.13256733 1025.40154723 C674.47178177 1025.40171741 670.81100463 1025.4076311 667.15022331 1025.41278809 C659.89228316 1025.42209661 652.6343491 1025.42603319 645.37640371 1025.42830706 C636.68110988 1025.43127375 627.98582411 1025.43997396 619.29053451 1025.44872134 C598.27317066 1025.46954904 577.25580543 1025.48003341 556.23843367 1025.48885095 C546.29041799 1025.49306037 536.34240292 1025.498282 526.39438775 1025.50353548 C492.3243524 1025.52142537 458.25431688 1025.53641971 424.18427753 1025.54385567 C422.04597078 1025.54433042 419.90766402 1025.54480631 417.76935727 1025.54528333 C416.17878392 1025.54563789 416.17878392 1025.54563789 414.55607778 1025.54599962 C409.18388418 1025.54720079 403.81169059 1025.54841625 398.43949699 1025.54964161 C396.84031997 1025.55000183 396.84031997 1025.55000183 395.20883634 1025.55036934 C360.66092467 1025.55825815 326.11304738 1025.58168153 291.56515072 1025.61419755 C255.01818645 1025.6485321 218.47124229 1025.66821021 181.92426163 1025.67149991 C177.90839039 1025.67191743 173.89251917 1025.67239699 169.87664795 1025.67292309 C168.88786571 1025.67304628 167.89908347 1025.67316947 166.88033813 1025.6732964 C150.99935547 1025.67562402 135.11841287 1025.69125961 119.23744445 1025.71176493 C103.25835581 1025.73206877 87.27931505 1025.73747875 71.30021589 1025.7279943 C61.82035521 1025.72279688 52.34065449 1025.72857318 42.86081699 1025.75052897 C36.51149881 1025.76411627 30.16228976 1025.76289074 23.8129703 1025.75012701 C20.20628241 1025.74328258 16.59989849 1025.74237796 12.99323874 1025.7596871 C-10.08610352 1025.8635282 -31.93758217 1023.6941486 -53.86445808 1016.25447559 C-55.11484871 1015.84842091 -56.36523933 1015.44236622 -57.65352058 1015.02400684 C-75.34981542 1009.01659235 -92.18545007 999.78107477 -106.86445808 988.25447559 C-107.72941902 987.60994434 -108.59437996 986.96541309 -109.48555183 986.30135059 C-148.87505985 955.84492735 -172.04416244 911.40808906 -179.4323134 862.74885987 C-180.08712696 857.45394291 -180.14217991 852.22556459 -180.12172699 846.89626217 C-180.12523306 845.71810995 -180.12873914 844.53995773 -180.13235146 843.32610393 C-180.1400033 840.08227885 -180.13883883 836.83860136 -180.13379592 833.59477585 C-180.13050692 830.05551815 -180.13883031 826.51628361 -180.14561427 822.9770335 C-180.1558886 816.78240905 -180.15876254 810.58781584 -180.15670204 804.39318371 C-180.15364532 795.1808601 -180.16199095 785.96857092 -180.17245129 776.75625401 C-180.19177281 759.34197505 -180.19741885 741.92770788 -180.19856541 724.51341946 C-180.19948535 711.06045318 -180.20360648 697.6074915 -180.20996666 684.15452671 C-180.21176183 680.27865279 -180.21354145 676.40277887 -180.21531641 672.52690494 C-180.21575851 671.5632751 -180.21620061 670.59964525 -180.2166561 669.6068145 C-180.22896142 642.50804603 -180.23685756 615.40927916 -180.23596954 588.31050777 C-180.23592281 586.77858188 -180.23592281 586.77858188 -180.23587513 585.21570799 C-180.23570892 580.03972323 -180.23551084 574.86373846 -180.23530571 569.68775369 C-180.23526582 568.65983446 -180.23522593 567.63191523 -180.23518483 566.57284693 C-180.23510396 564.49414306 -180.23502036 562.4154392 -180.23493405 560.33673533 C-180.23370909 528.01014377 -180.24871277 495.6835942 -180.27607918 463.35701466 C-180.3068328 427.01455003 -180.32400965 390.672113 -180.32215273 354.32963455 C-180.32200348 350.45061708 -180.32190606 346.5715996 -180.3218441 342.69258213 C-180.32182079 341.73751408 -180.32179748 340.78244603 -180.32177347 339.79843653 C-180.32171204 324.46050104 -180.33445803 309.12260215 -180.35170863 293.78467753 C-180.36870284 278.35499213 -180.37060942 262.92535999 -180.35748999 247.49567039 C-180.35012568 238.34218252 -180.35368295 229.18885691 -180.37337467 220.0353864 C-180.38544253 213.90503192 -180.3827087 207.774794 -180.36843367 201.64444471 C-180.36072746 198.16207087 -180.35895141 194.68000919 -180.37534837 191.19765832 C-180.53781464 148.30063204 -169.36519448 107.56731833 -142.86445808 73.25447559 C-142.21734871 72.38435841 -141.57023933 71.51424122 -140.90352058 70.61775684 C-129.16853064 55.47358998 -114.80147852 41.87088765 -98.86445808 31.25447559 C-98.26778328 30.85615528 -97.67110847 30.45783497 -97.05635262 30.04744434 C-68.45526837 11.29880266 -34.31666829 -0.13618876 0 0 Z " fill="#001E36" transform="translate(179.86445808410645,-0.25447559356689453)"/>
<path d="M0 0 C2.99045106 -0.00870527 5.98083904 -0.02255624 8.97126389 -0.03768539 C29.82816062 -0.13445565 50.3904499 -0.2143105 71.01792526 3.30371475 C72.55646164 3.56563362 72.55646164 3.56563362 74.12607956 3.83284378 C105.64895823 9.31211842 135.55396323 21.4099495 160.01792526 42.30371475 C160.82616745 42.97789444 161.63440964 43.65207413 162.46714401 44.3466835 C189.07014218 67.2745422 205.16390296 101.75495596 208.81284714 136.41992569 C211.9762979 180.90406906 205.37291532 224.89097842 175.70396042 259.8520546 C148.01806667 291.69133161 110.17691197 308.6677091 68.70542526 314.36621475 C66.86041428 314.61999893 66.86041428 314.61999893 64.97813034 314.87891006 C61.3265488 315.36947392 57.67321541 315.84166387 54.01792526 316.30371475 C53.06015182 316.42665909 52.10237839 316.54960342 51.11558151 316.67627335 C37.85263777 318.30492778 24.61176797 318.48170845 11.26792526 318.49121475 C10.45447647 318.4923024 9.64102768 318.49339005 8.80292892 318.49451065 C6.40055103 318.49414667 3.99839018 318.4847872 1.59605026 318.4716835 C0.57306587 318.4698632 0.57306587 318.4698632 -0.47058487 318.46800613 C-9.31665537 318.38933037 -18.15150472 317.79580324 -26.98207474 317.30371475 C-26.97930936 318.04308682 -26.97654398 318.7824589 -26.9736948 319.54423618 C-26.90749027 337.52082824 -26.85782114 355.49739602 -26.82663822 373.4740839 C-26.81115823 382.16742005 -26.79004715 390.86067491 -26.75575638 399.55395889 C-26.72588859 407.12954104 -26.70650797 414.70506433 -26.69980925 422.28070372 C-26.69589252 426.29331381 -26.68666436 430.30575549 -26.66488457 434.31831169 C-26.64456069 438.09313197 -26.63823255 441.86771405 -26.64275169 445.64258385 C-26.64192464 447.02974872 -26.63593445 448.41692135 -26.62445831 449.804039 C-26.60958024 451.69468586 -26.61489775 453.58545981 -26.62131119 455.47615433 C-26.61854581 456.53529447 -26.61578043 457.5944346 -26.61293125 458.6856699 C-26.98207474 461.30371475 -26.98207474 461.30371475 -28.27495575 463.14370728 C-31.27683546 465.18351993 -34.82956248 464.72736378 -38.33729935 464.70776749 C-39.18962646 464.71463074 -40.04195358 464.72149399 -40.9201088 464.72856522 C-43.74171412 464.74688856 -46.56276634 464.7429878 -49.38441849 464.7373085 C-51.34353187 464.74186776 -53.30264365 464.74717257 -55.26175308 464.7531929 C-59.37000903 464.76213497 -63.4780707 464.75968855 -67.58632278 464.74975967 C-72.85368804 464.73827064 -78.12038287 464.75847497 -83.38766003 464.78767681 C-87.43427167 464.80601471 -91.48072197 464.80575113 -95.52736473 464.80003929 C-97.46945575 464.79988577 -99.41155749 464.80595546 -101.35360909 464.81833076 C-104.06865345 464.83319292 -106.78245052 464.82259911 -109.4974556 464.80542374 C-110.30122635 464.81509171 -111.1049971 464.82475967 -111.93312454 464.83472061 C-115.22196279 464.79110882 -117.46210883 464.6706476 -120.18839222 462.7467466 C-122.60262889 459.45850745 -122.53536467 456.63962076 -122.48264599 452.71399975 C-122.48816016 451.94207313 -122.49367432 451.17014652 -122.49935558 450.37482819 C-122.51301588 447.77267314 -122.498019 445.1714626 -122.48328018 442.56932449 C-122.48717071 440.69122189 -122.49280915 438.81312223 -122.50005108 436.93502957 C-122.51485926 431.76203864 -122.50459273 426.58935044 -122.49031436 421.41636908 C-122.47923894 415.84235395 -122.49113575 410.26838249 -122.5001564 404.69437027 C-122.51411404 393.77039398 -122.5065142 382.84653301 -122.49148082 371.92256217 C-122.47465142 359.2114763 -122.47782707 346.50041941 -122.4815749 333.78932584 C-122.48763591 310.43062876 -122.47183314 287.07200338 -122.44638727 263.71332586 C-122.42326867 242.37795762 -122.41788473 221.04265715 -122.42811966 199.70727921 C-122.43072156 194.24377285 -122.43330653 188.7802665 -122.43571758 183.31676006 C-122.43601503 182.64419106 -122.43631248 181.97162206 -122.43661894 181.27867218 C-122.444229 163.4635434 -122.43776697 145.6484203 -122.42702156 127.8332935 C-122.42549566 125.28066417 -122.42397531 122.72803484 -122.42246056 120.1754055 C-122.42170274 118.91933742 -122.42094493 117.66326933 -122.42016415 116.36913858 C-122.41541344 107.50035014 -122.4172783 98.63157698 -122.42152596 89.76278877 C-122.42644291 78.96146744 -122.42051164 68.16021631 -122.40063166 57.35891109 C-122.39073225 51.84367716 -122.38568301 46.32855034 -122.39352417 40.81331062 C-122.40054675 35.77082904 -122.39385713 30.7285642 -122.37592054 25.68611134 C-122.37185372 23.85577654 -122.37291295 22.0254222 -122.37943941 20.19509452 C-122.38751712 17.71899534 -122.37736694 15.24363948 -122.36239147 12.76758862 C-122.37249795 11.6861595 -122.37249795 11.6861595 -122.3828086 10.58288333 C-122.34871282 7.69463941 -122.3072153 5.76505242 -120.61537033 3.36451584 C-118.21027611 1.80244308 -116.25389277 1.86089073 -113.40028763 1.77954483 C-112.2324826 1.7397551 -111.06467758 1.69996536 -109.86148453 1.65896988 C-107.92764153 1.61653656 -107.92764153 1.61653656 -105.95473099 1.573246 C-104.57420414 1.53344419 -103.19370604 1.49263465 -101.81323624 1.45090103 C-98.02168861 1.34128251 -94.2299152 1.25264057 -90.43770218 1.16958618 C-88.04296737 1.1161789 -85.64839299 1.05798303 -83.25380325 0.99844742 C-55.50654858 0.31581215 -27.755011 0.06550815 0 0 Z " fill="#30A7FE" transform="translate(357.9820747375488,260.69628524780273)"/>
<path d="M0 0 C0.84191895 0.23686523 1.68383789 0.47373047 2.55126953 0.71777344 C15.97645947 4.71468921 15.97645947 4.71468921 19.5 10 C19.7041565 12.5206094 19.79372878 14.9316752 19.79052734 17.453125 C19.79724457 18.20952271 19.80396179 18.96592041 19.81088257 19.74523926 C19.82988921 22.24689286 19.83378776 24.74827868 19.8359375 27.25 C19.84236246 28.98730582 19.84909059 30.72461054 19.85610962 32.46191406 C19.86808824 36.10354116 19.87178973 39.74507334 19.87060547 43.38671875 C19.87040199 48.05780627 19.89773116 52.72828734 19.93214989 57.39923096 C19.95436101 60.98684498 19.95844484 64.57431156 19.95738602 68.1619873 C19.95974968 69.88442073 19.96861608 71.60685775 19.98405075 73.32922363 C20.0035991 75.7355431 19.99791832 78.14053517 19.98583984 80.546875 C19.99707886 81.26073364 20.00831787 81.97459229 20.01989746 82.71008301 C19.97882204 85.92254587 19.91054703 87.57012254 17.6456604 89.94165039 C14.66808072 91.4103452 12.7979795 91.40061346 9.5 91 C7.08279005 90.01898029 4.86624531 89.00535803 2.5625 87.8125 C-4.94848815 84.11875545 -12.49118437 81.43431797 -20.5 79 C-21.36238281 78.72542969 -22.22476563 78.45085937 -23.11328125 78.16796875 C-29.41417862 76.28875374 -35.85744367 75.08958777 -42.3125 73.875 C-43.20138916 73.70411865 -44.09027832 73.5332373 -45.00610352 73.35717773 C-65.73755437 69.59617061 -97.74299261 65.43119915 -116.72265625 76.95703125 C-120.20791724 79.52073237 -122.21797799 81.90465191 -123.5 86 C-124.4570399 92.3940166 -124.53328261 98.22034931 -121.125 103.875 C-113.72488615 113.27931135 -102.08165944 118.04379174 -91.5 123 C-90.79311035 123.3314502 -90.0862207 123.66290039 -89.35791016 124.00439453 C-80.7412054 128.00857039 -72.02549389 131.6136539 -63.125 134.9375 C-25.44724396 149.08775131 12.68417338 167.84477591 30.703125 205.74609375 C33.59749579 212.24338452 35.09682388 219.04753977 36.5 226 C36.6743457 226.78133301 36.84869141 227.56266602 37.02832031 228.36767578 C39.74698546 243.53985362 38.10507925 260.36677764 33.5 275 C33.28037598 275.69802734 33.06075195 276.39605469 32.83447266 277.11523438 C25.52416588 299.56868901 10.70463842 319.51365266 -9.5 332 C-10.96566406 332.94939453 -10.96566406 332.94939453 -12.4609375 333.91796875 C-29.33406626 344.27831028 -49.06519539 350.00244142 -68.5 353.125 C-69.50289062 353.29386719 -70.50578125 353.46273438 -71.5390625 353.63671875 C-83.70157077 355.63237579 -95.69495076 356.23717218 -108 356.25 C-109.14501984 356.25200912 -109.14501984 356.25200912 -110.31317139 356.25405884 C-124.85643344 356.2485691 -139.10569243 355.14117821 -153.5 353 C-154.33144531 352.8772168 -155.16289063 352.75443359 -156.01953125 352.62792969 C-160.87851766 351.88683218 -165.6863046 350.99360847 -170.5 350 C-171.18674805 349.85981445 -171.87349609 349.71962891 -172.58105469 349.57519531 C-207.06394284 342.41299984 -207.06394284 342.41299984 -216.09440613 333.41053772 C-218.05317338 330.0513296 -217.91144335 326.93745486 -217.87231445 323.15795898 C-217.87596512 322.37215454 -217.87961578 321.5863501 -217.88337708 320.7767334 C-217.89147385 318.18296606 -217.87788118 315.58982511 -217.86328125 312.99609375 C-217.86276259 311.19295756 -217.86328052 309.38982081 -217.86479187 307.58668518 C-217.86470219 303.80973864 -217.85428024 300.03300574 -217.83618164 296.25610352 C-217.81347836 291.41144835 -217.81295375 286.56710489 -217.81969929 281.72241116 C-217.82303811 278.00011925 -217.81641108 274.2778986 -217.80657005 270.55562019 C-217.80271749 268.76901688 -217.80157007 266.98240564 -217.8031559 265.19579887 C-217.80352614 262.7012606 -217.79091874 260.20712444 -217.7746582 257.71264648 C-217.77713562 256.97230667 -217.77961304 256.23196686 -217.78216553 255.4691925 C-217.74353941 251.76245775 -217.61218561 250.16827842 -215.5 247 C-211.08346149 247.58612006 -207.74105623 249.38280721 -203.9375 251.5625 C-166.27487161 272.19539544 -115.4390077 282.8108299 -73.4609375 271.15625 C-66.73734934 268.85555317 -62.96155176 265.14532154 -59.375 259.10546875 C-57.31885207 254.15786279 -57.5112074 248.46419572 -59.4921875 243.52734375 C-65.09014448 234.30810952 -75.08020996 229.32654026 -84.5625 224.875 C-85.52422119 224.41762451 -86.48594238 223.96024902 -87.47680664 223.48901367 C-97.02040137 219.04865844 -106.80448999 215.26710659 -116.61529541 211.46951294 C-126.21071673 207.75134483 -135.64029555 203.97978304 -144.67041016 199.00537109 C-146.75139728 197.86185562 -148.84999957 196.75420146 -150.94921875 195.64453125 C-179.72947572 180.25247256 -203.50002317 159.3405713 -213.27734375 127.234375 C-213.68912371 125.82414431 -214.09717548 124.41281483 -214.5 123 C-214.76941406 122.05640625 -215.03882813 121.1128125 -215.31640625 120.140625 C-220.04495077 99.37470921 -215.7895951 77.19204569 -207.5 58 C-207.04753906 56.94039063 -206.59507812 55.88078125 -206.12890625 54.7890625 C-193.91594421 28.42567136 -168.69807708 9.94014491 -141.96655273 0.0859375 C-98.18860705 -15.05208408 -44.10117422 -12.42087549 0 0 Z " fill="#30A7FE" transform="translate(831.5,378)"/>
<path d="M0 0 C77.65506329 0 77.65506329 0 92.9375 5.875 C93.64076416 6.13619629 94.34402832 6.39739258 95.06860352 6.66650391 C113.07413775 13.48367011 126.59596227 24.37863056 135 42 C141.9449878 61.91176262 143.09646998 85.18173483 134.6875 104.875 C126.4201147 121.48358654 113.01497749 133.13955687 95.70703125 139.8125 C90.61711121 141.44299072 85.48625213 142.84893027 80.3125 144.1875 C79.35746582 144.43781982 78.40243164 144.68813965 77.41845703 144.94604492 C61.47408252 148.87434982 45.71773516 149.30136318 29.37451172 149.20581055 C26.08162892 149.18725561 22.78902401 149.18530357 19.49609375 149.18554688 C17.39583089 149.18064079 15.29556993 149.17481649 13.1953125 149.16796875 C12.21418488 149.16685593 11.23305725 149.1657431 10.22219849 149.16459656 C9.31629974 149.15821671 8.410401 149.15183685 7.47705078 149.14526367 C6.68227325 149.14145187 5.88749573 149.13764008 5.06863403 149.13371277 C3 149 3 149 0 148 C0 99.16 0 50.32 0 0 Z " fill="#001E36" transform="translate(332,347)"/>
</svg>
