<?xml version="1.0" encoding="UTF-8"?>
<svg version="1.1" xmlns="http://www.w3.org/2000/svg" width="320" height="320">
<path d="M0 0 C5.07333347 0.56605545 9.20449858 2.28515567 13.73828125 4.5078125 C14.48355576 4.86518494 15.22883026 5.22255737 15.99668884 5.59075928 C17.60132808 6.36086357 19.20439632 7.13424826 20.80603027 7.9105835 C25.08290428 9.98278342 29.37199845 12.02940456 33.66015625 14.078125 C34.5306662 14.49468353 35.40117615 14.91124207 36.29806519 15.34042358 C44.56846495 19.28996929 52.89727335 23.10335719 61.25 26.875 C62.59809247 27.48463569 63.94615586 28.09433569 65.29418945 28.70410156 C67.26714495 29.59636222 69.24015811 30.48849341 71.21342468 31.38006592 C78.15478317 34.51790953 85.08009998 37.69015305 92 40.875 C93.10504883 41.38144043 94.21009766 41.88788086 95.34863281 42.40966797 C96.34733398 42.87002441 97.34603516 43.33038086 98.375 43.8046875 C99.68597656 44.40772705 99.68597656 44.40772705 101.0234375 45.02294922 C103 46 103 46 104 47 C104.12564723 50.09014992 104.17608683 53.14794997 104.16967773 56.23901367 C104.16797545 57.21738032 104.16627317 58.19574697 104.16451931 59.2037611 C104.06396695 72.2210005 103.14693447 85.19131927 102.28515625 98.17578125 C102.10688827 100.92522484 101.93062967 103.67479644 101.7542572 106.42436218 C101.38652015 112.14023595 101.01360923 117.85575162 100.63696289 123.57104492 C100.15514855 130.88252869 99.68190344 138.19454112 99.21134281 145.50675678 C98.80337396 151.84563118 98.39176682 158.18426856 97.97944713 164.52286124 C97.84842108 166.53901251 97.71783804 168.55519214 97.58729744 170.57137489 C97.34305178 174.33199376 97.09593646 178.09241266 96.84790039 181.8527832 C96.77668976 182.95470505 96.70547913 184.05662689 96.6321106 185.19194031 C96.23556836 191.15178904 95.70872998 197.06894978 95 203 C94.34 203 93.68 203 93 203 C92.80664062 202.36191406 92.61328125 201.72382813 92.4140625 201.06640625 C92.15367187 200.24011719 91.89328125 199.41382813 91.625 198.5625 C91.36976563 197.73878906 91.11453125 196.91507813 90.8515625 196.06640625 C90.19117773 193.82201984 90.19117773 193.82201984 88 193 C87.16293358 191.40810527 86.40471726 189.77436607 85.6875 188.125 C83.50522097 183.14992341 81.23837531 178.22462218 78.91796875 173.3125 C78 171 78 171 78 168 C77.34 167.67 76.68 167.34 76 167 C75.10337477 165.04869061 74.28028677 163.06317431 73.5 161.0625 C71.85256123 156.64089187 71.85256123 156.64089187 69 153 C68.30577053 151.43728103 67.66610213 149.84990925 67.0625 148.25 C65.59000187 144.36308185 63.86029553 140.71603151 62 137 C60.46300231 133.57141312 58.99309415 130.11360478 57.51757812 126.65820312 C56.18727157 123.57734066 54.86680079 120.80020118 53 118 C53 116.68 53 115.36 53 114 C52.34 114 51.68 114 51 114 C50.8040625 113.47535156 50.608125 112.95070313 50.40625 112.41015625 C47.8656826 105.82877259 44.91895238 99.48682881 41.81835938 93.15454102 C40.21006997 89.81672074 38.82189555 86.63363426 37.8828125 83.04296875 C37.59148437 82.03878906 37.30015625 81.03460938 37 80 C36.01 79.505 36.01 79.505 35 79 C34.10546875 77.06640625 34.10546875 77.06640625 33.1875 74.5625 C31.41128283 69.89741642 29.29938837 65.5316836 26.953125 61.12890625 C26 59 26 59 26 56 C25.34 55.67 24.68 55.34 24 55 C22.69594032 52.30794117 21.48462794 49.62403558 20.3125 46.875 C19.58971272 45.21303189 18.86573738 43.55157999 18.140625 41.890625 C17.77904297 41.05982422 17.41746094 40.22902344 17.04492188 39.37304688 C15.60271964 36.09776516 14.08841531 32.8622222 12.5625 29.625 C9.68834565 23.49746261 6.85883542 17.35096354 4.0625 11.1875 C3.66039307 10.30852051 3.25828613 9.42954102 2.84399414 8.52392578 C2.47395264 7.70520996 2.10391113 6.88649414 1.72265625 6.04296875 C1.39015869 5.31102295 1.05766113 4.57907715 0.71508789 3.82495117 C0 2 0 2 0 0 Z " fill="#9613ED" transform="translate(192,16)"/>
<path d="M0 0 C-0.64202104 4.6999599 -2.56629929 8.66478905 -4.61328125 12.88671875 C-4.97881104 13.65245712 -5.34434082 14.4181955 -5.72094727 15.20713806 C-6.50545129 16.84922786 -7.29244776 18.4901288 -8.08169556 20.12994385 C-10.15934113 24.4471977 -12.21872983 28.77316196 -14.28125 33.09765625 C-14.69127762 33.95595032 -15.10130524 34.81424438 -15.52375793 35.69854736 C-18.84184434 42.64912443 -22.09864621 49.62552283 -25.3125 56.625 C-25.7859082 57.65512207 -26.25931641 58.68524414 -26.74707031 59.74658203 C-27.69165329 61.80245813 -28.63599202 63.85844647 -29.58007812 65.91455078 C-32.06017031 71.30371945 -34.56195514 76.68279846 -37.0625 82.0625 C-40.89810849 90.31675768 -44.72977474 98.57281168 -48.5546875 106.83203125 C-48.9514267 107.68866867 -49.34816589 108.54530609 -49.75692749 109.42790222 C-52.21686314 114.73936389 -52.21686314 114.73936389 -54.67669678 120.0508728 C-59.82599647 131.16881177 -64.99392571 142.27768347 -70.1875 153.375 C-77.90265917 169.86576621 -85.45333413 186.43162468 -93 203 C-93.66 203 -94.32 203 -95 203 C-95.95993013 196.96043961 -96.32684271 190.98092729 -96.60546875 184.87695312 C-96.72754241 180.80674108 -96.72754241 180.80674108 -98 177 C-98.04116809 175.20619395 -98.0252547 173.41100014 -97.984375 171.6171875 C-97.92576593 163.36457943 -98.48369066 155.18444927 -99.05432129 146.95465088 C-99.25541301 144.04672405 -99.45029422 141.13843778 -99.64355469 138.22998047 C-99.93126312 133.90450798 -100.2206348 129.57915295 -100.51171875 125.25390625 C-100.59019043 124.08778809 -100.66866211 122.92166992 -100.74951172 121.72021484 C-100.87732461 119.82195669 -101.00514397 117.92369898 -101.13311768 116.02545166 C-101.70644716 107.52059575 -102.27474386 99.01544493 -102.83037949 90.50941277 C-103.10688544 86.28121965 -103.39021513 82.05355724 -103.67862701 77.82616043 C-103.9012882 74.53294311 -104.11390245 71.23908923 -104.328125 67.9453125 C-104.41126953 66.75446045 -104.49441406 65.5636084 -104.58007812 64.33666992 C-104.77738216 61.22282487 -104.91948589 58.11888719 -105 55 C-105.0222464 54.19649109 -105.0444928 53.39298218 -105.06741333 52.56512451 C-104.98583984 50.44482422 -104.98583984 50.44482422 -104 47 C-101.49393376 45.12675451 -99.71300337 44.10093921 -96.8984375 42.9375 C-95.81820816 42.44636719 -95.81820816 42.44636719 -94.71615601 41.9453125 C-93.21835868 41.26780807 -91.71445598 40.60365059 -90.20495605 39.95263672 C-88.16721592 39.07224454 -86.15063274 38.15810543 -84.13769531 37.22265625 C-80.97966236 35.75773867 -77.80892719 34.32359877 -74.6321106 32.89993286 C-62.0442862 27.25590066 -49.5330491 21.46060818 -37.0625 15.5625 C-18.46653856 6.77851215 -18.46653856 6.77851215 -10.0625 3 C-9.35939697 2.67974854 -8.65629395 2.35949707 -7.93188477 2.02954102 C-5.09347146 0.7694448 -3.14523149 0 0 0 Z " fill="#FB2EC6" transform="translate(128,16)"/>
<path d="M0 0 C1.25963011 0.00138269 1.25963011 0.00138269 2.5447073 0.00279331 C3.50529552 0.00141865 4.46588375 0.00004398 5.45558071 -0.00137234 C6.51796963 0.00222294 7.58035854 0.00581821 8.67494106 0.00952244 C10.34302067 0.0093034 10.34302067 0.0093034 12.04479885 0.00907993 C15.74046143 0.00977962 19.43607434 0.01757463 23.13172817 0.02539158 C25.68620686 0.02725556 28.24068589 0.02867956 30.79516506 0.0296793 C36.84418902 0.03311439 42.89319147 0.04100518 48.9422068 0.05102879 C55.82722346 0.062191 62.71224096 0.06770065 69.59726441 0.07272422 C83.76371022 0.08318783 97.93014009 0.1007866 112.09657192 0.12304783 C112.90010852 1.71767193 113.70221632 3.31301607 114.50372219 4.90866184 C115.17396309 6.24115624 115.17396309 6.24115624 115.85774422 7.60056973 C117.30204971 10.54143791 118.56950228 13.52113807 119.77235317 16.56836033 C120.20741177 17.66406345 120.64247036 18.75976658 121.09071255 19.88867283 C121.74330044 21.55156345 121.74330044 21.55156345 122.40907192 23.24804783 C122.86346645 24.39531345 123.31786098 25.54257908 123.78602505 26.72461033 C124.89353859 29.52253927 125.99696263 32.32200523 127.09657192 35.12304783 C124.45312732 38.1467856 121.33111368 39.84745259 117.85438442 41.81054783 C117.24899837 42.15432468 116.64361233 42.49810154 116.01988125 42.85229588 C114.08967843 43.94715556 112.1557732 45.03527037 110.22157192 46.12304783 C108.29537246 47.21229361 106.36994945 48.30290071 104.44468594 49.39379978 C102.69334347 50.38519037 100.94017147 51.37334693 99.18690395 52.36132908 C97.20846411 53.48918671 95.24854778 54.65058821 93.31483364 55.85351658 C91.09657192 57.12304783 91.09657192 57.12304783 89.09657192 57.12304783 C88.60157192 58.11304783 88.60157192 58.11304783 88.09657192 59.12304783 C86.09657192 59.7897145 84.09657192 60.45638116 82.09657192 61.12304783 C81.60157192 62.11304783 81.60157192 62.11304783 81.09657192 63.12304783 C78.09657192 64.12304783 78.09657192 64.12304783 75.09657192 65.12304783 C74.76657192 65.78304783 74.43657192 66.44304783 74.09657192 67.12304783 C71.65659622 68.52064728 69.22094017 69.84084404 66.72157192 71.12304783 C65.35887972 71.83000845 63.99687491 72.53829598 62.63563442 73.24804783 C61.72612026 73.71597752 61.72612026 73.71597752 60.79823208 74.19336033 C59.17773336 75.07870597 57.6330183 76.09875024 56.09657192 77.12304783 C49.00387135 74.86453206 42.63193843 70.52548554 36.22157192 66.81054783 C33.71363475 65.36448819 31.20403985 63.92131981 28.69422817 62.47851658 C28.06050793 62.11382267 27.42678768 61.74912876 26.77386379 61.37338352 C20.43490921 57.73093548 14.04890666 54.17545041 7.65907192 50.62304783 C-0.66123342 45.98924177 -8.88132144 41.25847196 -16.90342808 36.12304783 C-16.25647723 33.27326929 -15.37773903 30.68445987 -14.23155308 27.99804783 C-13.89905552 27.2141367 -13.56655796 26.43022556 -13.22398472 25.62255955 C-12.87070103 24.79772068 -12.51741734 23.97288181 -12.15342808 23.12304783 C-11.42791258 21.41742714 -10.70265221 19.71169791 -9.97764683 18.00586033 C-9.62363804 17.17473728 -9.26962925 16.34361423 -8.90489292 15.48730564 C-7.1729244 11.39847503 -5.49312861 7.2883488 -3.81358433 3.17773533 C-2.47688359 0.16011908 -2.47688359 0.16011908 0 0 Z " fill="#EC0A5F" transform="translate(104.90342807769775,227.87695217132568)"/>
<path d="M0 0 C0.66 0 1.32 0 2 0 C10.64118629 20.79729458 19.26519099 41.60141745 27.8125 62.4375 C28.31571777 63.66365524 28.31571777 63.66365524 28.82910156 64.9145813 C30.63953427 69.32689789 32.44629047 73.74068103 34.24713135 78.15692139 C34.93958509 79.8520998 35.63633623 81.54552112 36.33349609 83.23876953 C36.70168457 84.14095215 37.06987305 85.04313477 37.44921875 85.97265625 C37.90880981 87.09232788 37.90880981 87.09232788 38.37768555 88.23461914 C39 90 39 90 39 92 C13.92 92 -11.16 92 -37 92 C-36.14408395 87.72041975 -35.06509927 84.46316168 -33.3828125 80.484375 C-33.12498993 79.8691095 -32.86716736 79.25384399 -32.60153198 78.61993408 C-31.78039471 76.66141554 -30.95327779 74.70550833 -30.125 72.75 C-26.81286065 64.91472645 -23.53795433 57.12855304 -21 49 C-20.34 49 -19.68 49 -19 49 C-18.85377197 48.02039307 -18.85377197 48.02039307 -18.70458984 47.02099609 C-17.77858164 43.05064768 -16.27606421 39.42774954 -14.7265625 35.6640625 C-14.40215179 34.86648529 -14.07774109 34.06890808 -13.74349976 33.24716187 C-12.70812872 30.70473455 -11.66658492 28.16488699 -10.625 25.625 C-9.93190032 23.92463863 -9.23918796 22.22411934 -8.546875 20.5234375 C-5.74844147 13.65973636 -2.93777199 6.80544583 0 0 Z " fill="#E522AC" transform="translate(159,92)"/>
<path d="M0 0 C0.66 0 1.32 0 2 0 C10.64118629 20.79729458 19.26519099 41.60141745 27.8125 62.4375 C28.31571777 63.66365524 28.31571777 63.66365524 28.82910156 64.9145813 C30.63953427 69.32689789 32.44629047 73.74068103 34.24713135 78.15692139 C34.93958509 79.8520998 35.63633623 81.54552112 36.33349609 83.23876953 C36.70168457 84.14095215 37.06987305 85.04313477 37.44921875 85.97265625 C37.75561279 86.719104 38.06200684 87.46555176 38.37768555 88.23461914 C39 90 39 90 39 92 C28.42994053 91.32567404 28.42994053 91.32567404 25.125 88.26171875 C23.21490626 85.24308847 22.12405042 82.6340355 21.4375 79.125 C21.293125 78.42375 21.14875 77.7225 21 77 C19.67592331 76.31513275 18.34090759 75.65129797 17 75 C13 69.66666667 13 69.66666667 13 67 C11.515 66.505 11.515 66.505 10 66 C8.72979267 63.90789381 7.92170935 61.79122493 7.0625 59.5 C5.96916387 56.9274444 4.70402467 55.20892086 3 53 C-1.57894737 46.13157895 -1.57894737 46.13157895 -3 42.3125 C-4.65903762 38.4759755 -7.89380408 35.96792143 -11 33.25 C-12.40282014 30.09365469 -11.42143107 28.08788084 -10.23046875 24.97265625 C-9.62138672 23.50119141 -9.62138672 23.50119141 -9 22 C-8.43321312 20.60301895 -7.86684114 19.20586953 -7.30078125 17.80859375 C-5.81079547 14.15132015 -4.29582337 10.505004 -2.77294922 6.86132812 C-1.82676027 4.58282385 -0.90769952 2.29408635 0 0 Z " fill="#DC27C3" transform="translate(159,92)"/>
<path d="M0 0 C1.6396875 0.2475 1.6396875 0.2475 3.3125 0.5 C6.87525873 1.06718184 6.87525873 1.06718184 10 1 C10.804375 1.185625 11.60875 1.37125 12.4375 1.5625 C14.92131657 2.20516946 14.92131657 2.20516946 16.875 1.3125 C20.51618993 0.77703089 22.97882251 3.08271429 26 5 C25.67 6.32 25.34 7.64 25 9 C25.66 9 26.32 9 27 9 C27.66 10.32 28.32 11.64 29 13 C29 12.34 29 11.68 29 11 C29.99 10.67 30.98 10.34 32 10 C32.928125 11.485 32.928125 11.485 33.875 13 C34.57625 13.99 35.2775 14.98 36 16 C36.66 16 37.32 16 38 16 C38.66 18.31 39.32 20.62 40 23 C37.09560239 23.96813254 35.2718176 24.12144834 32.25317383 24.11352539 C31.29240433 24.11344986 30.33163483 24.11337433 29.3417511 24.11329651 C28.30729355 24.10813522 27.272836 24.10297394 26.20703125 24.09765625 C24.61528328 24.09553383 24.61528328 24.09553383 22.99137878 24.09336853 C19.59839065 24.08776606 16.20546823 24.07521314 12.8125 24.0625 C10.51367283 24.05748532 8.21484462 24.05292236 5.91601562 24.04882812 C0.27732128 24.03779583 -5.36133466 24.0210553 -11 24 C-10.32992395 20.38878476 -9.43880155 17.52071693 -7.75 14.25 C-7.30785156 13.39148438 -6.86570312 12.53296875 -6.41015625 11.6484375 C-4.32661136 7.73529779 -2.18844691 3.85539158 0 0 Z " fill="#EE1E93" transform="translate(133,160)"/>
<path d="M0 0 C4.62 0 9.24 0 14 0 C17.91600618 7.54977769 21.20668219 15.21091611 24.3125 23.125 C24.76689453 24.27226562 25.22128906 25.41953125 25.68945312 26.6015625 C26.79696666 29.39949144 27.90039071 32.19895741 29 35 C26.74087456 37.34915285 24.76634683 38.78321216 21.8125 40.1875 C21.09707031 40.53167969 20.38164062 40.87585938 19.64453125 41.23046875 C18.83048828 41.61138672 18.83048828 41.61138672 18 42 C17.89276611 41.46858398 17.78553223 40.93716797 17.67504883 40.38964844 C16.81551122 37.34691639 15.5366427 34.63126389 14.19921875 31.765625 C13.92157181 31.16876892 13.64392487 30.57191284 13.35786438 29.95697021 C12.77025536 28.69547857 12.18095898 27.4347717 11.59008789 26.17480469 C10.69774015 24.27183753 9.81031154 22.36664246 8.92382812 20.4609375 C6.54149039 15.35149076 4.15325643 10.25217363 1.58203125 5.234375 C0 2 0 2 0 0 Z " fill="#C60DA2" transform="translate(203,228)"/>
<path d="M0 0 C2.51176427 1.25588213 3.07762884 2.53941692 4.5 4.9375 C5.89882073 7.28734824 7.05533339 9.05533339 9 11 C10.07152623 13.36332495 11.07408047 15.71862682 12.0390625 18.125 C12.32478119 18.8277002 12.61049988 19.53040039 12.90487671 20.25439453 C13.50739372 21.73956836 14.1073994 23.22576313 14.70507812 24.71289062 C15.62241472 26.99357247 16.54885294 29.27039576 17.4765625 31.546875 C18.06044092 32.98936282 18.64379226 34.43206412 19.2265625 35.875 C19.50464752 36.55836426 19.78273254 37.24172852 20.06924438 37.94580078 C22 42.76905093 22 42.76905093 22 45 C11.42994053 44.32567404 11.42994053 44.32567404 8.125 41.26171875 C6.21490626 38.24308847 5.12405042 35.6340355 4.4375 32.125 C4.293125 31.42375 4.14875 30.7225 4 30 C2.06669397 28.90833725 2.06669397 28.90833725 0 28 C-1.25 25.875 -1.25 25.875 -2 24 C-1.34 23.01 -0.68 22.02 0 21 C-0.33 20.01 -0.66 19.02 -1 18 C-1.33333333 16.66666667 -1.66666667 15.33333333 -2 14 C-2.66152556 11.6652039 -3.32741333 9.33163378 -4 7 C-3.34 6.34 -2.68 5.68 -2 5 C-2.33 4.01 -2.66 3.02 -3 2 C-2.01 1.34 -1.02 0.68 0 0 Z " fill="#D01EB7" transform="translate(176,139)"/>
<path d="M0 0 C4.00578788 0.44508754 6.60902903 1.91324864 10 4 C10.680625 4.103125 11.36125 4.20625 12.0625 4.3125 C15.89715147 5.67318278 17.42592126 10.00840946 19.375 13.375 C21.31030742 16.50126584 23.5658585 19.28774112 25.890625 22.1328125 C26.25671875 22.74898437 26.6228125 23.36515625 27 24 C26.505 25.485 26.505 25.485 26 27 C23.61613016 26.57430896 22.13410116 26.10173191 20.1875 24.625 C15.95079965 21.47773688 12.49426716 19.82852672 7.1875 20.4375 C6.135625 20.623125 5.08375 20.80875 4 21 C3.34 20.34 2.68 19.68 2 19 C-0.60280568 19.32041397 -0.60280568 19.32041397 -3 20 C-3.33 19.34 -3.66 18.68 -4 18 C-6.96865509 20.54456151 -8.3619751 23.48994665 -10 27 C-11 25 -11 25 -10.21142578 22.58569336 C-9.58469971 21.1027478 -9.58469971 21.1027478 -8.9453125 19.58984375 C-8.49542969 18.51798828 -8.04554688 17.44613281 -7.58203125 16.34179688 C-7.10121094 15.21837891 -6.62039062 14.09496094 -6.125 12.9375 C-5.65191406 11.81021484 -5.17882812 10.68292969 -4.69140625 9.52148438 C-1.15572862 1.15572862 -1.15572862 1.15572862 0 0 Z " fill="#EB21A1" transform="translate(139,142)"/>
<path d="M0 0 C1.11375 1.2065625 1.11375 1.2065625 2.25 2.4375 C4.90991475 4.91605692 5.6879511 5.29027524 9 6 C9.33 6.99 9.66 7.98 10 9 C10.66 9 11.32 9 12 9 C13.03174319 12.09522958 14.04877678 15.17234462 14.9375 18.3125 C15.288125 19.199375 15.63875 20.08625 16 21 C16.99 21.33 17.98 21.66 19 22 C20.0625 23.9375 20.0625 23.9375 21 26 C21.66 26.66 22.32 27.32 23 28 C23.125 31.625 23.125 31.625 23 35 C24.485 35.495 24.485 35.495 26 36 C25.34 36 24.68 36 24 36 C24.66 38.31 25.32 40.62 26 43 C24.02 43.495 24.02 43.495 22 44 C21.67 43.01 21.34 42.02 21 41 C19.515 40.505 19.515 40.505 18 40 C16.72979267 37.90789381 15.92170935 35.79122493 15.0625 33.5 C13.96916387 30.9274444 12.70402467 29.20892086 11 27 C6.42105263 20.13157895 6.42105263 20.13157895 5 16.3125 C3.63674788 13.15997948 1.47187063 11.35129158 -1 9 C-2.875 6.9375 -2.875 6.9375 -4 5 C-3.875 2.8125 -3.875 2.8125 -3 1 C-2.01 0.67 -1.02 0.34 0 0 Z " fill="#DE24B6" transform="translate(151,118)"/>
<path d="M0 0 C0.103125 0.639375 0.20625 1.27875 0.3125 1.9375 C0.6528125 2.9584375 0.6528125 2.9584375 1 4 C1.99 4.33 2.98 4.66 4 5 C4.33 5.99 4.66 6.98 5 8 C5.99 8.33 6.98 8.66 8 9 C7.814375 8.38125 7.62875 7.7625 7.4375 7.125 C7 5 7 5 8 3 C8.66 3.33 9.32 3.66 10 4 C10.33 4.99 10.66 5.98 11 7 C11.63808594 7.29003906 12.27617187 7.58007812 12.93359375 7.87890625 C15.7564797 9.41041526 16.04650397 10.94229093 17.0625 13.9375 C18.22952219 17.338393 19.07778967 19.80151466 22 22 C24.26393971 22.78356902 24.26393971 22.78356902 26.6875 23.1875 C27.89986328 23.42533203 27.89986328 23.42533203 29.13671875 23.66796875 C29.75160156 23.77753906 30.36648437 23.88710937 31 24 C31 24.33 31 24.66 31 25 C22.42 25 13.84 25 5 25 C5.66 24.34 6.32 23.68 7 23 C5.68124824 19.04374472 4.08077896 16.79195593 1 14 C0.34 13.34 -0.32 12.68 -1 12 C-1.66 12 -2.32 12 -3 12 C-2.67 12.99 -2.34 13.98 -2 15 C-2.99 14.67 -3.98 14.34 -5 14 C-5.33 13.01 -5.66 12.02 -6 11 C-6.66 10.67 -7.32 10.34 -8 10 C-7.67 9.01 -7.34 8.02 -7 7 C-4.61435923 7.57584432 -2.33317216 8.22227595 0 9 C-0.66 6.69 -1.32 4.38 -2 2 C-1.34 1.34 -0.68 0.68 0 0 Z " fill="#DF1BA1" transform="translate(165,159)"/>
<path d="M0 0 C0.66 0.33 1.32 0.66 2 1 C2.33 1.99 2.66 2.98 3 4 C3.63808594 4.29003906 4.27617187 4.58007812 4.93359375 4.87890625 C7.7564797 6.41041526 8.04650397 7.94229093 9.0625 10.9375 C10.22952219 14.338393 11.07778967 16.80151466 14 19 C16.26393971 19.78356902 16.26393971 19.78356902 18.6875 20.1875 C19.89986328 20.42533203 19.89986328 20.42533203 21.13671875 20.66796875 C21.75160156 20.77753906 22.36648437 20.88710937 23 21 C23 21.33 23 21.66 23 22 C20.24973583 22.05404449 17.50053797 22.09369306 14.75 22.125 C13.97269531 22.14175781 13.19539062 22.15851563 12.39453125 22.17578125 C5.27568856 22.23662606 5.27568856 22.23662606 2 20 C2.99 19.67 3.98 19.34 5 19 C5 18.34 5 17.68 5 17 C4.34 16.67 3.68 16.34 3 16 C2.855625 15.21625 2.71125 14.4325 2.5625 13.625 C1.94615917 10.74874279 1.22271144 9.83615293 -1 8 C-0.67 7.34 -0.34 6.68 0 6 C-0.165 5.34 -0.33 4.68 -0.5 4 C-1 2 -1 2 0 0 Z " fill="#D51AA9" transform="translate(173,162)"/>
<path d="M0 0 C6.24112277 0.49382621 11.35130576 3.34181862 16.875 6.0625 C18.33679688 6.77116211 18.33679688 6.77116211 19.828125 7.49414062 C22.22216874 8.65595597 24.61254494 9.8247207 27 11 C24 12 24 12 21.94702148 11.27148438 C21.17946533 10.88283203 20.41190918 10.49417969 19.62109375 10.09375 C18.78255859 9.67996094 17.94402344 9.26617187 17.08007812 8.83984375 C15.77200195 8.17662109 15.77200195 8.17662109 14.4375 7.5 C12.71060805 6.62829442 10.98028869 5.7633348 9.24609375 4.90625 C8.47966553 4.51759766 7.7132373 4.12894531 6.92358398 3.72851562 C6.28880127 3.48810547 5.65401855 3.24769531 5 3 C4.01 3.495 4.01 3.495 3 4 C3.37253906 4.68707031 3.74507812 5.37414062 4.12890625 6.08203125 C4.83853516 7.43361328 4.83853516 7.43361328 5.5625 8.8125 C6.27599609 10.15248047 6.27599609 10.15248047 7.00390625 11.51953125 C8 14 8 14 7 17 C5.82866942 14.54379149 4.66278278 12.08525083 3.5 9.625 C3.16613281 8.92632812 2.83226562 8.22765625 2.48828125 7.5078125 C0 2.2265625 0 2.2265625 0 0 Z " fill="#D725CD" transform="translate(192,16)"/>
<path d="M0 0 C5.875 2.75 5.875 2.75 7 5 C5 7 5 7 2 9 C-1 7 -1 7 -1.8125 4.5 C-1.874375 3.675 -1.93625 2.85 -2 2 C-1.34 1.34 -0.68 0.68 0 0 Z " fill="#EF0846" transform="translate(117,272)"/>
<path d="M0 0 C0.99 0.33 1.98 0.66 3 1 C5.14255793 0.61067144 5.14255793 0.61067144 7 0 C7 1.32 7 2.64 7 4 C3.86501708 5.85776765 1.62528568 6.20140476 -2 6 C-1.125 1.125 -1.125 1.125 0 0 Z " fill="#EE0D52" transform="translate(97,262)"/>
<path d="M0 0 C1.98 0.66 3.96 1.32 6 2 C4.73223544 4.53552912 3.53176935 4.84919575 1 6 C0.01 6.495 0.01 6.495 -1 7 C-1.33 7.99 -1.66 8.98 -2 10 C-2.66 9.01 -3.32 8.02 -4 7 C-2.68 4.69 -1.36 2.38 0 0 Z " fill="#F10E53" transform="translate(123,254)"/>
<path d="M0 0 C2.28062828 3.42094242 2.21925007 4.68187222 2.125 8.6875 C2.10695312 9.68136719 2.08890625 10.67523438 2.0703125 11.69921875 C2.03550781 12.83810547 2.03550781 12.83810547 2 14 C2.66 14 3.32 14 4 14 C3.67 15.65 3.34 17.3 3 19 C2.34 19 1.68 19 1 19 C-0.15316726 12.65758005 -0.09507063 6.43311296 0 0 Z " fill="#E822A8" transform="translate(32,200)"/>
<path d="M0 0 C3.63 0 7.26 0 11 0 C11 0.33 11 0.66 11 1 C9.35 1 7.7 1 6 1 C6.66 2.98 7.32 4.96 8 7 C7.01 6.34 6.02 5.68 5 5 C5 4.34 5 3.68 5 3 C3.35 2.67 1.7 2.34 0 2 C0 1.34 0 0.68 0 0 Z " fill="#F01066" transform="translate(156,228)"/>
</svg>
