<svg xmlns="http://www.w3.org/2000/svg" version="1.1" viewBox="0 62.156800000000004 257.222656 129.536" style="max-height: 500px" width="257.222656" height="129.536">
<path transform="translate(36.39453125,67.90234375)" fill="#294C7F" d="M0 0 C1.80307617 0.00483398 1.80307617 0.00483398 3.64257812 0.00976562 C4.88845703 0.01814453 6.13433594 0.02652344 7.41796875 0.03515625 C8.68318359 0.03966797 9.94839844 0.04417969 11.25195312 0.04882812 C14.36983985 0.06059374 17.48763008 0.07703353 20.60546875 0.09765625 C20.61577621 1.06374313 20.62608368 2.02983002 20.63670349 3.02519226 C20.73449169 12.13298967 20.83723086 21.24071959 20.94480801 30.34840679 C20.99995454 35.03066891 21.0533612 39.71293736 21.1027832 44.39526367 C21.15054888 48.9145879 21.20289587 53.43383804 21.2584095 57.9530735 C21.27877783 59.67660487 21.29749988 61.40015652 21.31454277 63.12372398 C21.33870934 65.53918143 21.36874669 67.95450029 21.40014648 70.36987305 C21.40877968 71.43694489 21.40877968 71.43694489 21.41758728 72.52557373 C21.47132548 76.16625402 21.74980608 79.5549657 22.60546875 83.09765625 C25.24546875 83.75765625 27.88546875 84.41765625 30.60546875 85.09765625 C30.68914343 89.95078757 30.47752385 94.30478648 29.60546875 99.09765625 C14.28078741 96.98989263 14.28078741 96.98989263 9.29296875 91.59765625 C6.43211989 87.35936164 6.48332042 84.06583607 6.49194336 79.0559082 C6.49179733 78.34345947 6.49165131 77.63101074 6.49150085 76.89697266 C6.49219724 74.54326325 6.49997683 72.18963308 6.5078125 69.8359375 C6.50967765 68.2035476 6.5111011 66.57115714 6.51210022 64.93876648 C6.51591774 60.6430405 6.52574151 56.34734836 6.5368042 52.05163574 C6.54703476 47.66789202 6.55160137 43.28414284 6.55664062 38.90039062 C6.56736445 30.29946365 6.5844317 21.69856416 6.60546875 13.09765625 C4.64567448 13.37933922 2.68764497 13.67332342 0.73046875 13.97265625 C-0.36007813 14.13507813 -1.450625 14.2975 -2.57421875 14.46484375 C-5.51385839 14.86022138 -5.51385839 14.86022138 -7.39453125 17.09765625 C-7.673583 19.52748949 -7.83736095 21.86293447 -7.921875 24.30078125 C-7.99265885 25.770842 -8.06362835 27.24089381 -8.13476562 28.7109375 C-8.23544059 31.02572693 -8.33175154 33.3406046 -8.42358398 35.65576172 C-8.51571552 37.89228462 -8.62432414 40.1275787 -8.734375 42.36328125 C-8.75636459 43.04787415 -8.77835419 43.73246704 -8.80101013 44.43780518 C-9.07564979 49.82016206 -10.45380405 53.9412927 -14.08203125 57.97265625 C-14.51515625 58.34390625 -14.94828125 58.71515625 -15.39453125 59.09765625 C-14.15228344 61.6602719 -12.83966129 63.97464174 -11.30859375 66.39453125 C-8.19980851 72.61210173 -8.7889653 79.55221809 -8.76953125 86.34765625 C-8.74793519 89.0408116 -8.71054596 91.73277263 -8.66796875 94.42578125 C-8.65902588 96.2032373 -8.65902588 96.2032373 -8.64990234 98.01660156 C-8.40453431 100.97696928 -8.05881805 102.66445441 -6.39453125 105.09765625 C-4.22244537 106.00925718 -4.22244537 106.00925718 -1.76953125 106.34765625 C0.39609375 106.71890625 0.39609375 106.71890625 2.60546875 107.09765625 C2.60546875 111.38765625 2.60546875 115.67765625 2.60546875 120.09765625 C-5.01909398 120.52124307 -11.70663273 119.29470218 -18.33203125 115.34765625 C-24.24516191 108.89696826 -23.85801121 101.59812454 -23.95703125 93.28515625 C-23.87642359 81.50447135 -23.87642359 81.50447135 -26.39453125 70.09765625 C-28.43243644 68.10890732 -28.43243644 68.10890732 -31.01953125 67.47265625 C-32.46328125 67.01890625 -33.90703125 66.56515625 -35.39453125 66.09765625 C-35.39453125 62.46765625 -35.39453125 58.83765625 -35.39453125 55.09765625 C-33.37630208 54.15364583 -31.35807292 53.20963542 -29.33984375 52.265625 C-27.08910319 51.10298528 -27.08910319 51.10298528 -25.39453125 48.09765625 C-24.47684277 43.93430615 -24.26242659 39.92188028 -24.21875 35.66796875 C-24.19490234 34.46011719 -24.17105469 33.25226563 -24.14648438 32.0078125 C-24.10365156 29.49235806 -24.07232739 26.9766803 -24.05273438 24.4609375 C-23.88769403 17.25289649 -23.4381596 12.15592922 -19.39453125 6.09765625 C-17.4296875 4.2578125 -17.4296875 4.2578125 -15.45703125 3.16015625 C-14.80863281 2.77988281 -14.16023438 2.39960937 -13.4921875 2.0078125 C-9.07958811 0.09322096 -4.75973129 -0.02255797 0 0 Z"/>
<path transform="translate(115.875,103.75)" fill="#294C7F" d="M0 0 C9.35914913 9.90968732 9.125 19.30561786 9.125 33.25 C-4.405 33.25 -17.935 33.25 -31.875 33.25 C-31.12161447 40.44131764 -31.12161447 40.44131764 -26.875 45.25 C-17.18258393 50.1753298 -7.08644107 48.42429924 3.125 46.25 C5.88480688 55.82815329 5.88480688 55.82815329 4.125 59.25 C-5.49842399 64.71317894 -18.1867898 64.50794639 -28.5625 61.75 C-36.1588064 59.12995659 -41.63549697 55.4006174 -45.5 48.23828125 C-50.15919467 37.47712992 -51.70174366 26.88195368 -47.84375 15.59375 C-44.29920912 7.01824788 -38.67344578 1.07261517 -30.6875 -3.625 C-20.02544051 -7.8898238 -9.66870865 -5.88530092 0 0 Z M-28.875 11.25 C-30.53350531 13.80154664 -31.97056034 16.33699954 -32.875 19.25 C-32.545 20.24 -32.215 21.23 -31.875 22.25 C-19.5 21.755 -19.5 21.755 -6.875 21.25 C-7.77834122 14.16255625 -7.77834122 14.16255625 -11.875 9.25 C-17.02563588 6.67468206 -24.70346786 7.3238521 -28.875 11.25 Z"/>
<path transform="translate(215,68)" fill="#294C80" d="M0 0 C8.0650791 -0.46754082 16.21474334 0.06617415 22.734375 5.42578125 C26.91757588 10.18724813 28.23559357 14.87358698 28.30859375 21.078125 C28.33373047 22.23957031 28.35886719 23.40101562 28.38476562 24.59765625 C28.41969555 27.01687675 28.45099361 29.43615263 28.47851562 31.85546875 C28.55857686 41.81682708 28.55857686 41.81682708 32 51 C34.68623245 52.65309182 36.88506183 53.2340316 40 54 C40 57.96 40 61.92 40 66 C37.98177083 66.68359375 35.96354167 67.3671875 33.9453125 68.05078125 C31.66005095 68.96335547 31.66005095 68.96335547 30 72 C28.45219133 79.47772498 28.69486992 87.23294399 28.5703125 94.83984375 C28.3272708 103.27541605 27.2131793 109.7868207 21 116 C13.8026669 119.66409685 7.91142964 120.11808104 0 120 C0 116.04 0 112.08 0 108 C1.5778125 107.5978125 1.5778125 107.5978125 3.1875 107.1875 C6.69247387 106.09578683 9.10498402 105.21602157 12 103 C12.74640766 100.49173529 12.74640766 100.49173529 12.63671875 97.625 C12.65669922 96.55636719 12.67667969 95.48773438 12.69726562 94.38671875 C12.69404297 93.26910156 12.69082031 92.15148437 12.6875 91 C12.85650424 69.0814498 12.85650424 69.0814498 17.625 63.3125 C18.40875 62.549375 19.1925 61.78625 20 61 C18.99837372 58.84265109 18.05440233 57.06346939 16.5 55.25 C11.27693531 47.41540296 12.64735953 36.53243917 12.609375 27.55859375 C12.58617187 26.38941406 12.56296875 25.22023438 12.5390625 24.015625 C12.53084473 22.95633789 12.52262695 21.89705078 12.51416016 20.80566406 C11.87847541 17.33686582 10.73033973 16.16091059 8 14 C5.89061935 13.31883062 5.89061935 13.31883062 3.75 13.25 C2.5125 13.1675 1.275 13.085 0 13 C0 8.71 0 4.42 0 0 Z"/>
<path transform="translate(212.5,99.5)" fill="#294C80" d="M0 0 C0.72703125 0.14308594 1.4540625 0.28617187 2.203125 0.43359375 C3.97009071 0.78233698 5.73525309 1.14019723 7.5 1.5 C7.19128878 3.29232337 6.87790936 5.08384321 6.5625 6.875 C6.38847656 7.87273437 6.21445313 8.87046875 6.03515625 9.8984375 C5.5 12.5 5.5 12.5 4.5 14.5 C3.52933594 14.33628906 2.55867188 14.17257813 1.55859375 14.00390625 C-2.78276888 13.38371159 -7.05997771 13.38873583 -11.4375 13.4375 C-12.21673828 13.44201172 -12.99597656 13.44652344 -13.79882812 13.45117188 C-15.69925268 13.46283092 -17.59963706 13.48076123 -19.5 13.5 C-19.5 16.47 -19.5 19.44 -19.5 22.5 C-18.65308594 22.77328125 -17.80617187 23.0465625 -16.93359375 23.328125 C3.96825972 30.46186338 3.96825972 30.46186338 9.4375 39.8125 C11.1597056 45.78956648 11.46282218 50.93773964 9 56.75 C6.0498864 61.92817142 1.76037389 64.45163062 -3.8203125 66.24609375 C-15.07126505 68.86890423 -25.47633806 67.48705678 -36.5 64.5 C-37.4255163 60.85618406 -37.4856217 58.32568551 -36.5625 54.6875 C-36.36785156 53.89730469 -36.17320312 53.10710937 -35.97265625 52.29296875 C-35.81667969 51.70128906 -35.66070312 51.10960937 -35.5 50.5 C-34.97535156 50.644375 -34.45070312 50.78875 -33.91015625 50.9375 C-28.068744 52.33710626 -22.47840061 52.6925456 -16.5 52.6875 C-15.36896851 52.6884668 -15.36896851 52.6884668 -14.21508789 52.68945312 C-10.22723972 52.72420885 -10.22723972 52.72420885 -6.5 51.5 C-5.82987578 48.7140814 -5.82987578 48.7140814 -6.5 45.5 C-10.22154104 42.55378001 -14.19940336 40.6404971 -18.453125 38.5859375 C-19.15824219 38.24224121 -19.86335938 37.89854492 -20.58984375 37.54443359 C-22.00765679 36.85892227 -23.43206782 36.18686027 -24.86328125 35.52978516 C-30.04331605 33.05828975 -32.97654428 30.31839309 -35.75 25.1875 C-37.25492017 19.79486938 -37.16692588 15.37383631 -34.875 10.3125 C-31.08775903 3.60592744 -26.40641318 1.11561186 -19.2578125 -1.01953125 C-12.61549086 -2.17676292 -6.51917891 -1.34005344 0 0 Z"/>
<path transform="translate(171,101)" fill="#294C7F" d="M0 0 C1.45047396 2.90094791 0.45356803 4.55972596 -0.4375 7.625 C-0.86869141 9.12933594 -0.86869141 9.12933594 -1.30859375 10.6640625 C-1.53675781 11.43492188 -1.76492187 12.20578125 -2 13 C-2.86625 12.835 -3.7325 12.67 -4.625 12.5 C-11.39441528 11.52498134 -19.48069899 10.82689966 -26 13 C-26 15.64 -26 18.28 -26 21 C-25.18660156 21.25265625 -24.37320313 21.5053125 -23.53515625 21.765625 C-19.38772147 23.21379007 -15.42950932 24.92308919 -11.4375 26.75 C-10.69564453 27.07226562 -9.95378906 27.39453125 -9.18945312 27.7265625 C-3.24482006 30.45802346 0.10640076 33.57348709 3.3125 39.375 C5.04697032 45.99752303 4.26793815 51.02756132 1 57 C-3.72022017 62.93399107 -9.7418027 64.79209792 -17 66 C-25.63419576 66.60265527 -33.81333781 65.94990472 -42 63 C-42.66 62.34 -43.32 61.68 -44 61 C-43.7578125 58.1796875 -43.7578125 58.1796875 -43.125 54.875 C-42.92132813 53.77929688 -42.71765625 52.68359375 -42.5078125 51.5546875 C-42.34023437 50.71164063 -42.17265625 49.86859375 -42 49 C-40.741875 49.33 -39.48375 49.66 -38.1875 50 C-29.91955361 51.699057 -21.3956621 51.15515597 -13 51 C-12.47751503 46.38008858 -12.47751503 46.38008858 -14.328125 42.3984375 C-14.96234375 42.06070313 -15.5965625 41.72296875 -16.25 41.375 C-16.97703125 40.97796875 -17.7040625 40.5809375 -18.453125 40.171875 C-21.26461013 38.87824687 -24.11770354 37.75158288 -27 36.625 C-33.49608101 34.01012182 -38.71190563 30.62281609 -42.5 24.625 C-43.79456128 17.82855327 -43.56901985 12.10187264 -40 6 C-29.94420775 -5.8714214 -13.46103255 -4.4261012 0 0 Z"/>
<path transform="translate(58,75)" fill="#2A4A80" d="M0 0 C0.33 0 0.66 0 1 0 C1 23.1 1 46.2 1 70 C0.67 70 0.34 70 0 70 C0 46.9 0 23.8 0 0 Z"/>
<path transform="translate(41,86)" fill="#2A4C7F" d="M0 0 C0.33 0 0.66 0 1 0 C1 22.44 1 44.88 1 68 C0.67 68 0.34 68 0 68 C0 45.56 0 23.12 0 0 Z"/>
<path transform="translate(28,140)" fill="#274E7E" d="M0 0 C0.33 0 0.66 0 1 0 C1 9.24 1 18.48 1 28 C0.67 28 0.34 28 0 28 C0 18.76 0 9.52 0 0 Z"/>
<path transform="translate(126,115)" fill="#294C7F" d="M0 0 C0.33 0 0.66 0 1 0 C2.01202288 7.17757765 1.88826175 13.81191259 1 21 C0.67 21 0.34 21 0 21 C-0.19461488 18.06281233 -0.38097593 15.12550068 -0.5625 12.1875 C-0.61857422 11.35412109 -0.67464844 10.52074219 -0.73242188 9.66210938 C-0.78076172 8.85966797 -0.82910156 8.05722656 -0.87890625 7.23046875 C-0.9260376 6.49207764 -0.97316895 5.75368652 -1.02172852 4.99291992 C-1 3 -1 3 0 0 Z"/>
<path transform="translate(244,84)" fill="#2B4C7B" d="M0 0 C0.33 0 0.66 0 1 0 C1 8.25 1 16.5 1 25 C0.67 25 0.34 25 0 25 C0 16.75 0 8.5 0 0 Z"/>
<path transform="translate(32,66)" fill="#324B72" d="M0 0 C7.92 0 15.84 0 24 0 C24 0.33 24 0.66 24 1 C16.08 1 8.16 1 0 1 C0 0.67 0 0.34 0 0 Z"/>
<path transform="translate(226,86)" fill="#304B76" d="M0 0 C0.33 0 0.66 0 1 0 C1 7.59 1 15.18 1 23 C0.67 23 0.34 23 0 23 C0 15.41 0 7.82 0 0 Z"/>
<path transform="translate(244,149)" fill="#2A4C7D" d="M0 0 C0.33 0 0.66 0 1 0 C1 7.26 1 14.52 1 22 C0.67 22 0.34 22 0 22 C0 14.74 0 7.48 0 0 Z"/>
<path transform="translate(226,152)" fill="#2F4C73" d="M0 0 C0.33 0 0.66 0 1 0 C1 6.27 1 12.54 1 19 C0.67 19 0.34 19 0 19 C0 12.73 0 6.46 0 0 Z"/>
<path transform="translate(11,161)" fill="#2E4B7D" d="M0 0 C0.33 0 0.66 0 1 0 C1 4.29 1 8.58 1 13 C0.67 13 0.34 13 0 13 C0 8.71 0 4.42 0 0 Z"/>
<path transform="translate(191,168)" fill="#294D7E" d="M0 0 C2.97 0 5.94 0 9 0 C9 0.33 9 0.66 9 1 C6.03 1 3.06 1 0 1 C0 0.67 0 0.34 0 0 Z"/>
<path transform="translate(143,168)" fill="#2A4B7B" d="M0 0 C2.97 0 5.94 0 9 0 C9 0.33 9 0.66 9 1 C6.03 1 3.06 1 0 1 C0 0.67 0 0.34 0 0 Z"/>
<path transform="translate(96,168)" fill="#2D497D" d="M0 0 C2.64 0 5.28 0 8 0 C8 0.33 8 0.66 8 1 C5.36 1 2.72 1 0 1 C0 0.67 0 0.34 0 0 Z"/>
<path transform="translate(99,151)" fill="#2A4C80" d="M0 0 C2.64 0 5.28 0 8 0 C8 0.33 8 0.66 8 1 C5.36 1 2.72 1 0 1 C0 0.67 0 0.34 0 0 Z"/>
<path transform="translate(224,143)" fill="#254F7E" d="M0 0 C0.33 0 0.66 0 1 0 C1 2.64 1 5.28 1 8 C0.67 8 0.34 8 0 8 C0 5.36 0 2.72 0 0 Z"/>
<path transform="translate(64,129)" fill="#2E4D71" d="M0 0 C0.33 0 0.66 0 1 0 C1 2.64 1 5.28 1 8 C0.67 8 0.34 8 0 8 C0 5.36 0 2.72 0 0 Z"/>
<path transform="translate(28,109)" fill="#2C4B81" d="M0 0 C0.33 0 0.66 0 1 0 C1 2.64 1 5.28 1 8 C0.67 8 0.34 8 0 8 C0 5.36 0 2.72 0 0 Z"/>
<path transform="translate(197,151)" fill="#2A4D78" d="M0 0 C2.31 0 4.62 0 7 0 C7 0.33 7 0.66 7 1 C4.69 1 2.38 1 0 1 C0 0.67 0 0.34 0 0 Z"/>
<path transform="translate(149,151)" fill="#2A4B83" d="M0 0 C2.31 0 4.62 0 7 0 C7 0.33 7 0.66 7 1 C4.69 1 2.38 1 0 1 C0 0.67 0 0.34 0 0 Z"/>
<path transform="translate(35,82)" fill="#284D81" d="M0 0 C2.31 0 4.62 0 7 0 C7 0.33 7 0.66 7 1 C4.69 1 2.38 1 0 1 C0 0.67 0 0.34 0 0 Z"/>
<path transform="translate(216,66)" fill="#334A74" d="M0 0 C2.31 0 4.62 0 7 0 C7 0.33 7 0.66 7 1 C4.69 1 2.38 1 0 1 C0 0.67 0 0.34 0 0 Z"/>
<path transform="translate(216,189)" fill="#364972" d="M0 0 C1.98 0 3.96 0 6 0 C6 0.33 6 0.66 6 1 C4.02 1 2.04 1 0 1 C0 0.67 0 0.34 0 0 Z"/>
<path transform="translate(174,155)" fill="#2A4D7F" d="M0 0 C0.33 1.32 0.66 2.64 1 4 C0.34 4 -0.32 4 -1 4 C-0.67 2.68 -0.34 1.36 0 0 Z"/>
<path transform="translate(176,144)" fill="#254E7A" d="M0 0 C0.33 0 0.66 0 1 0 C1 1.98 1 3.96 1 6 C0.67 6 0.34 6 0 6 C0 4.02 0 2.04 0 0 Z"/>
<path transform="translate(227,139)" fill="#294D7D" d="M0 0 C0.33 0 0.66 0 1 0 C1 1.98 1 3.96 1 6 C0.67 6 0.34 6 0 6 C0 4.02 0 2.04 0 0 Z"/>
<path transform="translate(174,115)" fill="#314974" d="M0 0 C0.33 0 0.66 0 1 0 C1 1.98 1 3.96 1 6 C0.67 6 0.34 6 0 6 C0 4.02 0 2.04 0 0 Z"/>
<path transform="translate(94,96)" fill="#334B6F" d="M0 0 C1.98 0 3.96 0 6 0 C6 0.33 6 0.66 6 1 C4.02 1 2.04 1 0 1 C0 0.67 0 0.34 0 0 Z"/>
<path transform="translate(11,83)" fill="#304B76" d="M0 0 C0.33 0 0.66 0 1 0 C1 1.98 1 3.96 1 6 C0.67 6 0.34 6 0 6 C0 4.02 0 2.04 0 0 Z"/>
<path transform="translate(216,82)" fill="#2A4979" d="M0 0 C1.98 0 3.96 0 6 0 C6 0.33 6 0.66 6 1 C4.02 1 2.04 1 0 1 C0 0.67 0 0.34 0 0 Z"/>
<path transform="translate(33,189)" fill="#3A4966" d="M0 0 C1.65 0 3.3 0 5 0 C5 0.33 5 0.66 5 1 C3.35 1 1.7 1 0 1 C0 0.67 0 0.34 0 0 Z"/>
<path transform="translate(33,173)" fill="#32497B" d="M0 0 C1.65 0 3.3 0 5 0 C5 0.33 5 0.66 5 1 C3.35 1 1.7 1 0 1 C0 0.67 0 0.34 0 0 Z"/>
<path transform="translate(202,167)" fill="#2D4C79" d="M0 0 C1.65 0 3.3 0 5 0 C5 0.33 5 0.66 5 1 C3.35 1 1.7 1 0 1 C0 0.67 0 0.34 0 0 Z"/>
<path transform="translate(121,153)" fill="#2F4C73" d="M0 0 C0.33 0 0.66 0 1 0 C1 1.65 1 3.3 1 5 C0.67 5 0.34 5 0 5 C0 3.35 0 1.7 0 0 Z"/>
<path transform="translate(68,154)" fill="#284F78" d="M0 0 C0.33 0 0.66 0 1 0 C1 1.65 1 3.3 1 5 C0.67 5 0.34 5 0 5 C0 3.35 0 1.7 0 0 Z"/>
<path transform="translate(188,151)" fill="#284E7B" d="M0 0 C1.65 0 3.3 0 5 0 C5 0.33 5 0.66 5 1 C3.35 1 1.7 1 0 1 C0 0.67 0 0.34 0 0 Z"/>
<path transform="translate(140,151)" fill="#2C4C7C" d="M0 0 C1.65 0 3.3 0 5 0 C5 0.33 5 0.66 5 1 C3.35 1 1.7 1 0 1 C0 0.67 0 0.34 0 0 Z"/>
<path transform="translate(205,145)" fill="#2F4A7D" d="M0 0 C0.33 0 0.66 0 1 0 C1 1.65 1 3.3 1 5 C0.67 5 0.34 5 0 5 C0 3.35 0 1.7 0 0 Z"/>
<path transform="translate(157,145)" fill="#2E4B7C" d="M0 0 C0.33 0 0.66 0 1 0 C1 1.65 1 3.3 1 5 C0.67 5 0.34 5 0 5 C0 3.35 0 1.7 0 0 Z"/>
<path transform="translate(193,115)" fill="#2C4C7D" d="M0 0 C0.33 0 0.66 0 1 0 C1 1.65 1 3.3 1 5 C0.67 5 0.34 5 0 5 C0 3.35 0 1.7 0 0 Z"/>
<path transform="translate(204,113)" fill="#354A6F" d="M0 0 C1.65 0 3.3 0 5 0 C5 0.33 5 0.66 5 1 C3.35 1 1.7 1 0 1 C0 0.67 0 0.34 0 0 Z"/>
<path transform="translate(196,113)" fill="#2F4B7C" d="M0 0 C1.65 0 3.3 0 5 0 C5 0.33 5 0.66 5 1 C3.35 1 1.7 1 0 1 C0 0.67 0 0.34 0 0 Z"/>
<path transform="translate(156,113)" fill="#304A78" d="M0 0 C1.65 0 3.3 0 5 0 C5 0.33 5 0.66 5 1 C3.35 1 1.7 1 0 1 C0 0.67 0 0.34 0 0 Z"/>
<path transform="translate(205,97)" fill="#2F4B7A" d="M0 0 C1.65 0 3.3 0 5 0 C5 0.33 5 0.66 5 1 C3.35 1 1.7 1 0 1 C0 0.67 0 0.34 0 0 Z"/>
<path transform="translate(158,97)" fill="#2C4B81" d="M0 0 C1.65 0 3.3 0 5 0 C5 0.33 5 0.66 5 1 C3.35 1 1.7 1 0 1 C0 0.67 0 0.34 0 0 Z"/>
<path transform="translate(225,188)" fill="#2D4A81" d="M0 0 C4 1 4 1 4 1 Z"/>
<path transform="translate(27,188)" fill="#2F4B7C" d="M0 0 C4 1 4 1 4 1 Z"/>
<path transform="translate(217,173)" fill="#294D7F" d="M0 0 C4 1 4 1 4 1 Z"/>
<path transform="translate(184,167)" fill="#2F4C75" d="M0 0 C4 1 4 1 4 1 Z"/>
<path transform="translate(154,167)" fill="#2D4D79" d="M0 0 C4 1 4 1 4 1 Z"/>
<path transform="translate(136,167)" fill="#2E4C78" d="M0 0 C4 1 4 1 4 1 Z"/>
<path transform="translate(107,167)" fill="#2A4D79" d="M0 0 C4 1 4 1 4 1 Z"/>
<path transform="translate(90,167)" fill="#2F4C75" d="M0 0 C4 1 4 1 4 1 Z"/>
<path transform="translate(58,167)" fill="#334977" d="M0 0 C4 1 4 1 4 1 Z"/>
<path transform="translate(67,162)" fill="#314D6B" d="M0 0 C1 4 1 4 1 4 Z"/>
<path transform="translate(109,150)" fill="#314B74" d="M0 0 C4 1 4 1 4 1 Z"/>
<path transform="translate(10,141)" fill="#304D6C" d="M0 0 C1 4 1 4 1 4 Z"/>
<path transform="translate(245,140)" fill="#324B73" d="M0 0 C1 4 1 4 1 4 Z"/>
<path transform="translate(65,139)" fill="#2A4D7F" d="M0 0 C1 4 1 4 1 4 Z"/>
<path transform="translate(65,123)" fill="#2B4C81" d="M0 0 C1 4 1 4 1 4 Z"/>
<path transform="translate(227,114)" fill="#2F4C76" d="M0 0 C1 4 1 4 1 4 Z"/>
<path transform="translate(211,114)" fill="#2D4C79" d="M0 0 C4 1 4 1 4 1 Z"/>
<path transform="translate(163,114)" fill="#2C4B77" d="M0 0 C4 1 4 1 4 1 Z"/>
<path transform="translate(148,113)" fill="#2E4B7D" d="M0 0 C4 1 4 1 4 1 Z"/>
<path transform="translate(98,113)" fill="#334A75" d="M0 0 C4 1 4 1 4 1 Z"/>
<path transform="translate(212,98)" fill="#304C70" d="M0 0 C4 1 4 1 4 1 Z"/>
<path transform="translate(164,98)" fill="#364875" d="M0 0 C4 1 4 1 4 1 Z"/>
<path transform="translate(192,97)" fill="#2A4E77" d="M0 0 C4 1 4 1 4 1 Z"/>
<path transform="translate(144,97)" fill="#2A4D79" d="M0 0 C4 1 4 1 4 1 Z"/>
<path transform="translate(151,96)" fill="#324D6A" d="M0 0 C4 1 4 1 4 1 Z"/>
<path transform="translate(225,67)" fill="#2E4B7B" d="M0 0 C4 1 4 1 4 1 Z"/>
<path transform="translate(26,67)" fill="#2E4D73" d="M0 0 C4 1 4 1 4 1 Z"/>
<path transform="translate(23,187)" fill="#2E4B7D" d="M0 0 C3 1 3 1 3 1 Z"/>
<path transform="translate(0,0)" fill="#2A4D7B" d=""/>
<path transform="translate(180,166)" fill="#2C4B81" d="M0 0 C3 1 3 1 3 1 Z"/>
<path transform="translate(159,166)" fill="#264F7D" d="M0 0 C3 1 3 1 3 1 Z"/>
<path transform="translate(132,166)" fill="#294D7F" d="M0 0 C3 1 3 1 3 1 Z"/>
<path transform="translate(112,166)" fill="#294C83" d="M0 0 C3 1 3 1 3 1 Z"/>
<path transform="translate(54,166)" fill="#2F4983" d="M0 0 C3 1 3 1 3 1 Z"/>
<path transform="translate(116,165)" fill="#2E4C76" d="M0 0 C3 1 3 1 3 1 Z"/>
<path transform="translate(51,165)" fill="#2D4B7B" d="M0 0 C3 1 3 1 3 1 Z"/>
<path transform="translate(0,0)" fill="#2C4A83" d=""/>
<path transform="translate(0,0)" fill="#2D4C7B" d=""/>
<path transform="translate(0,0)" fill="#2F4C75" d=""/>
<path transform="translate(0,0)" fill="#2A4D7F" d=""/>
<path transform="translate(183,150)" fill="#2C4E6F" d="M0 0 C3 1 3 1 3 1 Z"/>
<path transform="translate(135,150)" fill="#2E4D73" d="M0 0 C3 1 3 1 3 1 Z"/>
<path transform="translate(94,150)" fill="#304B75" d="M0 0 C3 1 3 1 3 1 Z"/>
<path transform="translate(179,149)" fill="#264D7D" d="M0 0 C3 1 3 1 3 1 Z"/>
<path transform="translate(131,149)" fill="#2A4F75" d="M0 0 C3 1 3 1 3 1 Z"/>
<path transform="translate(114,149)" fill="#2F4B7B" d="M0 0 C3 1 3 1 3 1 Z"/>
<path transform="translate(0,0)" fill="#2C4C7B" d=""/>
<path transform="translate(0,0)" fill="#324B73" d=""/>
<path transform="translate(0,0)" fill="#344A72" d=""/>
<path transform="translate(0,0)" fill="#2D4B7F" d=""/>
<path transform="translate(0,0)" fill="#2B4D79" d=""/>
<path transform="translate(248,119)" fill="#254E81" d="M0 0 C3 1 3 1 3 1 Z"/>
<path transform="translate(0,0)" fill="#2D4D76" d=""/>
<path transform="translate(93,113)" fill="#2B4D76" d="M0 0 C3 1 3 1 3 1 Z"/>
<path transform="translate(0,0)" fill="#334B72" d=""/>
<path transform="translate(0,0)" fill="#2B4B7E" d=""/>
<path transform="translate(0,0)" fill="#27526C" d=""/>
<path transform="translate(0,0)" fill="#324A73" d=""/>
<path transform="translate(0,0)" fill="#2B4B81" d=""/>
<path transform="translate(0,0)" fill="#2B4C7C" d=""/>
<path transform="translate(168,99)" fill="#245177" d="M0 0 C3 1 3 1 3 1 Z"/>
<path transform="translate(102,97)" fill="#2F4A7F" d="M0 0 C3 1 3 1 3 1 Z"/>
<path transform="translate(89,97)" fill="#2F4B7B" d="M0 0 C3 1 3 1 3 1 Z"/>
<path transform="translate(0,0)" fill="#2B4D76" d=""/>
<path transform="translate(0,0)" fill="#265170" d=""/>
<path transform="translate(230,187)" fill="#274F79" d="M0 0 C2 1 2 1 2 1 Z"/>
<path transform="translate(232,186)" fill="#2B4B81" d="M0 0 C2 1 2 1 2 1 Z"/>
<path transform="translate(21,186)" fill="#2D4B7D" d="M0 0 C2 1 2 1 2 1 Z"/>
<path transform="translate(234,185)" fill="#2F4B7D" d="M0 0 C2 1 2 1 2 1 Z"/>
<path transform="translate(19,185)" fill="#2D4C7C" d="M0 0 C2 1 2 1 2 1 Z"/>
<path transform="translate(0,0)" fill="#2B4B82" d=""/>
<path transform="translate(0,0)" fill="#2E4B7C" d=""/>
<path transform="translate(223,172)" fill="#2D4D79" d="M0 0 C2 1 2 1 2 1 Z"/>
<path transform="translate(30,172)" fill="#304C74" d="M0 0 C2 1 2 1 2 1 Z"/>
<path transform="translate(0,0)" fill="#304B76" d=""/>
<path transform="translate(63,168)" fill="#394679" d="M0 0 C2 1 2 1 2 1 Z"/>
<path transform="translate(208,166)" fill="#254F81" d="M0 0 C2 1 2 1 2 1 Z"/>
<path transform="translate(87,166)" fill="#294D7F" d="M0 0 C2 1 2 1 2 1 Z"/>
<path transform="translate(211,165)" fill="#2B4D79" d="M0 0 C2 1 2 1 2 1 Z"/>
<path transform="translate(177,165)" fill="#374778" d="M0 0 C2 1 2 1 2 1 Z"/>
<path transform="translate(163,165)" fill="#2D4C79" d="M0 0 C2 1 2 1 2 1 Z"/>
<path transform="translate(129,165)" fill="#364976" d="M0 0 C2 1 2 1 2 1 Z"/>
<path transform="translate(84,165)" fill="#304A7B" d="M0 0 C2 1 2 1 2 1 Z"/>
<path transform="translate(213,164)" fill="#284E7C" d="M0 0 C2 1 2 1 2 1 Z"/>
<path transform="translate(165,164)" fill="#2A4D7F" d="M0 0 C2 1 2 1 2 1 Z"/>
<path transform="translate(49,164)" fill="#284E7F" d="M0 0 C2 1 2 1 2 1 Z"/>
<path transform="translate(78,162)" fill="#2A4C80" d="M0 0 C2 1 2 1 2 1 Z"/>
<path transform="translate(0,0)" fill="#2D4D77" d=""/>
<path transform="translate(0,0)" fill="#2D4D75" d=""/>
<path transform="translate(0,0)" fill="#2E4B7D" d=""/>
<path transform="translate(0,0)" fill="#2A4D7F" d=""/>
<path transform="translate(0,0)" fill="#314B78" d=""/>
<path transform="translate(0,0)" fill="#2D4D76" d=""/>
<path transform="translate(0,0)" fill="#2D4B82" d=""/>
<path transform="translate(0,0)" fill="#2D4B82" d=""/>
<path transform="translate(64,151)" fill="#324B73" d="M0 0 C2 1 2 1 2 1 Z"/>
<path transform="translate(0,0)" fill="#2D4B80" d=""/>
<path transform="translate(61,150)" fill="#2E4B7D" d="M0 0 C2 1 2 1 2 1 Z"/>
<path transform="translate(91,149)" fill="#31497E" d="M0 0 C2 1 2 1 2 1 Z"/>
<path transform="translate(0,0)" fill="#2D4B7F" d=""/>
<path transform="translate(0,0)" fill="#2C4C7F" d=""/>
<path transform="translate(88,147)" fill="#2E4B7E" d="M0 0 C2 1 2 1 2 1 Z"/>
<path transform="translate(0,0)" fill="#2D4C7B" d=""/>
<path transform="translate(0,0)" fill="#2F4B79" d=""/>
<path transform="translate(202,143)" fill="#2B4D79" d="M0 0 C2 1 2 1 2 1 Z"/>
<path transform="translate(154,143)" fill="#2A4D7B" d="M0 0 C2 1 2 1 2 1 Z"/>
<path transform="translate(200,142)" fill="#2A4D7B" d="M0 0 C2 1 2 1 2 1 Z"/>
<path transform="translate(152,142)" fill="#2A4D7D" d="M0 0 C2 1 2 1 2 1 Z"/>
<path transform="translate(0,0)" fill="#2F4D72" d=""/>
<path transform="translate(198,141)" fill="#2C4D78" d="M0 0 C2 1 2 1 2 1 Z"/>
<path transform="translate(150,141)" fill="#2C4D76" d="M0 0 C2 1 2 1 2 1 Z"/>
<path transform="translate(193,139)" fill="#2C4D7A" d="M0 0 C2 1 2 1 2 1 Z"/>
<path transform="translate(145,139)" fill="#2C4C7C" d="M0 0 C2 1 2 1 2 1 Z"/>
<path transform="translate(0,0)" fill="#284E7F" d=""/>
<path transform="translate(0,0)" fill="#274D83" d=""/>
<path transform="translate(191,138)" fill="#2A4C80" d="M0 0 C2 1 2 1 2 1 Z"/>
<path transform="translate(143,138)" fill="#2C4B82" d="M0 0 C2 1 2 1 2 1 Z"/>
<path transform="translate(189,137)" fill="#215180" d="M0 0 C2 1 2 1 2 1 Z"/>
<path transform="translate(0,0)" fill="#2A4D7D" d=""/>
<path transform="translate(141,137)" fill="#274E7E" d="M0 0 C2 1 2 1 2 1 Z"/>
<path transform="translate(7,137)" fill="#264F7C" d="M0 0 C2 1 2 1 2 1 Z"/>
<path transform="translate(249,136)" fill="#294F76" d="M0 0 C2 1 2 1 2 1 Z"/>
<path transform="translate(0,0)" fill="#314A7B" d=""/>
<path transform="translate(187,136)" fill="#294E7A" d="M0 0 C2 1 2 1 2 1 Z"/>
<path transform="translate(5,136)" fill="#294D7F" d="M0 0 C2 1 2 1 2 1 Z"/>
<path transform="translate(185,135)" fill="#2E4C7A" d="M0 0 C2 1 2 1 2 1 Z"/>
<path transform="translate(0,0)" fill="#2E4B7F" d=""/>
<path transform="translate(0,0)" fill="#314788" d=""/>
<path transform="translate(183,134)" fill="#294D80" d="M0 0 C2 1 2 1 2 1 Z"/>
<path transform="translate(0,0)" fill="#2E4C78" d=""/>
<path transform="translate(214,130)" fill="#294D7D" d="M0 0 C2 1 2 1 2 1 Z"/>
<path transform="translate(166,130)" fill="#2A4D7E" d="M0 0 C2 1 2 1 2 1 Z"/>
<path transform="translate(164,129)" fill="#2A4D7F" d="M0 0 C2 1 2 1 2 1 Z"/>
<path transform="translate(0,0)" fill="#284D80" d=""/>
<path transform="translate(0,0)" fill="#274D81" d=""/>
<path transform="translate(162,128)" fill="#2C4D7A" d="M0 0 C2 1 2 1 2 1 Z"/>
<path transform="translate(0,0)" fill="#284E7F" d=""/>
<path transform="translate(160,127)" fill="#2C4C7C" d="M0 0 C2 1 2 1 2 1 Z"/>
<path transform="translate(206,126)" fill="#2C4D78" d="M0 0 C2 1 2 1 2 1 Z"/>
<path transform="translate(0,0)" fill="#2C4D79" d=""/>
<path transform="translate(158,126)" fill="#2E4C7B" d="M0 0 C2 1 2 1 2 1 Z"/>
<path transform="translate(0,0)" fill="#2D4C7A" d=""/>
<path transform="translate(204,125)" fill="#33497A" d="M0 0 C2 1 2 1 2 1 Z"/>
<path transform="translate(155,125)" fill="#2A4C7E" d="M0 0 C2 1 2 1 2 1 Z"/>
<path transform="translate(201,124)" fill="#2A4D7D" d="M0 0 C2 1 2 1 2 1 Z"/>
<path transform="translate(153,124)" fill="#2A4E7B" d="M0 0 C2 1 2 1 2 1 Z"/>
<path transform="translate(199,123)" fill="#2A4C80" d="M0 0 C2 1 2 1 2 1 Z"/>
<path transform="translate(151,123)" fill="#294E7C" d="M0 0 C2 1 2 1 2 1 Z"/>
<path transform="translate(84,123)" fill="#2D4B7D" d="M0 0 C2 1 2 1 2 1 Z"/>
<path transform="translate(0,0)" fill="#2C4B84" d=""/>
<path transform="translate(197,122)" fill="#2A4E7A" d="M0 0 C2 1 2 1 2 1 Z"/>
<path transform="translate(149,122)" fill="#2A4E7A" d="M0 0 C2 1 2 1 2 1 Z"/>
<path transform="translate(195,121)" fill="#2A4C7F" d="M0 0 C2 1 2 1 2 1 Z"/>
<path transform="translate(0,0)" fill="#334A76" d=""/>
<path transform="translate(0,0)" fill="#2E4F6C" d=""/>
<path transform="translate(0,0)" fill="#2C4C7E" d=""/>
<path transform="translate(2,120)" fill="#314B76" d="M0 0 C2 1 2 1 2 1 Z"/>
<path transform="translate(0,0)" fill="#2B4D7C" d=""/>
<path transform="translate(0,0)" fill="#2C4C7D" d=""/>
<path transform="translate(0,0)" fill="#2B4D7D" d=""/>
<path transform="translate(0,0)" fill="#2B4F73" d=""/>
<path transform="translate(5,119)" fill="#274E7F" d="M0 0 C2 1 2 1 2 1 Z"/>
<path transform="translate(0,0)" fill="#2E4B7D" d=""/>
<path transform="translate(7,118)" fill="#2A4C81" d="M0 0 C2 1 2 1 2 1 Z"/>
<path transform="translate(0,0)" fill="#2F4A81" d=""/>
<path transform="translate(0,0)" fill="#2A4D7F" d=""/>
<path transform="translate(0,0)" fill="#30497F" d=""/>
<path transform="translate(0,0)" fill="#2D4B7F" d=""/>
<path transform="translate(0,0)" fill="#2A4C81" d=""/>
<path transform="translate(0,0)" fill="#2E4C7A" d=""/>
<path transform="translate(102,114)" fill="#2A4C82" d="M0 0 C2 1 2 1 2 1 Z"/>
<path transform="translate(90,114)" fill="#2B4C7E" d="M0 0 C2 1 2 1 2 1 Z"/>
<path transform="translate(0,0)" fill="#2A4D7E" d=""/>
<path transform="translate(0,0)" fill="#2C4C7C" d=""/>
<path transform="translate(0,0)" fill="#274E78" d=""/>
<path transform="translate(0,0)" fill="#2B4B81" d=""/>
<path transform="translate(0,0)" fill="#2C4D78" d=""/>
<path transform="translate(0,0)" fill="#2E4D76" d=""/>
<path transform="translate(0,0)" fill="#2A4D7E" d=""/>
<path transform="translate(0,0)" fill="#2B4C7D" d=""/>
<path transform="translate(0,0)" fill="#2B4C7D" d=""/>
<path transform="translate(132,103)" fill="#2C4C7D" d="M0 0 C2 1 2 1 2 1 Z"/>
<path transform="translate(0,0)" fill="#374A67" d=""/>
<path transform="translate(80,101)" fill="#2A4D7A" d="M0 0 C2 1 2 1 2 1 Z"/>
<path transform="translate(136,100)" fill="#2B4C7E" d="M0 0 C2 1 2 1 2 1 Z"/>
<path transform="translate(218,99)" fill="#324B73" d="M0 0 C2 1 2 1 2 1 Z"/>
<path transform="translate(186,99)" fill="#2A4E77" d="M0 0 C2 1 2 1 2 1 Z"/>
<path transform="translate(138,99)" fill="#275077" d="M0 0 C2 1 2 1 2 1 Z"/>
<path transform="translate(109,99)" fill="#284D81" d="M0 0 C2 1 2 1 2 1 Z"/>
<path transform="translate(84,99)" fill="#2D4C7A" d="M0 0 C2 1 2 1 2 1 Z"/>
<path transform="translate(189,98)" fill="#304A7B" d="M0 0 C2 1 2 1 2 1 Z"/>
<path transform="translate(141,98)" fill="#2C4C7E" d="M0 0 C2 1 2 1 2 1 Z"/>
<path transform="translate(106,98)" fill="#2F4B7C" d="M0 0 C2 1 2 1 2 1 Z"/>
<path transform="translate(86,98)" fill="#324B75" d="M0 0 C2 1 2 1 2 1 Z"/>
<path transform="translate(199,96)" fill="#324D6B" d="M0 0 C2 1 2 1 2 1 Z"/>
<path transform="translate(223,83)" fill="#2C4B74" d="M0 0 C2 1 2 1 2 1 Z"/>
<path transform="translate(31,83)" fill="#2B4E76" d="M0 0 C2 1 2 1 2 1 Z"/>
<path transform="translate(0,0)" fill="#274C80" d=""/>
<path transform="translate(0,0)" fill="#2D4C7C" d=""/>
<path transform="translate(0,0)" fill="#284B7C" d=""/>
<path transform="translate(0,0)" fill="#2F4B79" d=""/>
<path transform="translate(0,0)" fill="#2A4C77" d=""/>
<path transform="translate(234,70)" fill="#2B4D7A" d="M0 0 C2 1 2 1 2 1 Z"/>
<path transform="translate(232,69)" fill="#2A4D7E" d="M0 0 C2 1 2 1 2 1 Z"/>
<path transform="translate(21,69)" fill="#294B87" d="M0 0 C2 1 2 1 2 1 Z"/>
<path transform="translate(230,68)" fill="#2A4D7F" d="M0 0 C2 1 2 1 2 1 Z"/>
<path transform="translate(23,68)" fill="#294C82" d="M0 0 C2 1 2 1 2 1 Z"/>
<path transform="translate(0,0)" fill="#2B4C7F" d=""/>
<path transform="translate(0,0)" fill="#2F4B7F" d=""/>
<path transform="translate(0,0)" fill="#2A4D7F" d=""/>
<path transform="translate(0,0)" fill="#2D4B7F" d=""/>
<path transform="translate(0,0)" fill="#2A4D81" d=""/>
<path transform="translate(0,0)" fill="#2D4B7F" d=""/>
<path transform="translate(0,0)" fill="#2A4D7F" d=""/>
<path transform="translate(0,0)" fill="#2F4B7D" d=""/>
<path transform="translate(0,0)" fill="#2A4D7F" d=""/>
<path transform="translate(0,0)" fill="#304C73" d=""/>
<path transform="translate(0,0)" fill="#2A4C85" d=""/>
<path transform="translate(0,0)" fill="#304B79" d=""/>
<path transform="translate(0,0)" fill="#2A4D81" d=""/>
<path transform="translate(0,0)" fill="#2D4B81" d=""/>
<path transform="translate(0,0)" fill="#354979" d=""/>
<path transform="translate(0,0)" fill="#2F4B7B" d=""/>
<path transform="translate(0,0)" fill="#324B77" d=""/>
<path transform="translate(0,0)" fill="#274E83" d=""/>
<path transform="translate(0,0)" fill="#284D81" d=""/>
<path transform="translate(0,0)" fill="#254F7F" d=""/>
<path transform="translate(0,0)" fill="#2F4B7B" d=""/>
<path transform="translate(0,0)" fill="#274E85" d=""/>
<path transform="translate(0,0)" fill="#2C4A80" d=""/>
<path transform="translate(0,0)" fill="#284F7B" d=""/>
<path transform="translate(0,0)" fill="#2B4D79" d=""/>
<path transform="translate(0,0)" fill="#2D4D79" d=""/>
<path transform="translate(0,0)" fill="#2A4C83" d=""/>
<path transform="translate(0,0)" fill="#2C4A80" d=""/>
<path transform="translate(0,0)" fill="#2D4C7D" d=""/>
<path transform="translate(0,0)" fill="#2B4C7F" d=""/>
<path transform="translate(0,0)" fill="#2B4C7F" d=""/>
<path transform="translate(0,0)" fill="#2E4982" d=""/>
<path transform="translate(0,0)" fill="#2B4C7F" d=""/>
<path transform="translate(0,0)" fill="#2F4C79" d=""/>
<path transform="translate(0,0)" fill="#2B4C81" d=""/>
<path transform="translate(0,0)" fill="#2F4C79" d=""/>
<path transform="translate(0,0)" fill="#2A4D7F" d=""/>
<path transform="translate(0,0)" fill="#304B77" d=""/>
<path transform="translate(0,0)" fill="#2D4B83" d=""/>
<path transform="translate(0,0)" fill="#2F4B7B" d=""/>
<path transform="translate(0,0)" fill="#2D4C7B" d=""/>
<path transform="translate(0,0)" fill="#304B77" d=""/>
<path transform="translate(0,0)" fill="#334A77" d=""/>
<path transform="translate(0,0)" fill="#2A4D81" d=""/>
<path transform="translate(0,0)" fill="#304983" d=""/>
<path transform="translate(0,0)" fill="#2F4C79" d=""/>
<path transform="translate(0,0)" fill="#2A4B87" d=""/>
<path transform="translate(0,0)" fill="#2D4A85" d=""/>
<path transform="translate(0,0)" fill="#2F4B7B" d=""/>
<path transform="translate(0,0)" fill="#2D4C7B" d=""/>
<path transform="translate(0,0)" fill="#2F4B7D" d=""/>
<path transform="translate(0,0)" fill="#2B4D7D" d=""/>
<path transform="translate(0,0)" fill="#2D4D77" d=""/>
<path transform="translate(0,0)" fill="#2D4C7D" d=""/>
<path transform="translate(0,0)" fill="#2D4B7F" d=""/>
<path transform="translate(0,0)" fill="#2A4D7D" d=""/>
<path transform="translate(0,0)" fill="#2A4D7F" d=""/>
<path transform="translate(0,0)" fill="#2B4C7F" d=""/>
<path transform="translate(0,0)" fill="#2B4D7D" d=""/>
<path transform="translate(0,0)" fill="#304C75" d=""/>
<path transform="translate(0,0)" fill="#2F4A81" d=""/>
<path transform="translate(0,0)" fill="#284F7B" d=""/>
<path transform="translate(0,0)" fill="#2D4C7B" d=""/>
<path transform="translate(0,0)" fill="#2F4D75" d=""/>
<path transform="translate(0,0)" fill="#2F4A83" d=""/>
<path transform="translate(0,0)" fill="#284F77" d=""/>
<path transform="translate(0,0)" fill="#284E7F" d=""/>
<path transform="translate(0,0)" fill="#2D4B81" d=""/>
<path transform="translate(0,0)" fill="#2A4D7F" d=""/>
<path transform="translate(0,0)" fill="#2A4D7D" d=""/>
<path transform="translate(0,0)" fill="#2B4D7D" d=""/>
<path transform="translate(0,0)" fill="#2F4B7B" d=""/>
<path transform="translate(0,0)" fill="#2A4C83" d=""/>
<path transform="translate(0,0)" fill="#2D4C7B" d=""/>
<path transform="translate(0,0)" fill="#284E7D" d=""/>
<path transform="translate(0,0)" fill="#2F4C79" d=""/>
<path transform="translate(0,0)" fill="#304A7D" d=""/>
<path transform="translate(0,0)" fill="#2A4D81" d=""/>
<path transform="translate(0,0)" fill="#2D4C7B" d=""/>
<path transform="translate(0,0)" fill="#284F7B" d=""/>
<path transform="translate(0,0)" fill="#2F4C77" d=""/>
<path transform="translate(0,0)" fill="#304A7D" d=""/>
<path transform="translate(0,0)" fill="#2D4C7B" d=""/>
<path transform="translate(0,0)" fill="#2F4C77" d=""/>
<path transform="translate(0,0)" fill="#2D4C7D" d=""/>
<path transform="translate(0,0)" fill="#2B4D7D" d=""/>
<path transform="translate(0,0)" fill="#2A4D7D" d=""/>
<path transform="translate(0,0)" fill="#2A4D7F" d=""/>
<path transform="translate(0,0)" fill="#2B4D7D" d=""/>
<path transform="translate(0,0)" fill="#284E7F" d=""/>
<path transform="translate(0,0)" fill="#2B4D79" d=""/>
<path transform="translate(0,0)" fill="#284E7F" d=""/>
<path transform="translate(0,0)" fill="#255177" d=""/>
<path transform="translate(0,0)" fill="#2B4D7D" d=""/>
<path transform="translate(0,0)" fill="#2A4D7F" d=""/>
<path transform="translate(0,0)" fill="#284E7F" d=""/>
<path transform="translate(0,0)" fill="#2B4D7D" d=""/>
<path transform="translate(0,0)" fill="#304A7F" d=""/>
<path transform="translate(0,0)" fill="#2D4C7B" d=""/>
<path transform="translate(0,0)" fill="#324981" d=""/>
<path transform="translate(0,0)" fill="#2B4C81" d=""/>
<path transform="translate(0,0)" fill="#2B4D7D" d=""/>
<path transform="translate(0,0)" fill="#2D4B7F" d=""/>
<path transform="translate(0,0)" fill="#2D4B7F" d=""/>
<path transform="translate(0,0)" fill="#2B4B85" d=""/>
<path transform="translate(0,0)" fill="#284E7F" d=""/>
<path transform="translate(0,0)" fill="#2A4E7B" d=""/>
<path transform="translate(0,0)" fill="#384A68" d=""/>
<path transform="translate(0,0)" fill="#2B4C7F" d=""/>
<path transform="translate(0,0)" fill="#2B4D79" d=""/>
<path transform="translate(0,0)" fill="#2D4C7D" d=""/>
<path transform="translate(0,0)" fill="#2D4C7D" d=""/>
<path transform="translate(0,0)" fill="#2B4B87" d=""/>
<path transform="translate(0,0)" fill="#264F77" d=""/>
<path transform="translate(0,0)" fill="#2D4B7F" d=""/>
<path transform="translate(0,0)" fill="#2B4D7D" d=""/>
<path transform="translate(0,0)" fill="#2A4D7F" d=""/>
<path transform="translate(0,0)" fill="#2B4C81" d=""/>
<path transform="translate(0,0)" fill="#2A4D7D" d=""/>
<path transform="translate(0,0)" fill="#2A4D7F" d=""/>
<path transform="translate(0,0)" fill="#2A4D7F" d=""/>
<path transform="translate(0,0)" fill="#2B4C81" d=""/>
<path transform="translate(0,0)" fill="#2A4D7D" d=""/>
<path transform="translate(0,0)" fill="#284D83" d=""/>
<path transform="translate(0,0)" fill="#2B4C81" d=""/>
<path transform="translate(0,0)" fill="#2D4C7B" d=""/>
<path transform="translate(0,0)" fill="#2A4D7F" d=""/>
<path transform="translate(0,0)" fill="#304D7A" d=""/>
<path transform="translate(0,0)" fill="#2D4C7D" d=""/>
<path transform="translate(0,0)" fill="#2B4D79" d=""/>
<path transform="translate(0,0)" fill="#2D4F76" d=""/>
<path transform="translate(0,0)" fill="#2B4C81" d=""/>
<path transform="translate(0,0)" fill="#2D4B7F" d=""/>
<path transform="translate(0,0)" fill="#2B4F71" d=""/>
<path transform="translate(0,0)" fill="#2D5074" d=""/>
<path transform="translate(0,0)" fill="#2B4D7D" d=""/>
<path transform="translate(0,0)" fill="#2B4C81" d=""/>
<path transform="translate(0,0)" fill="#334B71" d=""/>
<path transform="translate(0,0)" fill="#324B73" d=""/>
<path transform="translate(0,0)" fill="#284E7D" d=""/>
<path transform="translate(0,0)" fill="#2B4D7B" d=""/>
<path transform="translate(0,0)" fill="#2A4E7B" d=""/>
<path transform="translate(0,0)" fill="#274D7B" d=""/>
<path transform="translate(0,0)" fill="#2A4E7B" d=""/>
<path transform="translate(0,0)" fill="#2C4B79" d=""/>
<path transform="translate(0,0)" fill="#304981" d=""/>
<path transform="translate(0,0)" fill="#2F4A83" d=""/>
<path transform="translate(0,0)" fill="#2D4B83" d=""/>
<path transform="translate(0,0)" fill="#2A4C77" d=""/>
<path transform="translate(0,0)" fill="#2D4B83" d=""/>
<path transform="translate(0,0)" fill="#2A4C79" d=""/>
<path transform="translate(0,0)" fill="#2D4B83" d=""/>
<path transform="translate(0,0)" fill="#2B4D7B" d=""/>
<path transform="translate(0,0)" fill="#2D4C7D" d=""/>
</svg>