<?xml version="1.0" encoding="UTF-8"?>
<svg version="1.1" xmlns="http://www.w3.org/2000/svg" width="2560" height="1919">
<path d="M0 0 C0.91546474 -0.00282738 1.83092949 -0.00565475 2.77413559 -0.00856781 C7.63783792 -0.02343715 12.50151164 -0.03273858 17.36523438 -0.03710938 C21.28557866 -0.04145129 25.20569756 -0.05519312 29.12597656 -0.078125 C49.73943003 -0.19610669 70.24332585 -0.01525956 90.8046875 1.57421875 C91.99637228 1.66634014 91.99637228 1.66634014 93.2121315 1.76032257 C181.2703792 8.74700345 272.52468692 29.71266786 417 136.3359375 C419.14109847 138.90679051 421.17671919 141.5234782 423.1796875 144.203125 C424.04159166 145.32427641 424.90357617 146.44536606 425.765625 147.56640625 C432.94621787 157.02123426 439.22792035 166.9374012 445.1796875 177.203125 C445.57397949 177.87504883 445.96827148 178.54697266 446.37451172 179.23925781 C470.15438834 220.18729269 477.40447314 268.6139244 477.4296875 315.265625 C477.43069962 316.94510223 477.43069962 316.94510223 477.43173218 318.6585083 C477.41571735 335.3842782 476.89533281 351.66815681 474.1796875 368.203125 C474.00808105 369.31059082 473.83647461 370.41805664 473.65966797 371.55908203 C467.70369903 409.62086386 456.78381362 446.96011988 441.1796875 482.203125 C440.76928223 483.13914551 440.35887695 484.07516602 439.93603516 485.03955078 C419.81116496 530.71188866 393.50368455 573.35450581 362.1796875 612.203125 C361.42171875 613.14414062 360.66375 614.08515625 359.8828125 615.0546875 C357.66437076 617.7844722 355.42782029 620.49774486 353.1796875 623.203125 C352.75719727 623.71198242 352.33470703 624.22083984 351.89941406 624.74511719 C345.70165763 632.19238477 339.31855921 639.4220857 332.72143555 646.51782227 C331.58045688 647.76503933 330.45384154 649.02543017 329.33520508 650.29272461 C323.13411048 657.2993237 316.60202803 663.93389993 309.97729492 670.53588867 C308.11325506 672.39454608 306.25465238 674.25852114 304.39648438 676.12304688 C298.49139084 682.03144092 292.55145456 687.79436473 286.1796875 693.203125 C284.40398529 694.82280317 282.63260443 696.44724218 280.8671875 698.078125 C275.46498609 702.99930847 269.86738852 707.61814153 264.1796875 712.203125 C262.94963734 713.21246594 261.7205254 714.22295098 260.4921875 715.234375 C227.50921058 742.33818633 191.76571679 765.9781601 154.1796875 786.203125 C153.22304199 786.72100586 152.26639648 787.23888672 151.28076172 787.77246094 C93.10422761 819.11588063 29.16209916 840.34805565 -34.8203125 856.203125 C-35.62112244 856.40252686 -36.42193237 856.60192871 -37.24700928 856.80737305 C-86.03617593 868.92801801 -135.69998678 877.21219066 -185.8203125 881.203125 C-187.10824707 881.30753906 -188.39618164 881.41195312 -189.72314453 881.51953125 C-257.34249868 886.7676501 -329.81396481 885.53690179 -394.8203125 864.203125 C-395.71943359 863.91244141 -396.61855469 863.62175781 -397.54492188 863.32226562 C-434.3767855 851.2405609 -467.92426324 831.40602141 -496.4921875 805.30859375 C-498.54461233 803.45245787 -500.63876959 801.66941508 -502.7578125 799.890625 C-523.10940899 782.03189475 -543.80216158 753.53305549 -546.1015625 725.8125 C-546.25926437 719.95124709 -546.35577507 716.08020702 -542.8203125 711.203125 C-539.36875626 708.17249025 -537.17895239 706.33376345 -532.5703125 705.890625 C-525.67300045 706.465401 -521.41884477 711.34628756 -516.85546875 716.11328125 C-515.71319358 717.28089542 -514.57060465 718.4482027 -513.42773438 719.61523438 C-511.66680844 721.42517603 -509.90927832 723.23813276 -508.15795898 725.05737305 C-496.12131665 737.52934318 -482.94820966 747.67782888 -467.8203125 756.203125 C-467.03221191 756.64769043 -466.24411133 757.09225586 -465.43212891 757.55029297 C-382.09602834 803.97220791 -284.47383439 800.44839897 -116.05934143 767.04966736 C-54.40833942 749.38641949 6.33788065 726.02568236 61.80175781 693.58154297 C64.58740103 691.9667851 67.4039852 690.41501892 70.22753906 688.86791992 C100.13913949 672.40881059 128.59718124 652.60182381 155.1796875 631.203125 C155.81616211 630.69281738 156.45263672 630.18250977 157.10839844 629.65673828 C170.59774234 618.83037125 183.76625547 607.71153661 196.38574219 595.87939453 C198.3431384 594.05039584 200.31198069 592.2341742 202.28125 590.41796875 C211.10011131 582.24824444 219.51253029 573.83288428 227.59814453 564.9375 C229.1132057 563.27603125 230.64145229 561.6280446 232.17578125 559.984375 C237.23286174 554.55372085 242.09680314 549.01124137 246.74609375 543.2265625 C248.54938118 540.98620219 250.36816658 538.76545095 252.20703125 536.5546875 C260.04085438 527.09938209 267.2565708 517.34103549 274.1796875 507.203125 C274.66791992 506.49462402 275.15615234 505.78612305 275.65917969 505.05615234 C303.46451946 464.63118407 326.74071257 418.9646618 335.1796875 370.203125 C335.41872803 368.83244873 335.41872803 368.83244873 335.66259766 367.43408203 C339.61368881 343.66649869 340.05619713 318.85928144 335.1796875 295.203125 C334.93822998 294.02049072 334.93822998 294.02049072 334.69189453 292.81396484 C330.92388639 275.16839356 324.25919875 257.57019835 313.1796875 243.203125 C312.45910156 242.26339844 311.73851562 241.32367188 310.99609375 240.35546875 C293.46291225 218.26426779 269.57830655 202.9229208 244.1796875 191.203125 C243.02291504 190.66606934 243.02291504 190.66606934 241.84277344 190.11816406 C202.27247928 171.94829183 158.85801327 163.29679354 115.7421875 158.890625 C114.94823578 158.80922272 114.15428406 158.72782043 113.33627319 158.64395142 C92.92809892 156.58787728 72.62415248 155.99629249 52.1171875 156.015625 C50.92793671 156.01622925 49.73868591 156.0168335 48.51339722 156.01745605 C28.98964595 156.04428181 9.63420306 156.50445496 -9.8203125 158.203125 C-10.92493835 158.29787109 -10.92493835 158.29787109 -12.05187988 158.39453125 C-94.16707291 165.4809886 -174.59013384 183.49961365 -252.8203125 209.203125 C-253.60005432 209.45860107 -254.37979614 209.71407715 -255.1831665 209.97729492 C-305.43687318 226.46372387 -354.58776335 246.0184103 -402.41845703 268.6015625 C-405.63034223 270.11368873 -408.84764524 271.61347172 -412.0670166 273.10955811 C-426.38030009 279.76286001 -440.64798388 286.42319483 -454.54296875 293.921875 C-459.1835659 296.4220625 -463.90544476 298.74745476 -468.6328125 301.078125 C-476.5452151 304.99748873 -484.31679305 309.13450591 -492.05053711 313.39453125 C-498.37811699 316.87923756 -504.73904246 320.29418573 -511.12036133 323.67944336 C-523.25228867 330.11915218 -535.19356885 336.82160793 -547.0234375 343.8046875 C-552.76368411 347.18822896 -558.56795708 350.45006248 -564.3828125 353.703125 C-580.99903728 363.03474683 -597.18204994 373.07948102 -613.2578125 383.30859375 C-616.20510739 385.18374768 -619.16239102 387.04062041 -622.1328125 388.87890625 C-660.93582903 412.97157702 -697.99984586 439.90517761 -733.8203125 468.203125 C-734.69429687 468.89148438 -735.56828125 469.57984375 -736.46875 470.2890625 C-741.7129071 474.44705114 -746.84021863 478.72882506 -751.93383789 483.06860352 C-755.35494452 485.97968163 -758.81826694 488.82675433 -762.3203125 491.640625 C-767.69534663 496.01127319 -772.74854952 500.68430887 -777.80859375 505.41015625 C-780.22684426 507.6654295 -782.68885311 509.85822765 -785.1953125 512.015625 C-788.26331929 514.66643421 -791.11339077 517.47216964 -793.95092773 520.36621094 C-795.73342401 522.11774574 -797.57107827 523.74285122 -799.47265625 525.36328125 C-804.14382201 529.42623909 -808.51778424 533.75338286 -812.8828125 538.140625 C-813.64658203 538.90052734 -814.41035156 539.66042969 -815.19726562 540.44335938 C-819.36436991 544.61759301 -823.36180198 548.87763442 -827.2097168 553.34741211 C-829.63226724 556.13865145 -832.1674 558.82020535 -834.6953125 561.515625 C-839.10132397 566.2567724 -843.30906423 571.10042183 -847.359375 576.15234375 C-849.22785141 578.46866134 -851.11646429 580.75764551 -853.03125 583.03515625 C-861.46088829 593.08887495 -869.32903477 603.43239313 -876.8203125 614.203125 C-877.2632666 614.83927734 -877.7062207 615.47542969 -878.16259766 616.13085938 C-885.5652745 626.83530641 -892.27526139 637.9585126 -898.8203125 649.203125 C-899.52655762 650.41162109 -899.52655762 650.41162109 -900.24707031 651.64453125 C-912.2972667 672.41782005 -921.52409205 694.34409089 -928.8203125 717.203125 C-929.23555176 718.48485596 -929.23555176 718.48485596 -929.65917969 719.79248047 C-934.51590158 734.98072112 -937.41423292 750.45664412 -939.8203125 766.203125 C-940.02164795 767.49839111 -940.02164795 767.49839111 -940.22705078 768.81982422 C-947.64343737 818.9821352 -937.74766567 869.7443436 -913.8203125 914.203125 C-913.44438965 914.91484863 -913.0684668 915.62657227 -912.68115234 916.35986328 C-901.04278629 938.34556092 -886.17282509 958.10322527 -870.0703125 977.015625 C-869.62969482 977.53560059 -869.18907715 978.05557617 -868.73510742 978.59130859 C-859.56659481 989.28124077 -849.79102374 999.39916944 -839.81884766 1009.33496094 C-838.05382706 1011.0945598 -836.29430117 1012.85952897 -834.53515625 1014.625 C-829.32416174 1019.83905638 -824.11160468 1024.98614683 -818.49755859 1029.77099609 C-815.92889173 1031.96427118 -813.47930999 1034.27600286 -811.0078125 1036.578125 C-806.4133411 1040.82352978 -801.67917991 1044.8303625 -796.8046875 1048.75390625 C-793.2275462 1051.68959682 -789.74296991 1054.72186873 -786.2578125 1057.765625 C-781.430603 1061.97306836 -776.56347932 1066.09243385 -771.53125 1070.0546875 C-768.69448065 1072.30284765 -765.89059783 1074.58801498 -763.08813477 1076.87866211 C-756.56703352 1082.20589903 -749.99142071 1087.43484764 -743.296875 1092.54296875 C-739.11529676 1095.7337855 -734.96932658 1098.9701551 -730.8203125 1102.203125 C-723.50771456 1107.89715439 -716.17334329 1113.56141339 -708.8203125 1119.203125 C-700.68365912 1125.44608156 -692.57402814 1131.72213727 -684.48266602 1138.02368164 C-680.02359175 1141.49479182 -675.55442934 1144.95194479 -671.0703125 1148.390625 C-660.86031829 1156.23660303 -650.76680224 1164.21085725 -640.79516602 1172.35766602 C-636.39033466 1175.94977422 -631.93477993 1179.46767805 -627.4453125 1182.953125 C-622.51501376 1186.78986382 -617.82972377 1190.80625219 -613.23046875 1195.0390625 C-610.74369831 1197.27191634 -608.17910254 1199.36457402 -605.5703125 1201.453125 C-599.81291717 1206.10804037 -594.44441606 1211.1269429 -589.05078125 1216.19140625 C-586.562755 1218.5241555 -584.0334032 1220.79362964 -581.4453125 1223.015625 C-578.06044999 1225.93236823 -574.94239214 1229.063615 -571.80859375 1232.24609375 C-569.93480208 1234.09043486 -568.00717779 1235.80944566 -566.0078125 1237.515625 C-558.54686003 1243.94849347 -551.56996979 1250.99958241 -545.35546875 1258.64453125 C-543.50339541 1260.52488052 -542.35579071 1261.40016946 -539.8203125 1262.203125 C-536.82955339 1261.19557884 -536.82955339 1261.19557884 -533.67578125 1259.35546875 C-533.07826553 1259.03295639 -532.48074982 1258.71044403 -531.86512756 1258.37815857 C-529.90388273 1257.31429835 -527.95616182 1256.22789521 -526.0078125 1255.140625 C-524.64423922 1254.3947433 -523.27997404 1253.65012518 -521.91503906 1252.90673828 C-512.99366006 1248.03110552 -504.13466735 1243.04002823 -495.30541992 1237.99975586 C-487.12214386 1233.33539623 -478.83226431 1228.88275298 -470.52612305 1224.44189453 C-463.25417419 1220.54304916 -456.05088464 1216.53950575 -448.8828125 1212.453125 C-441.3364279 1208.15117242 -433.73202861 1204.01043477 -426.02172852 1200.01074219 C-419.70607735 1196.71538931 -413.50855497 1193.23107805 -407.3203125 1189.703125 C-400.37995156 1185.74638483 -393.41207496 1181.88186857 -386.3203125 1178.203125 C-379.50130047 1174.66439781 -372.80182307 1170.95414569 -366.1328125 1167.140625 C-356.11523255 1161.41825399 -345.95755327 1155.99315015 -335.75375366 1150.61361694 C-325.8208072 1145.37350781 -315.98252303 1140.0071702 -306.25 1134.40039062 C-290.23767106 1125.203125 -290.23767106 1125.203125 -286.8203125 1125.203125 C-286.47806641 1124.16671875 -286.47806641 1124.16671875 -286.12890625 1123.109375 C-284.52745906 1119.55272812 -282.31687044 1116.71322645 -279.8828125 1113.703125 C-279.39844727 1113.09581543 -278.91408203 1112.48850586 -278.41503906 1111.86279297 C-273.34192157 1105.53695279 -268.10869795 1099.34931155 -262.8203125 1093.203125 C-262.21832031 1092.49929688 -261.61632812 1091.79546875 -260.99609375 1091.0703125 C-249.42125413 1077.67376688 -237.25353687 1064.27453423 -223.71875 1052.82421875 C-221.49131217 1050.9221885 -219.35008279 1048.9370478 -217.1953125 1046.953125 C-211.537716 1041.85002494 -205.57451079 1037.18903873 -199.54345703 1032.54101562 C-197.97632137 1031.32425401 -196.42657737 1030.08517544 -194.87890625 1028.84375 C-152.18696143 994.96305877 -99.15186736 966.0191619 -43.0625 971.47119141 C-25.82156123 973.98549498 -8.65823596 983.3081677 2.40234375 996.7890625 C14.58891801 1013.34137655 20.51330145 1031.93859105 23.1796875 1052.203125 C23.45425781 1054.13091797 23.45425781 1054.13091797 23.734375 1056.09765625 C24.5324209 1063.57634988 24.42071695 1071.12764986 24.4296875 1078.640625 C24.43169159 1079.45527222 24.43369568 1080.26991943 24.4357605 1081.10925293 C24.44396755 1094.78253855 23.51407972 1108.07388429 21.54345703 1121.61914062 C21.00106803 1125.47192265 20.5896642 1129.33421871 20.1796875 1133.203125 C21.06269531 1132.52765625 21.94570312 1131.8521875 22.85546875 1131.15625 C35.80398964 1121.43578157 46.85034076 1117.28982173 63.1796875 1119.203125 C76.59343836 1121.6085264 91.60765549 1127.16658098 99.8671875 1138.5234375 C106.9209875 1149.612825 106.99838739 1159.15938955 104.41235352 1172.01879883 C103.44595602 1176.11475573 102.34600237 1180.17374966 101.2421875 1184.234375 C100.83662496 1185.76358325 100.43219355 1187.29309187 100.02880859 1188.82287598 C98.97078545 1192.82331269 97.89792096 1196.81961236 96.82147217 1200.81512451 C95.78756098 1204.66217874 94.76722648 1208.51281949 93.74609375 1212.36328125 C92.09930585 1218.56583131 90.44491926 1224.76630735 88.78491211 1230.96533203 C48.62480838 1358.2127941 48.62480838 1358.2127941 40.1796875 1497.203125 C45.55089892 1493.10538168 49.09320694 1488.87201188 52.48046875 1483.0546875 C52.94713455 1482.27139069 53.41380035 1481.48809387 53.89460754 1480.68106079 C59.09349821 1471.84193292 63.75423276 1462.73230972 68.3671875 1453.578125 C69.28076638 1451.7775052 70.19483732 1449.97713497 71.109375 1448.17700195 C73.38468936 1443.69316166 75.65043972 1439.20456875 77.9130249 1434.71429443 C79.10139405 1432.35834243 80.29319204 1430.00417191 81.48681641 1427.65087891 C90.13228817 1410.60368276 98.46441248 1393.4462395 106.41357422 1376.06054688 C108.36862015 1371.78576455 110.33878111 1367.51799277 112.30859375 1363.25 C120.16037994 1346.22718556 127.92395739 1329.16871948 135.56497192 1312.05010986 C138.95109839 1304.4684243 142.36492186 1296.89920123 145.77536011 1289.32843018 C158.72544993 1260.57700537 171.59511449 1231.79046484 184.38647461 1202.96807861 C190.39903933 1189.42244068 196.45889906 1175.89899307 202.5546875 1162.390625 C208.38328429 1149.47147812 214.14122082 1136.52501524 219.7980957 1123.52978516 C223.01740131 1116.13617951 226.25890855 1108.75312147 229.53125 1101.3828125 C239.08549302 1079.8567761 248.48880178 1058.2726954 257.73535156 1036.61254883 C258.60349461 1034.57892983 259.47165832 1032.54531965 260.33984375 1030.51171875 C260.75861786 1029.53066666 261.17739197 1028.54961456 261.6088562 1027.53883362 C264.6566114 1020.4068636 267.74746845 1013.2946633 270.85864258 1006.19018555 C273.33108654 1000.54155367 275.76598299 994.87709041 278.1796875 989.203125 C278.55834961 988.31657227 278.93701172 987.43001953 279.32714844 986.51660156 C287.85830983 966.26586493 292.9276501 944.71449769 298.453125 923.49609375 C298.81243512 922.12359955 299.17180871 920.75112196 299.53125 919.37866211 C300.19673574 916.83654246 300.84815655 914.29216449 301.4921875 911.74438477 C305.91044464 894.71368435 305.91044464 894.71368435 314.54296875 889.5703125 C340.59527551 876.06170899 372.53731175 874.97591677 401.3046875 874.828125 C402.11309082 874.82017914 402.92149414 874.81223328 403.75439453 874.80404663 C422.38024227 874.66300637 443.90090563 875.65577293 458.1796875 889.203125 C462.67705965 894.02525269 464.72788489 897.48250895 465.1796875 904.203125 C464.58564811 907.31828428 463.57634942 910.24824008 462.53125 913.23828125 C462.24333588 914.10150497 461.95542175 914.9647287 461.65878296 915.85411072 C461.04075491 917.7026463 460.41617465 919.54900194 459.78564453 921.39331055 C458.46072065 925.27278528 457.17122769 929.16371938 455.88006592 933.05453491 C455.23092871 935.01014465 454.5802532 936.96524445 453.92803955 938.91983032 C437.45716826 988.30988999 428.92897168 1035.16898508 436.1796875 1087.203125 C436.36432652 1088.57365555 436.54838675 1089.94426416 436.73193359 1091.31494141 C439.66249047 1114.67523736 439.66249047 1114.67523736 446.1796875 1137.203125 C446.52177246 1138.08758301 446.86385742 1138.97204102 447.21630859 1139.88330078 C453.37267845 1155.49788186 460.60562125 1170.58139847 468.0480957 1185.61328125 C468.38857941 1186.30365479 468.72906311 1186.99402832 469.0798645 1187.70532227 C469.72333957 1189.00839561 470.37029557 1190.30975752 471.02120972 1191.60913086 C473.1796875 1195.98019889 473.1796875 1195.98019889 473.1796875 1198.203125 C473.8396875 1198.203125 474.4996875 1198.203125 475.1796875 1198.203125 C475.43911133 1197.49712158 475.69853516 1196.79111816 475.96582031 1196.0637207 C477.27298175 1192.98326805 478.84602799 1190.2822971 480.6015625 1187.43359375 C481.29008301 1186.31001465 481.97860352 1185.18643555 482.68798828 1184.02880859 C483.23570892 1183.1401712 483.23570892 1183.1401712 483.79449463 1182.23358154 C485.73723758 1179.07958813 487.66559255 1175.91683078 489.59375 1172.75390625 C490.17955338 1171.79339355 490.17955338 1171.79339355 490.77719116 1170.81347656 C496.7311626 1161.03322872 502.45164394 1151.1167398 508.1796875 1141.203125 C509.42829126 1139.04812252 510.67699135 1136.89317586 511.92578125 1134.73828125 C519.54404524 1121.57733256 527.08701906 1108.37560838 534.53955078 1095.12011719 C535.65671838 1093.13322845 536.77492418 1091.14692319 537.89404297 1089.16113281 C545.40535796 1075.83142962 552.80214356 1062.44672469 560.05859375 1048.9765625 C562.00479284 1045.36620483 563.9676389 1041.76641773 565.95703125 1038.1796875 C606.29701849 965.4750259 606.29701849 965.4750259 632.42974854 887.01196289 C635.04146353 875.59159667 637.99578265 864.31639211 641.3046875 853.078125 C641.50461304 852.39186035 641.70453857 851.7055957 641.91052246 850.99853516 C644.12183257 843.43642871 646.52186586 835.94378282 649.171875 828.5234375 C649.39722931 827.86342743 649.62258362 827.20341736 649.85476685 826.52340698 C652.91606052 818.20427998 659.06502389 814.62838802 666.67578125 811.01953125 C700.84188851 796.45469668 756.1798346 791.88456064 791.53515625 804.98828125 C798.97167555 808.40446663 804.48373551 812.84610963 809.21875 819.50390625 C812.50892401 828.74581781 808.76110946 837.46857366 805.56552124 846.19863892 C804.14745797 850.08163769 802.78810798 853.98524774 801.421875 857.88671875 C801.00590309 859.06919441 801.00590309 859.06919441 800.58152771 860.27555847 C781.13732763 915.76366163 775.10152025 967.25193861 783.86657715 1025.12835693 C784.14973845 1027.00467314 784.42356731 1028.88239191 784.69628906 1030.76025391 C787.81493016 1051.90543509 795.02584024 1070.98432171 804.1796875 1090.203125 C804.6732373 1091.24903809 805.16678711 1092.29495117 805.67529297 1093.37255859 C812.66350454 1108.16017077 819.9404441 1122.78808064 827.4296875 1137.328125 C827.80375732 1138.05502533 828.17782715 1138.78192566 828.56323242 1139.53085327 C829.62548864 1141.59224079 830.69084865 1143.6519833 831.7578125 1145.7109375 C832.07490173 1146.32521103 832.39199097 1146.93948456 832.71868896 1147.57237244 C834.09781179 1150.22274047 835.51952026 1152.71287415 837.1796875 1155.203125 C837.74437744 1154.93274414 838.30906738 1154.66236328 838.89086914 1154.38378906 C919.74429464 1115.91977286 1009.32581428 1098.04544463 1098.8046875 1102.953125 C1099.59549713 1102.99635895 1100.38630676 1103.0395929 1101.20108032 1103.08413696 C1181.47996914 1107.60160668 1264.29143969 1132.03675919 1326.1796875 1185.203125 C1327.22403357 1186.06529033 1328.26968347 1186.92587795 1329.31640625 1187.78515625 C1343.16321639 1199.25971589 1356.21345081 1211.92828939 1367.1796875 1226.203125 C1368.04030141 1227.2651878 1368.90375343 1228.32495501 1369.76953125 1229.3828125 C1380.79947151 1242.95602158 1390.02974015 1257.74418494 1398.1796875 1273.203125 C1398.72423584 1274.2250293 1398.72423584 1274.2250293 1399.27978516 1275.26757812 C1424.95216997 1324.14363143 1431.68135804 1382.65442619 1415.90625 1435.5703125 C1401.97336356 1479.5176455 1366.85337122 1514.41223225 1326.74267578 1535.53222656 C1315.92356171 1540.99266629 1304.84996463 1545.27981529 1292.6171875 1545.453125 C1291.52277344 1545.47890625 1290.42835938 1545.5046875 1289.30078125 1545.53125 C1285.80513909 1545.1637482 1283.97877961 1544.28990335 1281.1796875 1542.203125 C1278.89206576 1538.28148773 1278.6307905 1534.67271488 1279.1796875 1530.203125 C1283.32694023 1523.92861764 1289.37222103 1520.5099455 1295.6171875 1516.515625 C1330.06583915 1493.94723627 1357.92010886 1464.82222633 1367.0546875 1423.453125 C1374.51017686 1385.13757211 1362.12625822 1344.43734783 1340.94042969 1312.32470703 C1332.64751474 1300.11516136 1323.29297044 1288.92617941 1313.1796875 1278.203125 C1312.48875 1277.46964844 1311.7978125 1276.73617188 1311.0859375 1275.98046875 C1305.83902825 1270.57228156 1300.12647993 1265.81886642 1294.1796875 1261.203125 C1293.51565918 1260.68443848 1292.85163086 1260.16575195 1292.16748047 1259.63134766 C1280.12245754 1250.29058486 1267.62240929 1242.37601165 1254.1796875 1235.203125 C1253.47247559 1234.82462402 1252.76526367 1234.44612305 1252.03662109 1234.05615234 C1247.47693496 1231.64115391 1242.85798712 1229.3786979 1238.1796875 1227.203125 C1237.43944336 1226.85717285 1236.69919922 1226.5112207 1235.93652344 1226.15478516 C1185.95310931 1203.08790522 1130.75281986 1193.82750784 1076.1796875 1190.203125 C1075.33567383 1190.14527832 1074.49166016 1190.08743164 1073.62207031 1190.02783203 C1003.4588372 1185.40424784 930.389669 1194.21748601 865.1796875 1221.203125 C865.48148926 1222.09169189 865.78329102 1222.98025879 866.09423828 1223.89575195 C872.60377306 1243.14558582 878.42642664 1262.19566299 882.1796875 1282.203125 C882.44217285 1283.51917725 882.44217285 1283.51917725 882.70996094 1284.86181641 C887.28136662 1308.19408997 887.42556541 1334.21409538 881.1796875 1357.203125 C880.68855469 1359.08257813 880.68855469 1359.08257813 880.1875 1361 C875.32167655 1377.26676743 867.33599313 1393.60056796 857.1796875 1407.203125 C856.46167969 1408.20214844 855.74367188 1409.20117188 855.00390625 1410.23046875 C850.72927802 1416.08501139 846.20562162 1421.57784585 841.29296875 1426.90625 C839.39472318 1428.96940784 837.56258137 1431.07151625 835.7421875 1433.203125 C815.20071844 1456.74022496 789.01312474 1475.52446537 762.1796875 1491.203125 C761.41350098 1491.6554248 760.64731445 1492.10772461 759.85791016 1492.57373047 C740.58362241 1503.87355744 719.98077499 1511.90369451 699.10809326 1519.70907593 C697.47674276 1520.31916848 695.84637032 1520.93188424 694.21710205 1521.54751587 C669.41462977 1530.88618587 644.40144947 1536.80425405 618.859375 1526.91796875 C611.49570736 1523.53746148 605.83951528 1518.95407702 600.1796875 1513.203125 C599.59316406 1512.6153125 599.00664063 1512.0275 598.40234375 1511.421875 C585.05821353 1497.02515436 583.35837042 1475.8390417 584.00927734 1457.14550781 C587.59571806 1395.22031648 622.42198683 1339.54797752 661.1796875 1293.203125 C661.62006348 1292.67638184 662.06043945 1292.14963867 662.51416016 1291.60693359 C673.60115645 1278.39123401 685.38232266 1265.92251332 697.5546875 1253.703125 C698.80282227 1252.44798096 698.80282227 1252.44798096 700.07617188 1251.16748047 C704.95062434 1246.30571173 709.94850897 1241.67644824 715.1796875 1237.203125 C716.51152571 1236.04033155 717.84225478 1234.8762665 719.171875 1233.7109375 C720.46598008 1232.58314311 721.76025023 1231.4555381 723.0546875 1230.328125 C723.71726562 1229.74804688 724.37984375 1229.16796875 725.0625 1228.5703125 C725.69671875 1228.01859375 726.3309375 1227.466875 726.984375 1226.8984375 C727.55140137 1226.40359863 728.11842773 1225.90875977 728.70263672 1225.39892578 C730.1796875 1224.203125 730.1796875 1224.203125 732.1796875 1223.203125 C731.5976204 1219.68985144 730.69012178 1216.87299921 729.0625 1213.7109375 C728.62631348 1212.85371094 728.19012695 1211.99648437 727.74072266 1211.11328125 C727.26683105 1210.19417969 726.79293945 1209.27507812 726.3046875 1208.328125 C725.29280678 1206.33147046 724.28243366 1204.33405129 723.2734375 1202.3359375 C722.75652344 1201.3140332 722.23960938 1200.29212891 721.70703125 1199.23925781 C693.43033413 1143.02937843 674.67388247 1083.27735908 664.1796875 1021.203125 C662.14337305 1023.80098071 660.49727059 1026.33607866 659.05078125 1029.30078125 C658.66124268 1030.09162109 658.2717041 1030.88246094 657.87036133 1031.69726562 C657.45681396 1032.54482422 657.0432666 1033.39238281 656.6171875 1034.265625 C651.63854713 1044.33744082 646.46143289 1054.28752833 641.1796875 1064.203125 C640.63183594 1065.234375 640.08398438 1066.265625 639.51953125 1067.328125 C625.22307293 1094.22431912 610.41521957 1120.82756664 595.1796875 1147.203125 C594.83166077 1147.80572144 594.48363403 1148.40831787 594.12506104 1149.0291748 C584.71584127 1165.30869563 575.06240369 1181.40412387 565.00927734 1197.296875 C563.17224301 1200.21495036 561.3547242 1203.14429711 559.54296875 1206.078125 C546.89203498 1226.53811064 533.49791649 1246.4861076 519.87890625 1266.3125 C519.2125415 1267.3034668 519.2125415 1267.3034668 518.53271484 1268.31445312 C517.1796875 1270.203125 517.1796875 1270.203125 515.61181641 1271.95117188 C514.11848868 1273.67732229 513.03751229 1275.08578878 512.1796875 1277.203125 C512.47042727 1280.48549931 513.83712483 1283.22158245 515.1796875 1286.203125 C516.0056608 1288.32623017 516.82269674 1290.45282484 517.6328125 1292.58203125 C518.30932861 1294.31622314 518.30932861 1294.31622314 518.99951172 1296.08544922 C541.3465904 1353.58969368 551.11785531 1416.6234369 525.96582031 1475.02148438 C521.26157074 1485.31410247 515.89329222 1495.08082241 509.1796875 1504.203125 C508.42171875 1505.2446875 507.66375 1506.28625 506.8828125 1507.359375 C487.9259825 1532.94497546 463.61324436 1552.3257854 436.1796875 1568.203125 C435.42703613 1568.64720703 434.67438477 1569.09128906 433.89892578 1569.54882812 C380.50533439 1600.93689834 304.0882842 1626.73889428 241.65625 1612.23828125 C227.93962877 1608.58872881 218.2121965 1601.1316294 210.8671875 1589.04296875 C205.50329585 1578.18481308 207.02781015 1564.18017733 210.78710938 1553.02832031 C215.97505095 1539.15023258 225.32133033 1527.75496841 234.49121094 1516.31640625 C236.01915858 1514.40404147 237.53001477 1512.48023551 239.03125 1510.546875 C248.49656695 1498.35989038 258.3521553 1486.48856633 268.34765625 1474.73413086 C271.16253985 1471.42008429 273.93451089 1468.07507644 276.6796875 1464.703125 C282.22160848 1457.89898714 287.91277673 1451.22336622 293.59570312 1444.53710938 C294.99949562 1442.88478931 296.4024397 1441.23175616 297.8046875 1439.578125 C298.49498047 1438.76408203 298.49498047 1438.76408203 299.19921875 1437.93359375 C302.02270748 1434.59528086 304.80124839 1431.22470318 307.5546875 1427.828125 C311.72060472 1422.70658519 316.04058945 1417.73072743 320.37792969 1412.75488281 C324.32676453 1408.21453146 328.16878558 1403.60069464 331.953125 1398.921875 C333.95534247 1396.47706208 335.99807224 1394.07262597 338.05810547 1391.67651367 C343.9698911 1384.78714725 349.49911735 1377.64774355 354.9765625 1370.41015625 C357.90492401 1366.54531812 360.90894887 1362.74584201 363.9296875 1358.953125 C368.10405025 1353.69096107 371.94473644 1348.26196085 375.71875 1342.703125 C379.14053051 1337.75319861 382.86547595 1333.02523496 386.57568359 1328.28979492 C387.09984863 1327.61537354 387.62401367 1326.94095215 388.1640625 1326.24609375 C388.62522461 1325.65852295 389.08638672 1325.07095215 389.56152344 1324.46557617 C390.09551758 1323.71896729 390.62951172 1322.9723584 391.1796875 1322.203125 C391.89093277 1321.36490456 391.89093277 1321.36490456 392.61654663 1320.50975037 C394.21021347 1318.42382928 395.31954908 1316.68841967 396.1796875 1314.203125 C395.65385456 1310.59632485 394.03955768 1307.70623146 392.3125 1304.52734375 C391.85220398 1303.61294022 391.39190796 1302.69853668 390.91766357 1301.75642395 C389.41216425 1298.78345741 387.8588069 1295.83841936 386.3046875 1292.890625 C385.25942106 1290.84306223 384.21792813 1288.79356882 383.18017578 1286.7421875 C381.13066107 1282.70015263 379.06504883 1278.66716253 376.98242188 1274.64208984 C348.01793965 1218.59090135 329.86000114 1158.31693053 319.1796875 1096.203125 C317.77549335 1099.58783147 316.37226585 1102.97293744 314.96981812 1106.35836792 C314.43788689 1107.64237031 313.90584126 1108.92632532 313.37368774 1110.2102356 C310.1032269 1118.10254253 306.84887832 1126.00101128 303.62890625 1133.9140625 C281.66620091 1187.84512055 258.63004772 1241.35184695 234.1796875 1294.203125 C233.57063111 1295.52131842 232.96158154 1296.839515 232.35253906 1298.15771484 C230.59152055 1301.96681585 228.8240378 1305.77288849 227.0546875 1309.578125 C226.56581055 1310.63153076 226.07693359 1311.68493652 225.57324219 1312.77026367 C214.89499707 1335.63830972 203.73010399 1358.27170045 192.42822266 1380.83642578 C190.74946817 1384.18818172 189.07441475 1387.54177249 187.40024757 1390.89582157 C180.46438113 1404.78756816 173.46564157 1418.63775778 166.16674805 1432.34338379 C164.76083988 1434.99228448 163.37915275 1437.6534967 162 1440.31640625 C156.76317106 1450.42099417 151.43817725 1460.46741837 145.95922852 1470.44287109 C142.00115209 1477.66125143 138.13055803 1484.92422617 134.27352905 1492.19683838 C128.17137821 1503.69766383 121.92260569 1515.09565695 115.47265625 1526.40625 C112.07349121 1532.3705688 108.73792301 1538.369522 105.40991211 1544.37368774 C104.43709488 1546.12727258 103.46172095 1547.87943827 102.48632812 1549.6315918 C99.86716658 1554.33853515 97.25113661 1559.04439404 94.72265625 1563.80078125 C86.22993617 1579.64615558 75.04315855 1593.75293777 63.1796875 1607.203125 C62.04466797 1608.50443359 62.04466797 1608.50443359 60.88671875 1609.83203125 C58.68461928 1612.32254729 56.44564108 1614.77061414 54.1796875 1617.203125 C53.37402344 1618.07453125 52.56835938 1618.9459375 51.73828125 1619.84375 C36.15599661 1636.09948659 16.72244511 1649.923771 -6.3984375 1651.19921875 C-23.04713949 1651.21822412 -36.35745706 1645.9900622 -48.4453125 1634.765625 C-49.2290625 1633.92 -50.0128125 1633.074375 -50.8203125 1632.203125 C-51.33980469 1631.68878906 -51.85929687 1631.17445312 -52.39453125 1630.64453125 C-65.64398376 1616.79959773 -70.79432662 1597.12738426 -74.5703125 1578.890625 C-74.76906982 1577.94461426 -74.96782715 1576.99860352 -75.17260742 1576.02392578 C-78.60273919 1558.35426285 -79.19378492 1540.46357169 -79.1328125 1522.515625 C-79.1320723 1521.00130386 -79.1320723 1521.00130386 -79.13131714 1519.45639038 C-79.10548446 1502.05525868 -78.09137246 1484.91327807 -76.18408203 1467.62353516 C-75.63820136 1462.49079141 -75.22092367 1457.34897844 -74.8203125 1452.203125 C-75.17109863 1453.06550781 -75.52188477 1453.92789062 -75.88330078 1454.81640625 C-151.48977889 1640.36699847 -151.48977889 1640.36699847 -202.8203125 1676.203125 C-203.59761719 1676.66589844 -204.37492188 1677.12867188 -205.17578125 1677.60546875 C-214.83373044 1682.92785616 -226.8316051 1685.77402437 -237.8203125 1686.203125 C-238.81675781 1686.24308594 -239.81320312 1686.28304688 -240.83984375 1686.32421875 C-266.48397931 1686.82244767 -289.1703318 1681.43899021 -308.33935547 1663.64550781 C-312.26028415 1659.82670685 -315.56455917 1655.58902292 -318.8203125 1651.203125 C-319.21283203 1650.68411621 -319.60535156 1650.16510742 -320.00976562 1649.63037109 C-362.01171037 1593.93286354 -381.91044987 1516.51122162 -382.8203125 1447.203125 C-382.83352539 1446.22351807 -382.84673828 1445.24391113 -382.86035156 1444.23461914 C-383.30387563 1380.43946771 -372.43355099 1310.92429221 -349.8203125 1251.203125 C-363.33995074 1257.68344165 -376.40115641 1264.97731303 -389.46630859 1272.31884766 C-392.52624616 1274.03791871 -395.58900487 1275.75184449 -398.65234375 1277.46484375 C-412.26211877 1285.09639289 -425.72869543 1292.96593246 -439.17446899 1300.88127136 C-445.51354536 1304.61284269 -451.86032656 1308.33122135 -458.20736694 1312.04922485 C-469.08530825 1318.42202877 -479.95734764 1324.80482298 -490.8203125 1331.203125 C-490.46634399 1331.95480957 -490.46634399 1331.95480957 -490.10522461 1332.72167969 C-474.99115394 1365.02264972 -465.9879697 1398.53852208 -461.5703125 1433.890625 C-461.48722839 1434.55381744 -461.40414429 1435.21700989 -461.31854248 1435.90029907 C-459.12041966 1453.67835627 -458.57933917 1471.18237442 -458.5703125 1489.078125 C-458.56930038 1490.88207733 -458.56930038 1490.88207733 -458.56826782 1492.72247314 C-458.58519451 1511.74965375 -459.236435 1530.33703794 -461.8203125 1549.203125 C-462.07772217 1551.1512207 -462.07772217 1551.1512207 -462.34033203 1553.13867188 C-472.43283763 1628.59004501 -501.12383531 1702.20158417 -549.8203125 1761.203125 C-550.52414062 1762.0796875 -551.22796875 1762.95625 -551.953125 1763.859375 C-556.54221276 1769.55176261 -561.30409745 1775.03153194 -566.265625 1780.40234375 C-568.23813785 1782.56486931 -570.15745825 1784.75129624 -572.06640625 1786.96875 C-576.10424426 1791.59689289 -580.40522126 1795.9350722 -584.7578125 1800.265625 C-585.51771484 1801.02939453 -586.27761719 1801.79316406 -587.06054688 1802.58007812 C-591.81761562 1807.32902207 -596.71904208 1811.82858506 -601.8203125 1816.203125 C-602.86852813 1817.12869227 -603.91548029 1818.05569314 -604.9609375 1818.984375 C-619.63839873 1831.88068231 -635.48938983 1843.4892556 -651.8203125 1854.203125 C-652.94083008 1854.94030762 -652.94083008 1854.94030762 -654.08398438 1855.69238281 C-704.50995182 1888.57077654 -762.15656532 1909.55270061 -821.8203125 1917.203125 C-823.17165283 1917.38101562 -823.17165283 1917.38101562 -824.55029297 1917.5625 C-873.78137189 1923.75207625 -945.68160734 1923.72363678 -987.1328125 1892.703125 C-1024.35429155 1863.69520044 -1044.36095906 1818.05627672 -1050.8203125 1772.203125 C-1050.9234375 1771.48874268 -1051.0265625 1770.77436035 -1051.1328125 1770.03833008 C-1053.96334342 1746.83555829 -1053.28140895 1721.095272 -1048.8203125 1698.203125 C-1048.63227051 1697.18814941 -1048.44422852 1696.17317383 -1048.25048828 1695.12744141 C-1035.52381229 1627.76819291 -1000.48498506 1574.56351128 -952.81884766 1527.07128906 C-951.05382706 1525.3116902 -949.29430117 1523.54672103 -947.53515625 1521.78125 C-941.80012677 1516.0424479 -936.03597973 1510.42638951 -929.8203125 1505.203125 C-928.69062205 1504.23007637 -927.56169926 1503.2561357 -926.43359375 1502.28125 C-923.49505992 1499.76030886 -920.55095006 1497.245896 -917.60644531 1494.73193359 C-915.94149086 1493.30684546 -914.28255168 1491.87509022 -912.625 1490.44140625 C-905.38155766 1484.20563853 -897.89196448 1478.35434597 -890.26953125 1472.58984375 C-887.28810476 1470.33198174 -884.33499784 1468.04350361 -881.40234375 1465.72265625 C-872.3135382 1458.53683184 -863.04377285 1451.78575806 -853.41796875 1445.3359375 C-850.07212179 1443.08454683 -846.80498744 1440.74654788 -843.5546875 1438.359375 C-837.48871617 1433.92235138 -831.26947778 1429.73234706 -825.0078125 1425.578125 C-824.12934158 1424.99419479 -824.12934158 1424.99419479 -823.23312378 1424.39846802 C-795.36485001 1405.88282287 -766.84668143 1388.48995777 -737.79248047 1371.90380859 C-735.02682767 1370.32129361 -732.26803086 1368.72761923 -729.51171875 1367.12890625 C-709.58361038 1355.59862162 -689.20417886 1344.91232285 -668.74438477 1334.36328125 C-657.34772095 1328.47330613 -646.07367333 1322.36158825 -634.8203125 1316.203125 C-638.77532348 1312.10332557 -642.98149188 1308.44104228 -647.3828125 1304.828125 C-648.49003662 1303.91836914 -648.49003662 1303.91836914 -649.61962891 1302.99023438 C-658.47343588 1295.77698031 -667.6360054 1288.98656254 -676.8203125 1282.203125 C-678.45205817 1280.9912021 -680.0835717 1279.77896658 -681.71484375 1278.56640625 C-691.24722864 1271.49520829 -700.86890116 1264.56431742 -710.59423828 1257.76123047 C-712.95187188 1256.11104209 -715.30617725 1254.45617811 -717.66015625 1252.80078125 C-726.55408108 1246.55263847 -735.48371995 1240.36134401 -744.46435547 1234.23852539 C-751.76455793 1229.25593088 -759.01573752 1224.20412655 -766.26611328 1219.14941406 C-772.32604653 1214.92825219 -778.40587829 1210.73830235 -784.5078125 1206.578125 C-794.33875676 1199.87181672 -804.08617402 1193.04893715 -813.8203125 1186.203125 C-814.56023437 1185.68363281 -815.30015625 1185.16414063 -816.0625 1184.62890625 C-824.85750146 1178.45335468 -833.60628615 1172.21771973 -842.30786133 1165.91113281 C-845.63682144 1163.49885333 -848.96745176 1161.09062342 -852.328125 1158.72265625 C-861.26401629 1152.42300394 -869.94886426 1145.81477714 -878.62890625 1139.16796875 C-883.1477804 1135.70933348 -887.69586318 1132.29211791 -892.2578125 1128.890625 C-904.4261096 1119.79401059 -916.25174106 1110.28616683 -928.01611328 1100.67529297 C-929.60304296 1099.38040989 -931.19379987 1098.09022022 -932.78515625 1096.80078125 C-942.95749877 1088.54042088 -952.89775804 1080.01291874 -962.6015625 1071.20703125 C-964.61339643 1069.39000518 -966.64691684 1067.60368108 -968.6953125 1065.828125 C-976.64001104 1058.89456991 -984.33959954 1051.75910002 -991.7421875 1044.25 C-993.70751843 1042.31422292 -995.72755227 1040.49927354 -997.8203125 1038.703125 C-1004.42916671 1033.01399205 -1010.40307294 1026.78212264 -1016.07421875 1020.16796875 C-1017.91646925 1018.09492176 -1019.84432912 1016.14876698 -1021.8203125 1014.203125 C-1024.9336937 1011.1253253 -1027.87040308 1007.96457993 -1030.72265625 1004.64453125 C-1032.39043882 1002.70344352 -1034.07117372 1000.77661544 -1035.76171875 998.85546875 C-1042.57912205 991.08727641 -1049.16814693 983.19403936 -1055.45214844 974.98779297 C-1056.36556194 973.79631318 -1057.28290066 972.60783248 -1058.20410156 971.42236328 C-1071.29033765 954.57576679 -1083.23597951 936.72570774 -1093.8203125 918.203125 C-1094.23023438 917.49929688 -1094.64015625 916.79546875 -1095.0625 916.0703125 C-1115.08645624 881.59119259 -1134.67012647 836.94565011 -1135.05859375 796.31640625 C-1135.06847824 795.47018204 -1135.07836273 794.62395782 -1135.08854675 793.75209045 C-1135.96520401 698.96224056 -1091.18608297 611.66397513 -998.26171875 487.89892578 C-996.81831634 486.20077654 -995.38149827 484.49722307 -993.9453125 482.79296875 C-988.07980441 475.86002444 -982.04725128 469.12311448 -975.8034668 462.52783203 C-973.03205102 459.59694259 -970.32111482 456.63896727 -967.69824219 453.57397461 C-963.48281559 448.745538 -958.98550272 444.22451362 -954.44921875 439.69921875 C-953.56805893 438.8171022 -952.68689911 437.93498566 -951.77903748 437.02613831 C-949.454545 434.70079691 -947.12765343 432.37788882 -944.79992676 430.05578613 C-943.38386572 428.64167676 -941.96976929 427.22563379 -940.55639648 425.80883789 C-937.81502994 423.0612578 -935.07018216 420.31720394 -932.32421875 417.57421875 C-931.49064346 416.73861923 -930.65706818 415.90301971 -929.79823303 415.042099 C-925.52475798 410.78551185 -921.18862789 406.66918884 -916.60545349 402.74671936 C-913.42255069 399.99449371 -910.38198369 397.08859927 -907.3203125 394.203125 C-902.23419409 389.43648483 -897.12168358 384.73057329 -891.8203125 380.203125 C-890.75231751 379.28158211 -889.6846403 378.35967087 -888.6171875 377.4375 C-882.42411472 372.0965286 -876.19165365 366.81618942 -869.83984375 361.6640625 C-867.53473481 359.7853838 -865.24226339 357.89478904 -862.95703125 355.9921875 C-854.4977504 348.95953589 -845.9186525 342.13647135 -837.1484375 335.49609375 C-833.38101618 332.64133626 -829.65495852 329.73666586 -825.93530273 326.82006836 C-818.31427007 320.84752543 -810.59237081 315.08671553 -802.67333984 309.51757812 C-799.89952338 307.54995917 -797.15385265 305.54412711 -794.40454102 303.54248047 C-784.34435051 296.22735431 -774.1354477 289.1533122 -763.8203125 282.203125 C-762.30171631 281.17977051 -762.30171631 281.17977051 -760.75244141 280.13574219 C-735.51481128 263.15928264 -709.91029379 246.83759995 -683.8203125 231.203125 C-682.85528809 230.6246582 -681.89026367 230.04619141 -680.89599609 229.45019531 C-657.91645118 215.70732639 -634.66192273 202.50144326 -611.02734375 189.91992188 C-607.91754699 188.25517684 -604.82053594 186.56894053 -601.7265625 184.875 C-570.19151902 167.67695714 -537.94580285 151.54041305 -505.21386719 136.74609375 C-501.47116935 135.0443779 -497.74306335 133.31291483 -494.015625 131.578125 C-460.42793473 115.98332854 -426.32322133 101.40967772 -391.81213379 87.9786377 C-389.66021706 87.14079208 -387.50929973 86.30040974 -385.35839844 85.45996094 C-303.79138659 53.62256382 -220.89712966 26.94433192 0 0 Z M-128.8203125 1109.203125 C-129.66722656 1110.01136719 -129.66722656 1110.01136719 -130.53125 1110.8359375 C-150.63347271 1130.06033389 -166.08229814 1154.1036276 -179.8203125 1178.203125 C-180.30322754 1179.0379541 -180.78614258 1179.8727832 -181.28369141 1180.73291016 C-215.15456427 1239.37090092 -238.61864133 1300.90221158 -247.8203125 1368.203125 C-247.99820313 1369.50008301 -248.17609375 1370.79704102 -248.359375 1372.13330078 C-250.61954849 1389.54874474 -251.09578126 1406.8514876 -251.1328125 1424.390625 C-251.13846222 1425.86216537 -251.13846222 1425.86216537 -251.14422607 1427.36343384 C-251.17869947 1445.03216137 -250.15165294 1462.60195161 -247.0078125 1480.015625 C-246.83604492 1480.97154541 -246.66427734 1481.92746582 -246.48730469 1482.91235352 C-243.79414402 1497.25861322 -239.30518117 1519.41746455 -226.53125 1528.34765625 C-222.86654751 1530.1800075 -219.91462737 1530.78798501 -215.91796875 1529.671875 C-206.04737933 1525.44999913 -199.4089677 1515.97132145 -193.8203125 1507.203125 C-192.85931641 1505.70845703 -192.85931641 1505.70845703 -191.87890625 1504.18359375 C-162.99872884 1458.17237464 -145.14191902 1405.20741565 -125.75708008 1354.78808594 C-121.13291709 1342.76315286 -116.47844921 1330.75375473 -111.70187378 1318.78857422 C-60.01555673 1204.02674484 -60.01555673 1204.02674484 -44.3828125 1082.515625 C-46.2494185 1078.21431551 -48.86798893 1075.68791914 -52.8203125 1073.203125 C-79.63102086 1064.30240401 -111.40413836 1092.31739271 -128.8203125 1109.203125 Z M764.9296875 1275.890625 C764.39899658 1276.37958252 763.86830566 1276.86854004 763.3215332 1277.37231445 C754.52053324 1285.54255677 745.83575383 1293.93772228 738.1796875 1303.203125 C737.51598145 1303.99614014 737.51598145 1303.99614014 736.83886719 1304.80517578 C707.6447104 1339.74569375 670.58106102 1393.88168217 670.9453125 1441.234375 C671.30670353 1444.27005966 672.62578432 1446.61328636 674.1796875 1449.203125 C681.86721709 1447.85499873 688.31103038 1445.11899119 695.3046875 1441.703125 C696.95911865 1440.90007935 696.95911865 1440.90007935 698.64697266 1440.08081055 C707.36024421 1435.77017533 715.40180595 1431.021989 723.1796875 1425.203125 C724.11039063 1424.5121875 725.04109375 1423.82125 726 1423.109375 C755.82957321 1399.80230322 773.01624545 1368.44011287 777.734375 1331.0390625 C779.87864412 1310.71277329 778.72597905 1290.29589131 771.1796875 1271.203125 C768.91534917 1271.203125 766.57781177 1274.36822486 764.9296875 1275.890625 Z M-578.1328125 1372.453125 C-583.68474058 1375.90255698 -589.2728768 1379.28644059 -594.8828125 1382.640625 C-640.47030585 1409.94351161 -685.21937146 1438.3806209 -727.8203125 1470.203125 C-729.23424891 1471.25407591 -730.64830871 1472.30486084 -732.0625 1473.35546875 C-754.89906384 1490.35807201 -777.13729705 1508.27088937 -798.02734375 1527.62890625 C-800.57675699 1529.97864517 -803.16036894 1532.28183432 -805.7578125 1534.578125 C-814.62619704 1542.54536724 -823.24309749 1550.98846098 -830.8203125 1560.203125 C-831.22507812 1560.6887793 -831.62984375 1561.17443359 -832.046875 1561.67480469 C-845.40477199 1577.75198785 -857.15399637 1594.6623172 -866.8203125 1613.203125 C-867.49978329 1614.47016832 -868.17946349 1615.73709937 -868.859375 1617.00390625 C-887.85311269 1653.02343501 -901.99525053 1698.32173612 -889.75390625 1738.72265625 C-885.08411516 1751.96143693 -877.5094853 1761.83619866 -865.0703125 1768.453125 C-834.81658973 1782.77780434 -797.63498353 1773.79447707 -767.64990234 1763.20092773 C-743.04126823 1754.15119387 -720.00381135 1741.60833947 -698.8203125 1726.203125 C-698.13565918 1725.70780273 -697.45100586 1725.21248047 -696.74560547 1724.70214844 C-689.26987507 1719.2699568 -681.98655845 1713.75217206 -675.2265625 1707.43359375 C-673.23755518 1705.58988729 -671.21596657 1703.81819671 -669.16015625 1702.05078125 C-664.19822747 1697.72166309 -659.53550722 1693.11022318 -654.8828125 1688.453125 C-653.9954541 1687.56496094 -653.1080957 1686.67679688 -652.19384766 1685.76171875 C-646.31564691 1679.82813499 -640.93246312 1673.80718897 -635.8203125 1667.203125 C-634.24066059 1665.34582096 -632.65707993 1663.49185367 -631.0703125 1661.640625 C-596.83334112 1620.38744839 -574.1631277 1570.65533055 -563.8203125 1518.203125 C-563.65450684 1517.37377441 -563.48870117 1516.54442383 -563.31787109 1515.68994141 C-553.9567399 1467.45648668 -558.7360935 1416.25481675 -571.8203125 1369.203125 C-573.98461688 1369.203125 -576.40993998 1371.37605603 -578.1328125 1372.453125 Z M431.1796875 1386.203125 C429.32845295 1388.40813749 427.5260033 1390.63185456 425.7421875 1392.890625 C425.20013672 1393.57253906 424.65808594 1394.25445313 424.09960938 1394.95703125 C420.34129277 1399.69788549 416.64161798 1404.48077567 412.96875 1409.28808594 C409.2850658 1414.09734032 405.50572128 1418.82679412 401.70874023 1423.546875 C399.25978459 1426.59369958 396.82384061 1429.64813334 394.4296875 1432.73828125 C385.49528706 1444.26795087 375.94281997 1455.21377233 366.1484375 1466.01953125 C364.34433966 1468.02050485 362.56961733 1470.0426281 360.8046875 1472.078125 C357.35049446 1476.04643049 353.78838192 1479.91325059 350.22485352 1483.78295898 C347.6925805 1486.53750592 345.18948547 1489.31037575 342.7421875 1492.140625 C339.70510067 1495.64161053 336.57678711 1499.05137837 333.4296875 1502.453125 C332.9150293 1503.0097583 332.40037109 1503.5663916 331.87011719 1504.13989258 C329.81854591 1506.35710876 327.76603605 1508.57340805 325.70751953 1510.78417969 C320.67723715 1516.18713919 315.71171663 1521.64101268 310.9296875 1527.265625 C310.18203125 1528.14347656 309.434375 1529.02132813 308.6640625 1529.92578125 C307.92929688 1531.05306641 307.92929688 1531.05306641 307.1796875 1532.203125 C307.5096875 1533.193125 307.8396875 1534.183125 308.1796875 1535.203125 C324.07435595 1535.82917321 336.79880026 1526.10299338 349.1796875 1517.203125 C349.88303223 1516.69942383 350.58637695 1516.19572266 351.31103516 1515.67675781 C388.93185748 1488.5430384 423.46330041 1453.13105413 431.77734375 1405.80078125 C432.22936809 1401.75889374 432.29049012 1397.82676089 432.2421875 1393.765625 C432.23767578 1393.03408203 432.23316406 1392.30253906 432.22851562 1391.54882812 C432.21686898 1389.76689081 432.19893941 1387.98499637 432.1796875 1386.203125 C431.8496875 1386.203125 431.5196875 1386.203125 431.1796875 1386.203125 Z M-73.8203125 1447.203125 C-72.8203125 1449.203125 -72.8203125 1449.203125 -72.8203125 1449.203125 Z " fill="#CD6699" transform="translate(1134.8203125,-0.203125)"/>
</svg>
